<svg version="1.1" xmlns="http://www.w3.org/2000/svg" xmlns:xlink="http://www.w3.org/1999/xlink" width="362.29756" height="343" viewBox="0,0,362.29756,343"><g transform="translate(-78.98437,-115.5)"><g data-paper-data="{&quot;isPaintingLayer&quot;:true}" fill="none" fill-rule="nonzero" stroke-width="50" stroke-linejoin="miter" stroke-miterlimit="10" stroke-dasharray="" stroke-dashoffset="0" style="mix-blend-mode: normal"><path d="M387.98438,184.5c0,24.30053 -63.57557,44 -142,44c-78.42443,0 -142,-19.69947 -142,-44c0,-24.30053 63.57557,-44 142,-44c78.42443,0 142,19.69947 142,44z" stroke="#00ff77" stroke-linecap="butt"/><path d="M237.98438,431c0,1.38071 0.67157,2.5 1.5,2.5c0.82843,0 1.5,-1.11929 1.5,-2.5c0,-1.38071 -0.67157,-2.5 -1.5,-2.5c-0.82843,0 -1.5,1.11929 -1.5,2.5z" stroke="#00ff77" stroke-linecap="butt"/><path d="M255.98438,180c0,-0.27614 0.44772,-0.5 1,-0.5c0.55228,0 1,0.22386 1,0.5c0,0.27614 -0.44772,0.5 -1,0.5c-0.55228,0 -1,-0.22386 -1,-0.5z" stroke="#00ff77" stroke-linecap="butt"/><path d="M139.98438,174.15068c0,-8.53015 45.89081,-15.44521 102.5,-15.44521c56.60919,0 102.5,6.91505 102.5,15.44521c0,8.53015 -45.89081,15.44521 -102.5,15.44521c-56.60919,0 -102.5,-6.91505 -102.5,-15.44521z" stroke="#00ff77" stroke-linecap="butt"/><path d="M308.98438,147.5l21,17" stroke="#00ff77" stroke-linecap="round"/><path d="M321.5,186l116.48438,-15.5l-92,7" stroke="#ff0000" stroke-linecap="round"/></g></g></svg>