<svg version="1.1" xmlns="http://www.w3.org/2000/svg" xmlns:xlink="http://www.w3.org/1999/xlink" width="71.08908" height="189.28184" viewBox="0,0,71.08908,189.28184"><g transform="translate(-200.82488,-84.87197)"><g data-paper-data="{&quot;isPaintingLayer&quot;:true}" fill-rule="nonzero" stroke-linejoin="miter" stroke-miterlimit="10" stroke-dasharray="" stroke-dashoffset="0" style="mix-blend-mode: normal"><g stroke="none" stroke-width="0.95" stroke-linecap="butt"><path d="M259.9299,257.4956c-0.2746,0.5938 1.6036,0.9852 2.0681,1.0412c1.2303,0.1397 3.06,-0.2945 4.2494,-0.3002c1.0564,-0.0095 2.2363,0.1596 3.1654,0.5624c0.5966,0.2584 1.6843,1.4754 1.8392,2.11c0.0342,0.1406 0.0152,0.4161 -0.019,0.5548c-0.9947,0.3866 -1.8449,1.1286 -2.8025,1.633c-1.3281,0.7011 -2.7664,1.2246 -4.2769,1.5324c-1.5808,0.3249 -1.4839,0.6032 -3.1084,0.6811c-1.3823,0.0646 -4.5011,0.1596 -5.8093,-0.0931c-2.7806,-0.5282 -5.0834,-0.6013 -7.6541,-1.8924c-0.8028,-0.0959 -5.2991,-1.8287 -3.8741,-2.1593c1.2454,-0.2888 4.8079,-0.3259 6.0914,-0.2575c1.8981,0.0979 3.857,-0.6669 5.642,-1.4012c0.8484,-0.3477 1.5343,-0.6612 2.3323,-1.0821c0.7163,-0.3771 1.253,-0.5348 1.7651,-1.1229" fill="#eaa06d"/><path d="M271.4353,261.4134c0.2442,0.913 0.2936,1.8592 0.324,2.8538c0.0133,0.4883 -0.1074,0.8512 -0.1663,1.2673c-0.0608,0.4551 0.1064,0.8892 0.0437,1.3433c-1.0117,0.399 -1.8933,1.0089 -2.9488,1.3566c-1.139,0.3753 -2.3227,0.6641 -3.4713,1.0241c-2.698,0.8484 -5.7541,0.6869 -8.4778,0.0542c-1.0839,-0.2508 -2.1099,-0.6384 -3.1378,-1.0555c-0.9918,-0.4028 -1.7281,-0.9405 -2.8301,-1.0317c-1.1229,-0.0969 -2.2068,0.2337 -3.3421,0.1539c-1.0583,-0.0722 -2.2629,-0.1444 -3.248,-0.5215c-0.48755,-0.18716 -0.78348,-0.50189 -0.95126,-0.8941c0.09423,-0.2912 0.14514,-0.60188 0.14514,-0.92445c0,-0.22288 -0.0243,-0.44008 -0.07041,-0.64909l-0.14869,-0.74347c0.13633,-0.85733 0.34225,-1.70312 0.31932,-2.30179c0.4228,0.2508 1.2531,0.7049 1.6692,0.9966c0.8977,0.6175 1.6368,0.7533 2.678,1.0488c1.1106,0.3173 2.0083,0.7087 3.1151,1.0108c2.393,0.6545 4.8887,0.8854 7.3824,1.0241c2.3997,0.132 4.7092,-0.0038 6.9322,-0.8588c1.2388,-0.475 2.4282,-1.0802 3.6052,-1.6958c0.7201,-0.3762 1.7167,-1.5637 2.5137,-1.5751z" fill="#bc7240"/><path d="M264.0567,258.4836c-0.8731,0.1169 -1.7604,0.2318 -2.641,0.1074c-0.9709,-0.1387 -1.4402,-0.5957 -2.0986,-1.2892c-0.133,-0.1396 0.3439,-0.1054 0.4427,-0.0019c0.6764,0.7125 1.2597,1.0811 2.2762,1.0887c0.5748,0.0076 1.1552,-0.0817 1.7271,-0.1558c1.0897,-0.1406 2.1784,-0.2983 3.2823,-0.2783c2.13419,0.03614 3.70731,1.09557 4.41056,3.09509c0.09777,0.02671 0.18574,0.07907 0.19594,0.14341c0.3211,1.9333 0.2195,3.8865 0.2594,5.8387c0.00011,0.00355 0.00004,0.007 -0.00018,0.01034c0.00894,0.02582 -0.00259,0.05027 -0.04452,0.06946c-0.00289,0.0013 -0.00578,0.00261 -0.00867,0.00391c-0.00172,0.00082 -0.00348,0.00161 -0.00527,0.00237c-3.34016,1.50543 -6.64686,2.62542 -10.31066,2.77342c-0.01009,0.00045 -0.02074,0 -0.03181,-0.00124c-2.75803,0.05736 -5.26733,-0.31623 -7.82089,-1.37816c-0.8018,-0.3363 -1.5561,-0.7372 -2.3883,-0.9965c-1.0944,-0.3363 -2.0624,-0.0542 -3.1549,0.0294c-1.7471,0.1378 -3.3963,-0.3002 -5.0483,-0.8274c-0.04945,-0.01364 -0.13288,-0.03911 -0.17949,-0.08663c0.16259,-0.25935 0.28662,-0.54533 0.36405,-0.84992c0.08558,0.48589 0.30203,0.84991 0.73784,0.98304c1.4193,0.4304 2.85,0.6897 4.3292,0.4598c0.7419,-0.1149 1.4563,-0.2099 2.2021,-0.1149c1.6406,0.208 3.1359,1.1932 4.6721,1.7461c1.976,0.7087 4.047,0.8236 6.1275,0.7771c0.00775,-0.00017 0.01585,0.00018 0.02423,0.00102c3.56686,-0.14817 6.80592,-1.25534 10.05799,-2.7197c-0.03389,-1.8148 0.04789,-3.63187 -0.20548,-5.43678c-3.5461,2.9226 -8.44119,4.22088 -12.94904,4.12076c-2.6163,-0.0617 -5.206,-0.5643 -7.7387,-1.197c-1.1932,-0.2992 -2.3636,-0.6678 -3.5217,-1.0839c-1.25564,-0.44844 -2.16295,-1.22406 -3.30497,-1.81691c-0.01247,0.67699 -0.29529,1.79986 -0.41934,2.83994l-0.22,-1.10002c0.10189,-0.63444 0.18704,-1.27231 0.16142,-1.92281c-0.00185,-0.04633 0.0251,-0.07526 0.06703,-0.0904c0.01299,-0.07309 0.17908,-0.11035 0.31397,-0.0454c0.741,0.3505 1.3594,0.8512 2.0415,1.3005c1.1543,0.7553 2.755,1.0868 4.0651,1.4583c2.5754,0.7305 5.2326,1.2245 7.9059,1.3765c4.62732,0.26065 9.80958,-1.15287 13.3864,-4.22262c-1.08615,-3.28483 -4.10633,-2.99023 -6.9587,-2.60978z" fill="#000000"/></g><g fill="#000000" stroke="#e8dfdf" stroke-width="0.5" stroke-linecap="butt"><path d="M224.06866,189.03521v0v0v0v0v0v0v0c0,-0.0019 -0.0019,-0.0019 -0.0009,-0.0029c0.0342,-2.8557 0.6023,-5.6667 0.8189,-8.5053c0.0988,-0.5159 0.151,-1.0118 0.1833,-1.6312c-0.0294,-0.3173 0.0314,0.1245 0.3021,-0.1909c0.2157,-0.2499 0.342,0.3011 0.7125,0.4161c0.5377,0.1729 1.5143,0.4455 2.0587,0.5738c1.2084,0.2935 2.9117,0.6716 4.1667,0.6716c2.9117,0 5.5831,-0.0313 8.4759,-0.3819c3.3658,-0.4056 5.6686,-1.3471 8.8597,-2.4396c2.5317,-0.8683 5.0834,-2.7559 7.6199,-3.6185c0.2917,0.7923 0.2746,1.7309 0.343,2.5621c0.0874,1.0792 0.2764,2.1537 0.4227,3.2262c0.3173,2.3304 0.6631,4.6484 1.2179,6.9322c-0.0342,0.0332 -0.0446,0.0798 0.0304,0.1387c0.001,0 0.001,0 0.001,0.0019c0.0066,0.0237 0.0114,0.0484 0.0171,0.0722c0.0114,0.0456 0.0608,0.0779 0.1178,0.1016c0.0332,0.0684 0.0446,0.1425 0.037,0.2223c-0.0019,0.0257 -0.0085,0.0542 -0.0114,0.0817c-0.2954,1.1894 -4.4488,3.2215 -4.7652,3.3402c-2.9649,1.1343 -6.0847,1.6274 -9.2283,1.958c-0.683,-0.6194 -0.3401,-2.6961 -0.3163,-3.4751c0.0617,-1.957 -0.2926,-3.895 -0.6194,-5.815c-0.0219,-0.1206 -0.3363,-0.2147 -0.3601,-0.0627c-0.2375,1.5656 -0.6944,3.0894 -0.9224,4.6664c-0.1254,0.8664 -0.2727,1.7271 -0.3829,2.5935c-0.0997,0.7847 -0.3657,1.5276 -0.4588,2.3047c-0.0019,0.0086 0.0095,0.0162 0.0104,0.0238c-3.8285,0.1577 -7.6133,-0.3097 -11.3886,-0.894c-0.6811,-0.1054 -1.5266,-0.1776 -2.3949,-0.3021c-0.8151,-0.1406 -1.6606,-0.3211 -2.4187,-0.5823c-0.9852,-0.3876 -1.7908,-0.989 -2.1271,-1.9855z"/><path d="M256.79616,189.93291c-3.3848,1.9779 -7.6,2.4995 -11.4266,2.8928c-0.1235,0.0152 -0.2736,-0.1169 -0.2308,-0.191c-0.59,-0.6289 -0.4133,-2.0149 -0.3981,-2.7569c0.038,-1.8629 -0.1387,-3.6556 -0.4113,-5.4739c-0.0029,-0.0199 -0.0057,-0.0399 -0.0095,-0.0589c-0.0038,0.0171 -0.0057,0.0352 -0.0095,0.0542c-0.2404,1.1875 -0.5444,2.3683 -0.7268,3.5758c-0.1292,0.8654 -0.2707,1.7261 -0.3819,2.5925c-0.0988,0.779 -0.3629,1.5181 -0.455,2.2914c0.0883,0.0675 0.1292,0.1672 -0.0295,0.1748c-4.4118,0.2081 -8.702,-0.4987 -13.0558,-1.0906c-1.63186,-0.22217 -3.89888,-0.47679 -5.17265,-1.70781c-0.04955,-0.08624 -0.1007,-0.17093 -0.15345,-0.25401c-0.09993,-0.17119 -0.21634,-0.33159 -0.34704,-0.47903c-0.05095,-0.06228 -0.10329,-0.12338 -0.15688,-0.18341c-0.04631,-0.09957 -0.08794,-0.20326 -0.12457,-0.31125c0,-0.0019 -0.0029,-0.0038 -0.0029,-0.0057c0.0048,-0.3819 0.0228,-0.7647 0.0447,-1.1466c0.0864,-1.5257 0.2888,-3.041 0.4797,-4.5591c0.209,-1.6606 0.3971,-3.325 0.3791,-5.0046c-0.0019,-0.1748 0.3619,-0.1111 0.3638,0.0333c0.0076,0.7362 -0.0304,1.4706 -0.0864,2.2021c-0.2166,2.8386 -0.7847,5.6496 -0.8189,8.5053c0.0009,0 0.0019,0 0.0019,0.0019c0.3353,0.9966 1.1419,1.5979 2.127,1.9855c0.7448,0.2907 1.5903,0.4636 2.4187,0.5824c0.8683,0.1235 1.7138,0.1966 2.395,0.3021c3.7753,0.5842 7.561,1.0516 11.3886,0.8939c-0.001,-0.0066 -0.0114,-0.0142 -0.0105,-0.0237c0.0922,-0.7781 0.3591,-1.52 0.4589,-2.3047c0.1102,-0.8664 0.2574,-1.7271 0.3828,-2.5935c0.229,-1.577 0.685,-3.1008 0.9225,-4.6664c0.0237,-0.153 0.3391,-0.058 0.36,0.0627c0.3259,1.9199 0.6802,3.857 0.6194,5.8149c-0.0237,0.779 -0.3667,2.8557 0.3164,3.4751c3.1435,-0.3306 6.2633,-0.8246 9.2283,-1.9579c0.3163,-0.1188 4.4697,-2.1508 4.7652,-3.3402c0.0066,-0.0276 0.0085,-0.0561 0.0114,-0.0817c0.0076,-0.0798 -0.0038,-0.1539 -0.0371,-0.2223c-0.057,-0.0238 -0.1064,-0.0551 -0.1178,-0.1017c-0.0057,-0.0237 -0.0104,-0.0484 -0.0171,-0.0722c0,-0.0019 0,-0.0019 -0.0009,-0.0019c-0.0751,-0.0589 -0.0646,-0.1054 -0.0304,-0.1387c-0.5548,-2.2838 -0.9006,-4.6018 -1.2179,-6.9321c-0.1463,-1.0716 -0.3344,-2.1461 -0.4228,-3.2262c-0.0684,-0.8313 -0.0503,-1.7699 -0.3429,-2.5622c-0.0067,-0.0171 -0.0095,-0.037 -0.0162,-0.0541c-0.0731,-0.1834 0.285,-0.1615 0.3373,-0.0276c0.5747,1.4697 0.4664,3.4419 0.6811,4.997c0.3639,2.661 0.722,5.32 1.3633,7.9306c0.873,1.0317 -2.167,2.7778 -2.8339,3.1616z"/></g><g stroke="none" stroke-width="0.95" stroke-linecap="butt"><path d="M240.0492,124.203v0v0v0v0v0v0v0c-4.2132,0.2109 -6.6148,-2.3702 -7.4024,-3.4048l0.209,-2.736l0.0694,-0.9224c0.0598,0.0323 0.1187,0.0655 0.1795,0.095c2.3123,1.1267 5.2497,2.375 7.8584,2.4263c0.0409,0.0009 0.0694,-0.0029 0.0893,-0.0076c0.001,0 0.0019,0 0.0019,0c0.647,-0.153 1.2673,-0.4437 1.8544,-0.8009c0.0209,2.1822 1.9057,1.8848 2.3437,1.786c-0.1891,1.0384 -1.0669,3.3573 -5.2032,3.5644z" fill="#a86c35"/><path d="M232.8558,118.0622l-0.2185,2.851l-0.1947,-0.2803l-0.1216,-0.1748l0.2375,-2.7521l0.1482,-0.8911l0.2375,0.0598l-0.02,0.2651l-0.0684,0.9224" fill="#000000"/><path d="M245.3436,120.6158v0v0v0v0v0v0v0c0,0 -2.4121,0.7059 -2.4358,-1.7641c-0.0019,-0.0969 -0.0057,-0.1881 0.0009,-0.2945h0.2375c0,0 -0.2574,2.2961 2.1774,1.8411l0.0171,0.1824z" fill="#000000"/></g><g stroke="none" stroke-linecap="butt"><path d="M233.6595,182.6945v0v0v0v0v0v0v0c-1.2169,0.0304 -2.4301,0.0143 -3.6242,-0.0731c-2.5299,-0.191 -5.4806,-0.7106 -7.4927,-2.4121c-0.019,-0.0171 -0.0513,-0.0294 -0.0874,-0.0408c0.1615,-0.6033 -0.0465,-1.3585 -0.0902,-1.9523c-0.0798,-1.0706 -0.0912,-2.26 0.8312,-2.9877l0.1368,-2.9146l4.0565,2.2629c3.3288,1.9969 7.0082,3.9862 10.9507,4.313c3.8437,0.3192 7.3758,-0.9016 10.7103,-2.7408c0.1795,-0.1007 -0.2632,-0.2821 -0.3838,-0.2175c-3.1673,1.7518 -6.7127,3.1188 -10.3987,2.7255c-3.8485,-0.4123 -7.315,-2.2325 -10.5887,-4.1933l-4.332,-2.4424l0.1472,-3.1341c2.1043,-3.0077 1.8012,-6.7317 1.8012,-6.7317c-0.3496,-0.7115 -0.8322,-1.3157 -1.4212,-1.7841c0.0114,-2.3237 0.2375,-4.8041 -0.3847,-7.0708c-0.4931,-1.8079 -1.0631,-3.8409 -2.0017,-5.4749c0.0295,0.0029 0.0561,0.0038 0.076,-0.0019c2.0577,-0.6336 3.1474,-2.9412 4.0024,-4.7395c0.056,-0.1226 -0.4085,-0.2765 -0.4769,-0.1283c-0.7866,1.6502 -1.7794,3.7459 -3.5692,4.5059c0.1397,-0.3563 0.2765,-0.7059 0.4123,-1.0336c0.4855,-1.1695 0.9481,-2.3551 1.4991,-3.496c0.5368,-1.1058 1.2075,-2.7284 2.4577,-3.1844c0.1786,-0.0665 -0.2575,-0.2622 -0.381,-0.2176c-0.9338,0.3392 -1.5238,1.3234 -1.9798,2.1575c-0.6678,1.2198 -1.1884,2.4994 -1.7204,3.78c-0.9918,2.376 -1.9019,5.9565 -4.5059,7.0433c-0.1092,-0.1558 -0.2232,-0.2992 -0.3144,-0.4161c-0.3582,-0.4569 -0.7467,-0.8854 -1.1448,-1.3081c-0.0921,-0.1007 -0.5652,-0.1435 -0.4398,-0.0076c0.5975,0.6422 1.7499,1.614 1.8202,2.5422c0.0513,0.6811 -0.647,0.0294 -0.8978,-0.2223c0.0152,-0.0095 0.0171,-0.0124 -0.0057,-0.0057c-0.0152,-0.0152 -0.0361,-0.0352 -0.0475,-0.0475c-0.3059,-0.3154 -0.6232,-0.5938 -0.9889,-0.8427c-0.6489,-0.4455 -1.4108,-0.6973 -2.167,-0.9044c-0.284,-0.0779 -0.3391,0.1292 -0.056,0.2052c0.798,0.2185 1.615,0.5016 2.2543,1.0488c0.3781,0.3202 0.7049,0.7496 1.1001,1.0659c0.001,0.001 0.0029,0.0038 0.0038,0.0048c-0.0095,0.0161 0.0019,0.0313 0.0361,0.0446c0.8949,0.9975 1.2046,2.4244 1.9903,3.5226c0.5538,0.779 1.159,1.5124 1.9342,2.071c-0.5985,-0.0047 -1.1913,0.0941 -1.3946,0.4769c-0.058,0.1121 0.3999,0.2765 0.4788,0.1302c0.2698,-0.5102 1.6739,-0.3515 2.0909,-0.2784c1.4944,0.2613 2.6059,1.1457 3.2661,2.4976c0.0238,0.0475 0.0969,0.0798 0.1767,0.1026c-0.0237,0.057 -0.038,0.1073 -0.038,0.1073c-0.0399,2.7246 -0.7296,4.5097 -1.1913,5.4131c0.076,-0.3353 0.1349,-0.6745 0.1729,-1.0155c0.0599,-0.5786 0.1026,-1.1742 0.0247,-1.7547c-0.0418,-0.322 -0.0646,-0.6868 -0.1102,-1.0431c-0.0399,-0.3068 -0.095,-0.6051 -0.2023,-0.8578c-0.058,-0.1425 -0.5311,-0.1957 -0.4741,-0.0703c0.1796,0.4199 0.2214,1.1941 0.285,1.6796c0.0019,0.0142 0.001,0.0285 0.0029,0.0427v0c0.0798,0.6232 0.0826,1.255 -0.0038,1.8772c-0.0903,0.6622 -0.2347,1.3177 -0.4266,1.9589c-0.0798,0.2651 -0.1662,0.5282 -0.2622,0.7876c-0.0997,0.2679 -0.208,0.5339 -0.3268,0.7932c-0.9633,2.0891 -2.8519,5.0407 -5.5499,4.6674c-0.0275,-0.0038 -0.0323,0.0047 -0.0532,0.0047c-4.3016,-0.1558 -6.7326,-5.7047 -8.5528,-8.9005c-1.2531,-2.205 -2.5137,-4.428 -4.0176,-6.479c-1.2996,-1.7699 -2.3769,-3.6547 -2.9222,-5.7988c-0.0009,-0.001 0,-0.001 0,-0.001c-0.3344,-1.6767 1.2873,-3.6565 2.1157,-4.9799c1.2027,-1.9161 2.0748,-4.0451 3.2347,-5.9983c1.4982,-2.5241 2.9289,-5.0958 4.4688,-7.5971c1.4735,-2.3883 3.0172,-4.7339 4.351,-7.2067c0,-0.001 -0.0009,-0.0019 -0.0009,-0.0019c2.5146,-5.1652 7.9828,-4.5895 12.7024,-6.0164c0.115,0.0048 0.2603,-0.076 0.2603,-0.076l3.6005,-1.0288c0.1577,0.1586 2.414,4.1173 7.9164,3.8399c5.5014,-0.2774 5.6211,-4.0774 5.6211,-4.0774l3.3896,0.4541c0.5035,0.1149 1.0023,0.2527 1.4925,0.418c0.4949,0.17 0.9832,0.361 1.4649,0.5709c0.0114,0.0048 0.0228,0.0114 0.0342,0.0162c0.4731,0.2071 0.9386,0.4313 1.3955,0.6735c0,0.001 0.001,0.001 0.001,0.001c0.1311,1.4411 0.8407,9.2663 0.9832,11.0485c-0.0589,0.0076 -0.1045,0.0294 -0.1007,0.0807c0.2461,3.3611 -0.2023,6.612 -0.5728,9.9266c-0.0038,0.0076 -0.0219,0.0104 -0.0162,0.0218c0.0038,0.0067 0.0076,0.0143 0.0114,0.0209c-0.0294,0.2622 -0.0598,0.5244 -0.0874,0.7876c-0.3562,3.363 -0.0551,6.5683 0.9301,9.8163c1.1476,3.7829 2.9174,7.2894 4.294,10.9811c0.7011,1.8762 0.7514,3.6546 -0.5852,5.2506c-0.4161,0.4959 -0.8731,0.9557 -1.3291,1.4136c-0.0114,0.0019 -0.0076,0.0105 -0.0152,0.0143c-0.5244,0.5263 -1.0507,1.0497 -1.5238,1.6226c-0.1026,0.1273 0.3525,0.2935 0.4446,0.1786c0.3857,-0.4655 0.8142,-0.9111 1.2426,-1.3538c0.4209,0.9054 1.0555,2.5128 0.4598,3.1578c-2.6628,0.5292 -4.7984,2.3731 -7.2922,3.3735c-1.9408,0.779 -3.9159,1.6615 -5.9422,2.3208c-0.5947,0.152 -1.1961,0.3202 -1.8145,0.5121c-0.6859,0.1653 -1.3766,0.3049 -2.0758,0.3876c-1.4003,0.1634 -2.831,0.3135 -4.2674,0.417c-0.019,0 -0.0389,0 -0.0589,0c-0.8407,0 -1.6425,0.0589 -2.4244,0.1235z" fill="#302d63" stroke-width="0.95"/><path d="M254.7581,133.7895v0v0v0v0v0v0v0c0.2403,3.2575 -0.1302,6.4429 -0.5282,9.67c-0.076,0.1786 -0.1159,0.3591 -0.1387,0.5377c-0.0276,0.2195 -0.0276,0.4389 0.0152,0.6517c-0.0323,0.3354 -0.0523,0.6679 -0.0722,0.9994c-0.0152,0.0922 -0.02,0.1862 -0.02,0.2822c-0.1444,3.0134 0.2356,5.9004 1.1362,8.8758c1.1818,3.8988 3.1797,7.4851 4.4441,11.344c0.855,2.6087 -0.6232,4.2864 -2.2268,5.947c0.3895,0.7999 1.5343,3.1635 0.4665,3.7962c-0.0599,0.0351 -0.1748,0.0133 -0.2746,-0.0238c-1.5504,0.3696 -2.7854,1.1467 -4.1496,1.9836c-1.4497,0.8892 -3.1046,1.4231 -4.674,2.0577c-3.4342,1.3918 -6.6946,2.3845 -10.3939,2.6809c-2.6942,0.2157 -5.4122,0.4418 -8.1083,0.2613c-0.361,-0.0247 -0.721,-0.057 -1.0811,-0.0969c-0.4883,-0.0542 -0.9747,-0.1207 -1.4601,-0.2081c-1.7955,-0.323 -3.8086,-0.9604 -5.2906,-2.109c-0.0351,-0.0275 -0.075,-0.0522 -0.1102,-0.0807c0,0 -0.0009,0 -0.0019,0c-0.1539,0.0028 -0.3743,-0.0903 -0.3382,-0.1834c0.2765,-0.7343 -0.0712,-1.7508 -0.0959,-2.5137c-0.0238,-0.8892 0.0655,-1.7831 0.6925,-2.4253c0.0304,-0.0295 0.0618,-0.0599 0.0941,-0.0884c0.0351,-0.0323 0.0655,-0.0674 0.1045,-0.0988l0.437,-5.4777c-0.1967,0.4978 -0.4104,0.9871 -0.6527,1.4573c-1.0307,2.0026 -2.8633,4.1677 -5.3019,3.9995c-0.0171,0.0019 -0.0314,0.0057 -0.0551,0.0057c-0.1131,-0.0009 -0.2195,-0.0161 -0.3297,-0.0237c-0.0076,0 -0.0152,-0.001 -0.0228,-0.0019c-1.3765,-0.0931 -2.5517,-0.6441 -3.5691,-1.4621c-1.7271,-1.3898 -3.0125,-3.5254 -4.104,-5.4074c-0.1226,-0.2109 -0.2423,-0.4189 -0.3601,-0.6222c-0.4693,-0.8085 -0.9329,-1.6198 -1.3984,-2.4301c-0.7068,-1.2293 -1.4278,-2.4491 -2.1888,-3.6452c-0.2945,-0.4617 -0.588,-0.9234 -0.8977,-1.3756c-1.426,-2.0824 -2.7911,-4.0289 -3.4276,-6.5255c-0.001,-0.0029 -0.0057,-0.0038 -0.0057,-0.0057c-0.3002,-1.5143 0.9576,-3.1977 1.7138,-4.4052c1.1846,-1.8981 2.0862,-3.9463 3.1996,-5.8909c1.5342,-2.6724 3.0913,-5.3438 4.6882,-7.98c1.5238,-2.5223 3.1664,-4.9714 4.5714,-7.5649c0,-0.0009 -0.0009,-0.0019 -0.0009,-0.0019c1.1628,-2.3902 3.0685,-3.838 5.585,-4.5999c2.3389,-0.7077 4.8137,-0.8008 7.1564,-1.4915c0.1054,-0.0313 0.2118,-0.057 0.3163,-0.0902l4.0423,-1.1894l0.208,0.0589c0,0 0.0998,0.1643 0.2955,0.4208c0.7875,1.0336 3.1891,3.6157 7.4024,3.4048c4.1372,-0.2071 5.015,-2.526 5.2031,-3.5644c0.0504,-0.2812 0.0542,-0.474 0.0542,-0.4987c0,0 3.0865,0.2774 3.8389,0.475l-0.0399,0.0893c0.38,0.0693 0.76,0.1672 1.1381,0.2774c1.1704,0.3401 2.3133,0.8654 3.3944,1.4601l0.2166,0.0722c0.0152,0.1264 0.0408,0.2499 0.0769,0.3715v0c-0.0019,-0.001 -0.0038,-0.0019 -0.0047,-0.0029c0.2736,1.825 0.6574,8.7543 0.7685,10.831c0.0314,0.0228 0.0618,0.0465 0.0637,0.0741zM222.5426,180.2065v0v0v0v0v0v0v0c2.0121,1.7014 4.9628,2.2211 7.4927,2.4092c1.1932,0.0902 2.4063,0.1054 3.6242,0.075c0.8275,-0.0209 1.6559,-0.0646 2.4833,-0.1235c1.4374,-0.1035 2.8671,-0.2527 4.2674,-0.417c0.6992,-0.0827 1.3899,-0.2223 2.0758,-0.3876c0.6089,-0.1482 1.2141,-0.3164 1.8145,-0.5121c2.0254,-0.6593 4.0014,-1.5418 5.9422,-2.3208c2.4938,-1.0004 4.6294,-2.8443 7.2922,-3.3735c0.5957,-0.645 -0.0389,-2.2515 -0.4598,-3.1578c-0.4294,0.4427 -0.8578,0.8883 -1.2426,1.3538c-0.0921,0.1149 -0.5472,-0.0513 -0.4446,-0.1786c0.4731,-0.5729 0.9985,-1.0973 1.5238,-1.6226c0.0076,-0.0038 0.0038,-0.0124 0.0152,-0.0143c0.456,-0.4579 0.913,-0.9177 1.3291,-1.4136c1.3366,-1.595 1.2853,-3.3734 0.5852,-5.2506c-1.3775,-3.6917 -3.1474,-7.1991 -4.294,-10.9811c-0.9861,-3.248 -1.2863,-6.4533 -0.9301,-9.8163c0.0285,-0.2632 0.058,-0.5254 0.0874,-0.7876c-0.0038,-0.0066 -0.0076,-0.0142 -0.0114,-0.0209c-0.0047,-0.0104 0.0124,-0.0133 0.0162,-0.0218c0.3705,-3.3146 0.8198,-6.5645 0.5728,-9.9266c-0.0038,-0.0513 0.0418,-0.0722 0.1007,-0.0807c-0.1425,-1.7832 -0.8521,-9.6074 -0.9832,-11.0485v0l-0.001,-0.001c-0.4569,-0.2422 -0.9224,-0.4664 -1.3955,-0.6735c-0.0114,-0.0048 -0.0228,-0.0114 -0.0342,-0.0162c-0.4807,-0.2099 -0.97,-0.4009 -1.4649,-0.5709c-0.4893,-0.1644 -0.989,-0.3031 -1.4925,-0.418l-3.3896,-0.4541c0,0 -0.1197,3.8 -5.6211,4.0774c-5.5015,0.2764 -7.7577,-3.6813 -7.9164,-3.8399l-3.6005,1.0288c0,0 -0.1453,0.0808 -0.2603,0.076c-4.7196,1.4269 -10.1887,0.8512 -12.7024,6.0164c0,0.0009 0.0009,0.0019 0.0009,0.0019c-1.3338,2.4728 -2.8775,4.8184 -4.351,7.2067c-1.5399,2.5013 -2.9706,5.073 -4.4688,7.5971c-1.159,1.9523 -2.0311,4.0812 -3.2347,5.9983c-0.8294,1.3224 -2.451,3.3022 -2.1157,4.9799c0,0.001 0,0.001 0,0.001c0.5463,2.1451 1.6236,4.0299 2.9222,5.7988c1.5039,2.051 2.7655,4.274 4.0176,6.479c1.8202,3.1958 4.2512,8.7447 8.5528,8.9005c0.0209,0 0.0257,-0.0085 0.0532,-0.0047c2.698,0.3733 4.5866,-2.5783 5.5499,-4.6674c0.1188,-0.2593 0.2271,-0.5253 0.3268,-0.7932c0.0969,-0.2594 0.1834,-0.5225 0.2622,-0.7876c0.191,-0.6412 0.3363,-1.2967 0.4266,-1.9589c0.0864,-0.6222 0.0836,-1.254 0.0038,-1.8772c-0.0019,-0.0133 -0.001,-0.0275 -0.0029,-0.0418c-0.0646,-0.4854 -0.1064,-1.2606 -0.285,-1.6796c-0.057,-0.1254 0.4152,-0.0722 0.4741,0.0703c0.1073,0.2527 0.1624,0.551 0.2023,0.8579c0.0456,0.3553 0.0684,0.721 0.1102,1.0431c0.0779,0.5814 0.0352,1.177 -0.0247,1.7546c-0.038,0.342 -0.0969,0.6802 -0.1729,1.0156c0.4617,-0.9035 1.1514,-2.6885 1.1913,-5.4131c0,0 0.0143,-0.0504 0.038,-0.1074c-0.0798,-0.0228 -0.1539,-0.0551 -0.1767,-0.1026c-0.6602,-1.3518 -1.7717,-2.2363 -3.2661,-2.4975c-0.417,-0.0732 -1.8211,-0.2318 -2.0909,0.2783c-0.0789,0.1463 -0.5377,-0.018 -0.4788,-0.1301c0.2033,-0.3829 0.7961,-0.4817 1.3946,-0.4769c-0.7752,-0.5586 -1.3804,-1.293 -1.9342,-2.071c-0.7857,-1.0982 -1.0963,-2.5261 -1.9903,-3.5226c-0.0123,-0.0143 -0.0228,-0.0304 -0.0361,-0.0447c-0.0009,-0.0009 -0.0028,-0.0038 -0.0038,-0.0047c-0.3952,-0.3164 -0.7229,-0.7458 -1.1001,-1.0659c-0.6393,-0.5472 -1.4563,-0.8303 -2.2543,-1.0488c-0.2822,-0.076 -0.228,-0.2831 0.056,-0.2052c0.7562,0.2071 1.5172,0.4588 2.167,0.9044c0.3657,0.2489 0.683,0.5272 0.9889,0.8426c0.0114,0.0114 0.0314,0.0314 0.0475,0.0475c0.0019,0.0019 0.0038,0.0038 0.0057,0.0057c0.2508,0.2518 0.9491,0.9035 0.8978,0.2223c-0.0703,-0.9281 -1.2227,-1.9 -1.8202,-2.5422c-0.1254,-0.1349 0.3477,-0.0921 0.4398,0.0076c0.3981,0.4228 0.7866,0.8512 1.1448,1.3082c0.0912,0.1178 0.2052,0.2603 0.3144,0.4161c2.604,-1.0868 3.5141,-4.6674 4.5059,-7.0433c0.532,-1.2806 1.0535,-2.5612 1.7204,-3.7801c0.456,-0.8331 1.046,-1.8183 1.9798,-2.1574c0.1235,-0.0437 0.5596,0.152 0.381,0.2175c-1.2502,0.457 -1.9219,2.0796 -2.4577,3.1844c-0.551,1.141 -1.0136,2.3275 -1.4991,3.496c-0.1349,0.3278 -0.2726,0.6774 -0.4123,1.0336c1.7889,-0.76 2.7826,-2.8557 3.5692,-4.5058c0.0684,-0.1482 0.5329,0.0057 0.4769,0.1282c-0.856,1.7974 -1.9447,4.1059 -4.0024,4.7396c-0.0199,0.0057 -0.0465,0.0047 -0.076,0.0019c0.9386,1.6349 1.5086,3.6679 2.0017,5.4748c0.6222,2.2667 0.3971,4.7472 0.3847,7.0709c0.59,0.4683 1.0726,1.0725 1.4212,1.7841c0,0 0.3031,3.723 -1.8012,6.7317l-0.1472,3.134l4.332,2.4425c3.2737,1.9608 6.7393,3.781 10.5887,4.1933c3.686,0.3933 7.2314,-0.9738 10.3987,-2.7256c0.1206,-0.0646 0.5624,0.1178 0.3838,0.2176c-3.3336,1.8392 -6.8657,3.0599 -10.7103,2.7407c-3.9425,-0.3268 -7.6219,-2.3161 -10.9507,-4.313l-4.0565,-2.2629l-0.1368,2.9146c-0.9224,0.7277 -0.911,1.9171 -0.8312,2.9878c0.0446,0.5937 0.2517,1.349 0.0902,1.9522c0.0361,0.0114 0.0684,0.0238 0.0874,0.0409zM217.6805,153.6644v0v0v0v0v0v0v0c-0.0741,0.2575 -0.3296,0.305 -0.5842,0.2689c0.4645,0.626 0.7182,1.3452 1.0478,2.071c0.5425,1.196 1.5884,2.5469 2.7018,3.2784c0.3439,0.0295 0.6574,0.077 0.8503,0.1112c0.6232,0.1092 1.1941,0.3306 1.7033,0.6431c0.0181,-2.2743 0.1492,-4.5818 -0.3857,-6.8096c-0.2536,-1.0469 -0.6536,-2.0558 -1.0383,-3.0571c-0.2613,-0.6897 -0.4351,-1.3357 -0.7448,-1.9855c-0.7733,1.9019 -1.7642,3.8855 -3.6822,4.6028c-0.0171,0.0066 -0.039,0.0076 -0.0637,0.0066c0.1644,0.286 0.2736,0.5928 0.1957,0.8702z" fill="#010101" stroke-width="0.95"/><path d="M222.5295,180.25475c-0.019,-0.0171 -0.05145,-0.02954 -0.08755,-0.04094c0.1615,-0.6032 -0.04665,-1.3588 -0.09125,-1.9525c-0.0798,-1.0707 -0.09131,-2.26013 0.83109,-2.98783l0.16718,-3.00986l4.04685,2.26068c3.3288,1.9969 6.98779,3.98783 10.93029,4.31463c3.8446,0.3192 7.36048,-0.89329 10.69408,-2.73249c0.1786,-0.0998 -0.20279,-0.20251 -0.32339,-0.13791c-3.1673,1.7518 -6.7287,3.12694 -10.4147,2.73364c-3.8494,-0.4123 -7.33481,-2.2308 -10.60851,-4.1916l-4.34241,-2.44485l0.145,-3.13481c2.1043,-3.0087 1.79809,-6.73305 1.79809,-6.73305c-0.3486,-0.7116 -0.83931,-1.32064 -1.42931,-1.78894c0.0124,-2.3237 0.21857,-4.83233 -0.40363,-7.09903c-0.4931,-1.8069 -1.06062,-3.87168 -1.99922,-5.50658c0.0295,0.0028 0.05617,0.00365 0.07607,-0.00205c2.0577,-0.6337 3.16795,-2.96611 4.02395,-4.76351c0.056,-0.1225 -0.3582,-0.18999 -0.4266,-0.04179c-0.7866,1.6501 -1.76093,3.72425 -3.54983,4.48425c0.1397,-0.3562 0.18953,-0.7532 0.32443,-1.081c0.4855,-1.1685 0.95956,-2.36793 1.51056,-3.50893c0.5358,-1.1048 1.22112,-2.73511 2.47132,-3.19211c0.1786,-0.0655 -0.22146,-0.16793 -0.34496,-0.12423c-0.9338,0.3391 -1.51404,1.31909 -1.97004,2.15219c-0.6669,1.2189 -1.17608,2.48745 -1.70808,3.76805c-0.9918,2.3759 -1.89263,5.92376 -4.49663,7.01056c-0.1092,-0.1558 -0.32304,-0.29282 -0.41424,-0.41062c-0.3582,-0.457 -0.74666,-0.89007 -1.14476,-1.31287c-0.0921,-0.0997 -0.46535,-0.13706 -0.33995,-0.00216c0.5975,0.6422 1.74954,1.60483 1.81984,2.53293c0.0513,0.6812 -0.74627,0.04147 -0.99707,-0.21033c-0.0019,-0.0019 -0.0038,-0.00382 -0.0057,-0.00572c-0.0161,-0.0161 -0.03612,-0.03628 -0.04752,-0.04768c-0.3059,-0.3154 -0.62343,-0.59682 -0.98913,-0.84572c-0.6498,-0.4456 -1.41084,-0.70019 -2.16704,-0.90729c-0.284,-0.0779 -0.23821,0.13025 0.04399,0.20625c0.798,0.2185 1.6149,0.49815 2.2542,1.04535c0.3772,0.3201 0.70448,0.74548 1.09968,1.06188c0.001,0.0009 0.0029,0.00378 0.0038,0.00468c0.0133,0.0143 0.02377,0.03023 0.03607,0.04453c0.894,0.9965 1.20037,2.41048 1.98607,3.50868c0.5538,0.778 1.15335,1.50318 1.92855,2.06178c-0.5985,-0.0048 -1.19028,0.09536 -1.39358,0.47826c-0.0589,0.1121 0.39906,0.27527 0.47796,0.12897c0.2698,-0.5101 1.67107,-0.35489 2.08807,-0.28169c1.4944,0.2612 2.59217,1.13513 3.25237,2.48693c0.0228,0.0475 0.09613,0.07941 0.17593,0.10221c-0.0237,0.057 -0.03805,0.10737 -0.03805,0.10737c-0.0399,2.7246 -0.73315,4.508 -1.19485,5.4115c0.076,-0.3354 0.09666,-0.5812 0.13466,-0.9232c0.0599,-0.5776 0.10057,-1.17411 0.02267,-1.75551c-0.0418,-0.3221 -0.06636,-0.68868 -0.11196,-1.04398c-0.0399,-0.3069 -0.09691,-0.60625 -0.20421,-0.85895c-0.0589,-0.1425 -0.47941,-0.28129 -0.42241,-0.15589c0.1786,0.419 0.21707,1.19229 0.28167,1.67769c0.0019,0.0143 0.00093,0.02847 0.00283,0.04177c0.0798,0.6232 0.08024,1.25384 -0.00616,1.87604c-0.0903,0.6622 -0.23666,1.31723 -0.42766,1.95843c-0.0788,0.2651 -0.16547,0.52813 -0.26237,0.78753c-0.0997,0.2679 -0.24712,0.62593 -0.36592,0.88523c-0.9633,2.0891 -2.85739,5.03796 -5.55539,4.66466c-0.0275,-0.0038 -0.03237,0.00466 -0.05327,0.00466c-4.3016,-0.1558 -6.74943,-5.72071 -8.56963,-8.91651c-1.2521,-2.205 -2.51965,-4.44085 -4.02355,-6.49185c-1.2986,-1.7689 -2.37789,-3.6646 -2.92419,-5.8097c0,0 0,0 0,-0.001c-0.3353,-1.6777 1.28648,-3.66646 2.11588,-4.98886c1.2036,-1.9171 2.07865,-4.05826 3.23765,-6.01056c1.4982,-2.5241 2.93783,-5.11077 4.47773,-7.61207c1.4735,-2.3883 3.02859,-4.74364 4.36239,-7.21644c0,0 -0.0009,-0.001 -0.0009,-0.0019c2.5137,-5.1652 8.00572,-4.59693 12.72532,-6.02383c0.115,0.0048 0.26074,-0.07603 0.26074,-0.07603l3.60642,-1.02881c0.1587,0.1586 2.4289,4.11914 7.9304,3.84274c5.5014,-0.2774 5.62631,-4.0752 5.62631,-4.0752l3.39356,0.45627c0.5035,0.1149 1.00493,0.2547 1.49423,0.4191c0.4949,0.17 0.98591,0.3622 1.46661,0.5721c0.0114,0.0048 0.02284,0.01143 0.03424,0.01623c0.4731,0.2071 0.94024,0.43255 1.39714,0.67475l0.001,0.001v0c0.1311,1.4411 0.84964,9.27453 0.99214,11.05773c-0.0589,0.0085 -0.1045,0.02941 -0.1007,0.08071c0.247,3.3621 -0.19504,6.62582 -0.56554,9.94042c-0.0038,0.0085 -0.02089,0.01143 -0.01619,0.02183c0.0038,0.0067 0.00762,0.01435 0.01142,0.02095c-0.0294,0.2622 -0.05845,0.5258 -0.08695,0.789c-0.3562,3.363 -0.05414,6.58844 0.93196,9.83644c1.1466,3.782 2.91189,7.30548 4.28939,10.99718c0.7001,1.8772 0.74771,3.66202 -0.58889,5.25702c-0.4161,0.4959 -0.87477,0.95802 -1.33077,1.41592c-0.0114,0.0019 -0.00762,0.01052 -0.01522,0.01432c-0.5253,0.5253 -1.05281,1.05227 -1.52591,1.62517c-0.1026,0.1273 0.27717,0.22773 0.36927,0.11283c0.3848,-0.4655 0.89041,-0.8476 1.31981,-1.2903c0.4209,0.9063 1.05356,2.51515 0.45786,3.16015c-2.6628,0.5292 -4.80648,2.38046 -7.30028,3.38086c-1.9408,0.779 -3.92493,1.66632 -5.95033,2.32562c-0.6004,0.1957 -1.20822,0.36504 -1.81712,0.51324c-0.6859,0.1653 -1.37962,0.30601 -2.07882,0.38871c-1.4003,0.1643 -2.83644,0.31516 -4.27384,0.41866c-0.8274,0.0589 -1.6597,0.10317 -2.4872,0.12407c-1.2179,0.0304 -2.4368,0.01548 -3.63,-0.07472c-2.5299,-0.1881 -5.49325,-0.70955 -7.50535,-2.41095v0v0v0v0v0v0v0z" data-paper-data="{&quot;noHover&quot;:false,&quot;origItem&quot;:[&quot;Path&quot;,{&quot;applyMatrix&quot;:true,&quot;segments&quot;:[[222.5426,180.2065],[222.5426,180.2065],[222.5426,180.2065],[222.5426,180.2065],[222.5426,180.2065],[222.5426,180.2065],[222.5426,180.2065],[[222.5426,180.2065],[0,0],[2.0121,1.7014]],[[230.0353,182.6157],[-2.5299,-0.1881],[1.1932,0.0902]],[[233.6595,182.6907],[-1.2179,0.0304],[0.8275,-0.0209]],[[236.1428,182.5672],[-0.8274,0.0589],[1.4374,-0.1035]],[[240.4102,182.1502],[-1.4003,0.1643],[0.6992,-0.0827]],[[242.486,181.7626],[-0.6859,0.1653],[0.6089,-0.1482]],[[244.3005,181.2505],[-0.6004,0.1957],[2.0254,-0.6593]],[[250.2427,178.9297],[-1.9408,0.779],[2.4938,-1.0004]],[[257.5349,175.5562],[-2.6628,0.5292],[0.5957,-0.645]],[[257.0751,172.3984],[0.4209,0.9063],[-0.4294,0.4427]],[[255.8325,173.7522],[0.3848,-0.4655],[-0.0921,0.1149]],[[255.3879,173.5736],[-0.1026,0.1273],[0.4731,-0.5729]],[[256.9117,171.951],[-0.5253,0.5253],[0.0076,-0.0038]],[[256.9269,171.9367],[-0.0114,0.0019],[0.456,-0.4579]],[[258.256,170.5231],[-0.4161,0.4959],[1.3366,-1.595]],[[258.8412,165.2725],[0.7001,1.8772],[-1.3775,-3.6917]],[[254.5472,154.2914],[1.1466,3.782],[-0.9861,-3.248]],[[253.6171,144.4751],[-0.3562,3.363],[0.0285,-0.2632]],[[253.7045,143.6875],[-0.0294,0.2622],[-0.0038,-0.0066]],[[253.6931,143.6666],[0.0038,0.0067],[-0.0047,-0.0104]],[[253.7093,143.6448],[-0.0038,0.0085],[0.3705,-3.3146]],[[254.2821,133.7182],[0.247,3.3621],[-0.0038,-0.0513]],[[254.3828,133.6375],[-0.0589,0.0085],[-0.1425,-1.7832]],[[253.3996,122.589],[0.1311,1.4411],[0,0]],[253.3996,122.589],[[253.3986,122.588],[0,0],[-0.4569,-0.2422]],[[252.0031,121.9145],[0.4731,0.2071],[-0.0114,-0.0048]],[[251.9689,121.8983],[0.0114,0.0048],[-0.4807,-0.2099]],[[250.504,121.3274],[0.4949,0.17],[-0.4893,-0.1644]],[[249.0115,120.9094],[0.5035,0.1149],[0,0]],[245.6219,120.4553],[[240.0008,124.5327],[5.5014,-0.2774],[-5.5015,0.2764]],[[232.0844,120.6928],[0.1587,0.1586],[0,0]],[228.4839,121.7216],[[228.2236,121.7976],[0.115,0.0048],[-4.7196,1.4269]],[[215.5212,127.814],[2.5137,-5.1652],[0,0.0009]],[[215.5221,127.8159],[0,0],[-1.3338,2.4728]],[[211.1711,135.0226],[1.4735,-2.3883],[-1.5399,2.5013]],[[206.7023,142.6197],[1.4982,-2.5241],[-1.159,1.9523]],[[203.4676,148.618],[1.2036,-1.9171],[-0.8294,1.3224]],[[201.3519,153.5979],[-0.3353,-1.6777],[0,0.001]],[[201.3519,153.5989],[0,0],[0.5463,2.1451]],[[204.2741,159.3977],[-1.2986,-1.7689],[1.5039,2.051]],[[208.2917,165.8767],[-1.2521,-2.205],[1.8202,3.1958]],[[216.8445,174.7772],[-4.3016,-0.1558],[0.0209,0]],[[216.8977,174.7725],[-0.0275,-0.0038],[2.698,0.3733]],[[222.4476,170.1051],[-0.9633,2.0891],[0.1188,-0.2593]],[[222.7744,169.3119],[-0.0997,0.2679],[0.0969,-0.2594]],[[223.0366,168.5243],[-0.0788,0.2651],[0.191,-0.6412]],[[223.4632,166.5654],[-0.0903,0.6622],[0.0864,-0.6222]],[[223.467,164.6882],[0.0798,0.6232],[-0.0019,-0.0133]],[[223.4641,164.6464],[0.0019,0.0143],[-0.0646,-0.4854]],[[223.1791,162.9668],[0.1786,0.419],[-0.057,-0.1254]],[[223.6532,163.0371],[-0.0589,-0.1425],[0.1073,0.2527]],[[223.8555,163.895],[-0.0399,-0.3069],[0.0456,0.3553]],[[223.9657,164.9381],[-0.0418,-0.3221],[0.0779,0.5814]],[[223.941,166.6927],[0.0599,-0.5776],[-0.038,0.342]],[[223.7681,167.7083],[0.076,-0.3354],[0.4617,-0.9035]],[[224.9594,162.2952],[-0.0399,2.7246],[0,0]],[[224.9974,162.1878],[-0.0237,0.057],[-0.0798,-0.0228]],[[224.8207,162.0852],[0.0228,0.0475],[-0.6602,-1.3518]],[[221.5546,159.5877],[1.4944,0.2612],[-0.417,-0.0732]],[[219.4637,159.866],[0.2698,-0.5101],[-0.0789,0.1463]],[[218.9849,159.7359],[-0.0589,0.1121],[0.2033,-0.3829]],[[220.3795,159.259],[-0.5985,-0.0048],[-0.7752,-0.5586]],[[218.4453,157.188],[0.5538,0.778],[-0.7857,-1.0982]],[[216.455,153.6654],[0.894,0.9965],[-0.0123,-0.0143]],[[216.4189,153.6207],[0.0133,0.0143],[-0.0009,-0.0009]],[[216.4151,153.616],[0.001,0.0009],[-0.3952,-0.3164]],[[215.315,152.5501],[0.3772,0.3201],[-0.6393,-0.5472]],[[213.0607,151.5013],[0.798,0.2185],[-0.2822,-0.076]],[[213.1167,151.2961],[-0.284,-0.0779],[0.7562,0.2071]],[[215.2837,152.2005],[-0.6498,-0.4456],[0.3657,0.2489]],[[216.2726,153.0431],[-0.3059,-0.3154],[0.0114,0.0114]],[[216.3201,153.0906],[-0.0161,-0.0161],[0.0019,0.0019]],[[216.3258,153.0963],[-0.0019,-0.0019],[0.2508,0.2518]],[[217.2236,153.3186],[0.0513,0.6812],[-0.0703,-0.9281]],[[215.4034,150.7764],[0.5975,0.6422],[-0.1254,-0.1349]],[[215.8432,150.784],[-0.0921,-0.0997],[0.3981,0.4228]],[[216.988,152.0922],[-0.3582,-0.457],[0.0912,0.1178]],[[217.3024,152.5083],[-0.1092,-0.1558],[2.604,-1.0868]],[[221.8083,145.465],[-0.9918,2.3759],[0.532,-1.2806]],[[223.5287,141.6849],[-0.6669,1.2189],[0.456,-0.8331]],[[225.5085,139.5275],[-0.9338,0.3391],[0.1235,-0.0437]],[[225.8895,139.745],[0.1786,-0.0655],[-1.2502,0.457]],[[223.4318,142.9294],[0.5358,-1.1048],[-0.551,1.141]],[[221.9327,146.4254],[0.4855,-1.1685],[-0.1349,0.3278]],[[221.5204,147.459],[0.1397,-0.3562],[1.7889,-0.76]],[[225.0896,142.9532],[-0.7866,1.6501],[0.0684,-0.1482]],[[225.5665,143.0814],[0.056,-0.1225],[-0.856,1.7974]],[[221.5641,147.821],[2.0577,-0.6337],[-0.0199,0.0057]],[[221.4881,147.8229],[0.0295,0.0028],[0.9386,1.6349]],[[223.4898,153.2977],[-0.4931,-1.8069],[0.6222,2.2667]],[[223.8745,160.3686],[0.0124,-2.3237],[0.59,0.4683]],[[225.2957,162.1527],[-0.3486,-0.7116],[0,0]],[[223.4945,168.8844],[2.1043,-3.0087],[0,0]],[223.3473,172.0184],[[227.6793,174.4609],[0,0],[3.2737,1.9608]],[[238.268,178.6542],[-3.8494,-0.4123],[3.686,0.3933]],[[248.6667,175.9286],[-3.1673,1.7518],[0.1206,-0.0646]],[[249.0505,176.1462],[0.1786,-0.0998],[-3.3336,1.8392]],[[238.3402,178.8869],[3.8446,0.3192],[-3.9425,-0.3268]],[[227.3895,174.5739],[3.3288,1.9969],[0,0]],[223.333,172.311],[[223.1962,175.2256],[0,0],[-0.9224,0.7277]],[[222.365,178.2134],[-0.0798,-1.0707],[0.0446,0.5937]],[[222.4552,180.1656],[0.1615,-0.6032],[0.0361,0.0114]],[[222.5426,180.2065],[-0.019,-0.0171],[0,0]]],&quot;closed&quot;:true,&quot;fillColor&quot;:[0,0,0,1]}]}" fill="#000000" stroke-width="0.5"/></g><g stroke="none" stroke-linecap="butt"><path d="M243.9252,119.5946v0v0v0v0v0v0v0c0.1425,-0.1862 -0.3097,-0.3677 -0.4398,-0.2071c-0.039,0.0484 -0.0722,0.1007 -0.1083,0.1501c0.0028,-0.0323 0.0019,-0.1283 0.0019,-0.096c0.0047,0.6783 -0.589,-0.7267 -0.0836,-0.93l0.0171,-0.0105c0.0285,0.0228 0.0522,0.0485 0.1016,0.0608c1.7195,0.4456 3.6946,1.0621 5.1072,2.2031c-1.3081,2.8737 -2.8661,5.7522 -3.8342,8.7666c-0.8037,-0.856 -1.596,-1.7243 -2.3959,-2.5859c-0.4104,-0.4408 -0.8198,-0.8816 -1.2397,-1.3129c-0.6061,-0.6251 -0.875,-0.9006 -0.1824,-1.6131c0.5348,-0.5482 0.9633,-1.1742 1.3661,-1.8202c0.0741,-0.1188 0.1482,-0.2366 0.2204,-0.3563c0.4655,-0.7666 0.9129,-1.5475 1.4696,-2.2486z" fill="#000000" stroke-width="0.95"/><path d="M233.7479,128.0068v0v0v0v0v0v0v0c-0.0779,-0.1111 -0.1625,-0.2118 -0.3164,-0.2869c-0.0085,-0.0047 -0.0152,-0.0104 -0.0237,-0.0142c-0.703,-0.6118 -1.3813,-1.2426 -1.9589,-1.9437c-0.3658,-0.4465 -3.4476,-4.1354 -2.8738,-4.5828c0.0143,-0.0095 0.0285,-0.0171 0.038,-0.0314c0.9301,-1.3471 2.509,-2.2068 3.9045,-3.0314c0.0067,0.0085 0.0133,0.0171 0.02,0.0256c0.2213,0.3059 0.456,0.6023 0.7011,0.8902c0.3505,0.4113 0.7172,0.8103 1.1067,1.1884c0.0903,0.0874 0.1843,0.1691 0.2755,0.2546c1.1638,1.0897 2.4567,2.0549 3.7468,2.9479c0.6859,0.4778 1.4839,0.7381 0.9367,1.6482c-0.3933,0.6498 -0.7866,1.3025 -1.159,1.9665c-0.5975,1.0678 -0.9709,2.2534 -1.6292,3.2842c-0.8854,-0.7857 -1.8459,-1.5333 -2.7683,-2.3152z" fill="#c0e1e1" stroke-width="0.95"/><path d="M249.0315,120.8191c-1.3642,3.0049 -3.0172,6.0126 -3.9815,9.177c-0.0066,0.0257 -0.0294,0.0456 -0.0608,0.0599c-0.1016,0.0788 -0.3002,0.0437 -0.3828,-0.0589c-1.0213,-1.0688 -2.0102,-2.166 -3.0153,-3.2519c-0.457,-0.4921 -1.4108,-1.1115 -1.634,-1.824c-0.6061,0.988 -1.2208,1.976 -1.7395,3.0106c-0.4759,0.9452 -0.7742,1.9361 -1.3879,2.812c-0.096,0.1368 -0.3259,0.0456 -0.4161,-0.039c-2.0131,-1.842 -4.295,-3.4437 -5.9831,-5.6012c-0.4009,-0.5092 -2.9165,-3.3943 -2.2696,-4.1334c0.0048,-0.0095 0.0038,-0.019 0.0105,-0.0295c1.0022,-1.4506 2.7255,-2.3446 4.2047,-3.2262c0.1387,-0.0826 0.3287,-0.0161 0.4132,0.1083c0.0019,0.0029 0.0038,0.0057 0.0057,0.0086c1.8639,2.716 4.6693,4.4365 7.2523,6.3716c0.1663,-0.2337 0.4342,-0.4436 0.5871,-0.5975c0.3886,-0.4 0.6945,-0.8921 0.9994,-1.3557c0.494,-0.7619 0.9329,-1.5608 1.4488,-2.3094c0.095,-0.1368 0.1938,-0.2698 0.2926,-0.4028c0.0361,-0.0494 0.0693,-0.1017 0.1083,-0.1501c0.1301,-0.1615 0.5823,0.0209 0.4398,0.2071c-0.5567,0.702 -1.0041,1.482 -1.4696,2.2486c-0.0722,0.1188 -0.1463,0.2375 -0.2204,0.3563c-0.4019,0.646 -0.8313,1.272 -1.3661,1.8202c-0.6926,0.7125 -0.4247,0.988 0.1824,1.6131c0.4208,0.4313 0.8293,0.8721 1.2397,1.3129c0.799,0.8616 1.5913,1.7309 2.3959,2.5859c0.9671,-3.0153 2.5261,-5.8929 3.8342,-8.7666c-1.4126,-1.141 -3.3877,-1.7566 -5.1072,-2.2031c-0.0484,-0.0123 -0.0731,-0.038 -0.1016,-0.0608c-0.1444,-0.113 -0.0608,-0.3106 0.1871,-0.2479c0.3021,0.0779 0.6118,0.1643 0.9234,0.2546c0.0798,0.0228 0.1596,0.0465 0.2394,0.0703c1.5276,0.456 3.1113,1.0773 4.2902,2.0738c0.0057,0.0048 0.0067,0.0086 0.0114,0.0133c0.0266,0.0181 0.0409,0.0361 0.0532,0.0599c0.0152,0.0275 0.0181,0.0522 0.0143,0.0741c-0.0019,0.0076 0.0076,0.0123 0.0019,0.0199z" fill="#000000" stroke-width="0.5"/></g><g stroke-linecap="butt"><g stroke="none" stroke-width="0.95"><path d="M249.7877,103.1216v0v0v0v0v0v0v0c0.7229,-0.3173 1.1096,-0.2176 1.1618,0.2973c0.0409,0.2423 0.0618,0.4864 0.0589,0.7325c-0.0247,0.4826 -0.0874,0.9538 -0.2517,1.4126c-0.1919,0.5339 -0.4218,1.0526 -0.6451,1.5723c-0.0247,-0.9282 -0.1396,-1.8592 -0.3391,-2.7778c0.0038,-0.0086 0.0218,-0.0095 0.0199,-0.0209c-0.056,-0.3734 -0.0532,-0.7866 -0.0247,-1.2075c0.0038,-0.0047 0.0171,-0.0028 0.02,-0.0085z" fill="#a86c35"/><path d="M245.8993,115.824v0v0v0v0v0v0v0c-0.4702,0.4845 -0.9557,0.9519 -1.4677,1.3756c-1.1001,0.9063 -2.3095,1.8962 -3.7212,2.243c-2.4747,-0.0637 -5.4283,-1.2958 -7.5848,-2.4244c-2.7008,-1.4079 -5.0103,-3.4172 -6.0258,-6.3631c-0.019,-0.0542 -0.1112,-0.0903 -0.2071,-0.1121c-0.0067,-0.0257 -0.0171,-0.0551 -0.0228,-0.0798c0.076,-0.095 0.151,-0.191 0.2204,-0.2936c0.0503,-0.0712 -0.3895,-0.2565 -0.475,-0.1282c-0.5824,0.8607 -1.3348,1.2929 -2.3836,0.4816c-0.3762,-0.2878 -0.7628,-0.5709 -1.0887,-0.9158c-0.5434,-0.5757 -1.0763,-1.2492 -1.2739,-2.0387c-0.2527,-1.0089 0.1121,-3.9206 1.4592,-4.18c0.018,-0.0038 0.0361,-0.0076 0.0551,-0.0104c0.3125,-0.0428 0.6754,0.0522 1.0953,0.3458c0.0979,0.0665 0.5776,0.1121 0.3743,-0.0285c-0.0883,-0.0608 -0.171,-0.0979 -0.2555,-0.1473c-0.8702,-9.5038 0.8227,-17.7289 14.9245,-16.7789c13.6505,0.9206 10.6609,12.8782 10.4234,13.7532c-0.0019,0.0028 -0.0105,0.0009 -0.0124,0.0047c-0.5035,0.95 -0.7286,2.2753 -0.6355,3.3896c-0.0418,0.0086 -0.0675,0.0266 -0.0599,0.0589c0.7173,3.0229 0.6517,6.5427 -1.1495,9.1865c-0.4389,0.6413 -0.9291,1.2626 -1.4487,1.8601c-0.2508,0.2622 -0.4969,0.5292 -0.7401,0.8018z" fill="#a86c35"/><g fill="#000000"><path d="M251.2545,103.0209v0v0v0v0v0v0v0c0.7885,1.8021 -0.5197,3.6366 -1.0916,5.2981c-0.0085,0.0257 -0.0437,0.0333 -0.0788,0.0399c-0.1264,1.8535 -0.6527,3.6556 -1.7414,5.2516c-0.9538,1.4032 -2.1935,2.6458 -3.4646,3.7582c-0.4608,0.4028 -0.9605,0.8104 -1.4906,1.1752c0.0067,0.0028 0.0124,0.0076 0.0209,0.0104c-0.171,0.0722 -0.323,0.1634 -0.4588,0.2736c-0.5995,0.3686 -1.2341,0.6688 -1.8972,0.8256c-0.0009,0 -0.0019,0 -0.0019,0c-0.0199,0.0057 -0.0494,0.0085 -0.0893,0.0076c-2.6087,-0.0513 -5.5451,-1.2996 -7.8584,-2.4263c-0.0997,-0.0485 -0.1938,-0.1045 -0.2926,-0.1549c0.001,0.0038 0.0019,0.0076 0.0029,0.0114c-0.1292,-0.0902 -0.2736,-0.1624 -0.4304,-0.2213c0.0076,-0.0019 0.0124,-0.0048 0.02,-0.0057c-2.5413,-1.3823 -4.7234,-3.3972 -5.7247,-6.1684c-0.4456,0.475 -1.0013,0.7619 -1.7148,0.4807c-1.2844,-0.5044 -2.4263,-1.595 -3.1521,-2.7455c-1.2302,-1.9437 -0.0997,-5.8567 2.2449,-5.1262c0.0845,0.0266 0.1662,0.0437 0.2536,0.0827c-0.1406,-1.0013 -1.4183,-11.0181 3.2899,-14.2111c2.716,-1.8411 5.3352,-2.7474 8.2555,-2.926c2.261,-0.1377 4.7053,0.1625 7.5126,0.8094c0.1871,0.0437 0.3705,0.0827 0.5605,0.1283c6.7393,1.633 7.676,9.6833 6.4951,13.4216c0,0 -0.0104,0.0095 -0.0266,0.0228c0.0019,0.0076 0.0181,0.0171 0.0143,0.0237c-0.286,0.5396 -0.4845,1.2132 -0.5881,1.8972c0.0219,-0.0095 0.0494,-0.0095 0.0722,-0.0171c0.5007,-0.172 1.1277,-0.0485 1.3595,0.4845zM248.0891,113.1621v0v0v0v0v0v0v0c1.8002,-2.6438 1.8667,-6.1645 1.1495,-9.1855c-0.0076,-0.0323 0.0171,-0.0504 0.0598,-0.0589c-0.0931,-1.1144 0.1321,-2.4396 0.6356,-3.3896c0.0019,-0.0038 0.0104,-0.0019 0.0123,-0.0048c0.2375,-0.8749 3.2281,-12.8335 -10.4234,-13.7531c-14.1008,-0.9491 -15.7947,7.276 -14.9245,16.7789c0.0855,0.0494 0.1682,0.0864 0.2556,0.1472c0.2023,0.1406 -0.2765,0.0941 -0.3743,0.0285c-0.4199,-0.2926 -0.7828,-0.3885 -1.0954,-0.3458c-0.019,0.0029 -0.037,0.0076 -0.0551,0.0105c-1.3471,0.2593 -1.7119,3.1711 -1.4592,4.18c0.1976,0.7894 0.7306,1.463 1.274,2.0387c0.3258,0.3448 0.7125,0.6279 1.0887,0.9158c1.0478,0.8103 1.8002,0.38 2.3816,-0.4798c0,-0.0009 -0.0009,-0.0009 -0.0009,-0.0019c0.3809,-1.0098 -1.3129,-0.6241 -1.8516,-0.6906c-0.8388,-0.0998 -1.5779,-0.4912 -1.9199,-1.293c-0.0428,-0.0997 0.4142,-0.0541 0.4731,0.0779c0.6118,1.426 1.918,0.8085 3.0685,0.8921c0.5747,0.0408 0.9424,0.5149 0.7068,1.1409c-0.0694,0.1026 -0.1444,0.1986 -0.2204,0.2936c-0.0162,0.0199 -0.0304,0.0418 -0.0466,0.0617c0.0238,0.0029 0.0456,0.0124 0.0694,0.0181c0.0959,0.0218 0.1881,0.0579 0.2071,0.1121c1.0165,2.945 3.325,4.9552 6.0258,6.3631c2.1565,1.1295 5.111,2.3607 7.5848,2.4244c1.4117,-0.3468 2.622,-1.3357 3.7212,-2.243c0.513,-0.4237 0.9984,-0.8911 1.4687,-1.3756c0.2536,-0.2612 0.5016,-0.5263 0.74,-0.8018c0.5187,-0.5966 1.0099,-1.2179 1.4488,-1.8601zM250.7557,105.565v0v0v0v0v0v0v0c0.1644,-0.4598 0.228,-0.9301 0.2508,-1.4136c0.0029,-0.2451 -0.0171,-0.4893 -0.0589,-0.7325c-0.0513,-0.5139 -0.4379,-0.6137 -1.1609,-0.2964c-0.0019,0.0057 -0.0152,0.0038 -0.0199,0.0086c-0.0295,0.4208 -0.0323,0.8341 0.0247,1.2074c0.0019,0.0114 -0.0152,0.0124 -0.02,0.0209c0.1995,0.9187 0.3145,1.8497 0.3392,2.7778c0.2242,-0.5196 0.4531,-1.0383 0.645,-1.5722z"/><path d="M222.2139,105.7369v0v0v0v0v0v0v0c0.0485,-0.9329 1.0887,-1.0972 1.8411,-0.9091c1.2493,0.3173 1.7566,1.5741 2.6344,2.3987c0.114,0.1083 -0.3449,0.0599 -0.4351,-0.0237c-0.5995,-0.5634 -1.026,-1.274 -1.6036,-1.8544c-0.628,-0.6289 -1.9114,-0.4712 -1.9599,0.5177c-0.0057,0.1026 -0.4835,0.0171 -0.4769,-0.1292z"/></g></g><path d="M243.1291,111.4284v0v0v0v0v0v0v0c0.3363,0.3686 0.5016,0.6745 0.5672,1.1751c0.0095,0.0703 -0.0428,0.1026 -0.1017,0.1245c-0.6108,0.2194 -1.2302,0.4142 -1.8515,0.6032c0.3429,0.2793 0.7077,0.5254 1.0146,0.8484c0.0589,0.0617 0.0646,0.133 -0.0095,0.1852c-0.2765,0.1967 -0.551,0.3962 -0.8275,0.5938c-0.2555,0.1833 -0.6051,0.2812 -0.455,0.6431c0.1016,0.2461 -0.4028,0.2024 -0.475,0.0285c-0.0599,-0.1396 -0.0808,-0.2793 -0.0988,-0.4313c-0.0048,-0.0465 0.0161,-0.0788 0.0551,-0.1035c0.437,-0.2879 0.8588,-0.6004 1.2844,-0.9073c-0.2774,-0.2669 -0.5881,-0.494 -0.8864,-0.7362c-1.0754,0.323 -2.1555,0.6308 -3.2214,0.9899c-0.0314,0.0104 -0.076,0.0114 -0.1254,0.0057c-0.0504,0.0133 -0.0998,0.0228 -0.1492,0.038c-0.1282,0.037 -0.4322,-0.038 -0.4028,-0.2176c0,-0.0019 0,-0.0028 0,-0.0047c0.0095,-0.0637 0.0732,-0.0846 0.1473,-0.0893c0.075,-0.0219 0.1491,-0.0437 0.2261,-0.058c0.0256,-0.0047 0.0608,-0.0057 0.0969,-0.0047c0.9424,-0.3145 1.8933,-0.5947 2.8471,-0.8693c0.4627,-0.133 0.9244,-0.2736 1.3832,-0.4189c0.7657,-0.2404 1.3861,-0.3952 0.571,-1.2863c-0.209,-0.2252 0.2821,-0.248 0.4113,-0.1083z" fill="#010101" stroke="none" stroke-width="0.95"/><g fill="#000000" stroke="none" stroke-width="0.95"><path d="M237.678,110.9116v0v0v0v0v0v0v0c-0.1244,0.0769 -0.5367,-0.1159 -0.4512,-0.1729c0.4113,-0.2584 0.874,-0.2822 1.3271,-0.4313c0.0988,-0.0333 0.4218,0.094 0.419,0.1662c0.6811,0.1197 1.2777,0.4038 2.0045,0.3914c0.8407,-0.0152 1.6435,-0.6821 1.7907,-1.4991c0.0219,-0.1187 0.5007,-0.0076 0.4769,0.1264c-0.1444,0.8027 -0.8987,1.4601 -1.71,1.5542c-0.9234,0.1083 -1.6539,-0.2451 -2.5355,-0.3848c-0.0874,-0.0133 -0.1701,-0.0646 -0.2166,-0.1121c-0.3781,0.1017 -0.7667,0.1454 -1.1049,0.362z"/><path d="M238.8408,108.8662v0v0v0v0v0v0v0c-0.113,0.0447 -0.5472,-0.1349 -0.3876,-0.1976c1.3709,-0.5367 2.7826,-0.7296 4.1981,-0.266c0.323,0.1064 0.0199,0.1948 -0.172,0.1321c-1.2188,-0.4 -2.4785,-0.1235 -3.6385,0.3315z"/></g><g><path d="M236.3566,104.6416c-0.057,0.0047 -0.0998,0.0104 -0.1549,0.037c-0.1121,0.5662 -1.5532,1.0099 -2.0083,1.1334c-0.8816,0.2403 -1.9864,0.1235 -2.8851,-0.0789c-0.6679,-0.1472 -1.2635,-0.4218 -1.3728,-1.1837c-0.0684,-0.4702 0.1872,-0.8892 0.4484,-1.2502c0.8493,-1.1704 2.1442,-2.0339 3.5891,-1.3518c0.5748,0.2679 1.0944,0.5842 1.3908,1.1181c0.3249,0.5767 0.8845,0.9918 1.0298,1.6739" fill="#ffffff" stroke="none" stroke-width="0.95"/><path d="M236.0877,104.9855v0v0v0v0v0v0v0v0c-0.4712,-1.3348 -1.2844,-3.2918 -3.0124,-3.1322c-0.8094,0.0741 -1.5428,0.6147 -2.1176,1.1448c-0.9167,0.8379 -1.3119,2.0387 0.4009,2.5536c1.4117,0.4237 3.5008,0.0617 4.7757,-0.6365c0.1187,-0.0637 0.5614,0.1149 0.3828,0.2137c-1.5618,0.855 -3.7943,1.0517 -5.4948,0.5415c-0.6165,-0.1843 -1.0801,-0.5728 -1.3091,-1.1723c-0.2346,-0.608 0.1824,-1.0298 0.5653,-1.4449c0.7647,-0.8256 1.9693,-1.6122 3.1473,-1.4374c1.7651,0.2632 2.5945,1.9086 3.1369,3.44c0.0513,0.1349 -0.4218,0.0722 -0.475,-0.0703z" fill="#000000" stroke="none" stroke-width="0.95"/><path d="M234.031,102.2067c0.2878,0 0.5481,0.1169 0.7372,0.3059c0.189,0.1891 0.3059,0.4494 0.3059,0.7372c0,0.2879 -0.1169,0.5482 -0.3059,0.7372c-0.1891,0.1891 -0.4494,0.3059 -0.7372,0.3059c-0.2879,0 -0.5482,-0.1168 -0.7372,-0.3059c-0.1891,-0.189 -0.3059,-0.4493 -0.3059,-0.7372c0,-0.2878 0.1168,-0.5481 0.3059,-0.7372c0.189,-0.189 0.4493,-0.3059 0.7372,-0.3059v0v0v0v0v0z" fill="#42210b" stroke="#010101" stroke-width="0.23693"/></g><path d="M230.4694,100.8957v0v0v0v0v0v0v0c-0.0532,0.1292 -0.5215,-0.0209 -0.4778,-0.1273c0.9139,-2.3094 3.6841,-2.4738 5.795,-2.0045c0.2859,0.0646 0.2337,0.2337 -0.0466,0.172c-1.9684,-0.4361 -4.4365,-0.1444 -5.2706,1.9598z" fill="#000000" stroke="none" stroke-width="0.95"/><g><path d="M248.1271,102.8385c0,0.0104 0,0.0199 0,0.0323c0,0.6194 -0.4076,1.0393 -0.9994,1.3252c-0.7638,0.3734 -1.1923,0.5225 -2.0416,0.5634c-0.8493,0.0427 -1.6359,0.0636 -2.4339,-0.1748c-0.3724,-0.1093 -0.3914,-0.1463 -0.3553,-0.5206c0.0314,-0.3183 0.1454,-0.4855 0.285,-0.7724c0.133,-0.2726 0.153,-0.6004 0.324,-0.8398c0.1501,-0.2166 0.0988,-0.5396 0.2802,-0.7324c0.4551,-0.4883 1.0754,-0.6356 1.7613,-0.6536c0.6061,-0.0152 1.3262,0.0646 1.8221,0.3857c0.3525,0.2261 1.4497,0.8702 1.425,1.4174" fill="#ffffff" stroke="none" stroke-width="0.95"/><path d="M242.0452,104.4677v0v0v0v0v0v0v0v0c0.2546,-1.5038 0.7818,-3.3212 2.5023,-3.6233c0.9994,-0.1776 2.0548,0.3259 2.8576,0.8598c0.3277,0.2185 0.6431,0.4835 0.8911,0.7885c0.4854,0.5975 -0.3563,1.5665 -0.8341,1.805c-1.5238,0.7628 -3.6556,0.8673 -5.2649,0.3163c-0.3173,-0.1092 -0.0219,-0.2308 0.1786,-0.1605c1.4516,0.493 3.5872,0.3306 4.8944,-0.4931c1.2454,-0.7828 0.3952,-1.8107 -0.4456,-2.3389c-0.7723,-0.4854 -1.6834,-0.7486 -2.5536,-0.3724c-1.2074,0.5263 -1.5542,2.1993 -1.748,3.345c-0.0228,0.1396 -0.5035,0.0266 -0.4778,-0.1264z" fill="#000000" stroke="none" stroke-width="0.95"/><path d="M246.1207,101.3251v0v0v0v0v0v0v0c0.5766,0.02 1.025,0.5054 1.0041,1.0821c-0.0209,0.5776 -0.5073,1.026 -1.083,1.006c-0.5766,-0.0228 -1.0269,-0.5092 -1.0022,-1.0849c0.0199,-0.5757 0.5044,-1.026 1.0811,-1.0032z" fill="#42210b" stroke="#010101" stroke-width="0.23693"/></g><path d="M243.0265,98.6632v0v0v0v0v0v0v0c-0.1159,0.0418 -0.55,-0.1377 -0.3904,-0.1985c2.0833,-0.7838 4.9324,-0.8702 6.1873,1.3148c0.0466,0.0807 -0.4009,0.0475 -0.4731,-0.0779c-1.1105,-1.9342 -3.5093,-1.7233 -5.3238,-1.0384z" fill="#000000" stroke="none" stroke-width="0.95"/><g stroke="none" stroke-width="0.95"><path d="M250.9343,99.0261v0v0v0v0v0v0v0c0.0019,0.8968 0.0561,1.9836 -0.5092,2.7294c-0.2213,0.2907 -0.4607,0.5567 -0.6688,0.8455l-0.0921,0.0959c0.0484,-0.1491 0.1976,-0.9566 0.3325,-1.9864c0.1301,0.1035 0.4075,0.0931 0.4265,-0.1036c0.2347,-3.381 0.0817,-7.9429 -3.2233,-9.9075c-0.8854,-0.5292 -1.8715,-0.8123 -2.888,-0.9462c-1.5799,-0.2071 -3.1749,-0.4323 -4.7633,-0.5102c-2.9298,-0.1434 -6.1266,-0.1358 -8.8635,1.0479c-1.7908,0.7752 -3.9672,2.1061 -4.8213,3.9425c-0.8455,1.8097 -1.3632,4.3871 -0.6004,6.3175c0.4617,1.1713 1.0298,2.3512 1.5637,3.4931c0.1872,0.4104 0.495,0.7904 0.6555,1.2075c0.1853,0.4892 -0.2926,0.835 -0.703,1.0963c-0.4883,-1.026 -0.9984,-1.9485 -1.7651,-2.8196c-0.0484,-0.0561 -0.1282,-0.0808 -0.2071,-0.0846c-0.0133,-0.0228 -0.0285,-0.0456 -0.0551,-0.0693c-0.6298,-0.5767 -1.1371,-1.2588 -1.5314,-2.0169c0.0048,-0.0142 0.0209,-0.018 0.0219,-0.0351c0.0047,-0.1359 -0.038,-0.229 -0.1387,-0.3202c-0.1473,-0.1292 -0.1957,-0.3771 -0.2451,-0.5576c-0.0855,-0.323 -0.1083,-0.627 -0.2974,-0.8968c-0.095,-0.4294 -0.1548,-0.8636 -0.1881,-1.3006c0.0133,-0.0275 0.0086,-0.0598 -0.0095,-0.0959c-0.0009,-0.0247 -0.0057,-0.0485 -0.0066,-0.0722c-0.0057,-0.0779 -0.0694,-0.1264 -0.1444,-0.1596c-0.1862,-0.4028 0.1548,-0.8142 0.2384,-1.2445c0.0124,-0.0589 -0.0085,-0.1112 -0.0465,-0.152c0.0579,-0.5159 0.151,-1.0241 0.2774,-1.5276c0.0304,-0.0095 0.0579,-0.0247 0.0798,-0.0475c0.2669,-0.2869 0.1681,-0.6489 0.2242,-1.0013c0.0636,-0.3952 0.4132,-0.6327 0.4949,-1.0222c0.0076,-0.0333 -0.0142,-0.058 -0.0247,-0.0855c0.2404,-0.5064 0.5064,-0.9966 0.8104,-1.4687c0.0114,-0.0171 0.0133,-0.0342 0.0171,-0.0513c0.0788,-0.0703 0.1463,-0.1511 0.1596,-0.2584c0.0209,-0.1368 -0.0086,-0.2841 0.019,-0.419c0.0788,-0.4028 0.6365,-0.6498 0.9699,-0.8198c0.0266,-0.0133 0.0428,-0.0295 0.0589,-0.0456c0,-0.001 0.001,-0.001 0.001,-0.001v0c0.0066,-0.0066 0.0133,-0.0123 0.018,-0.018c0.4484,-0.494 0.9424,-0.9386 1.4706,-1.3462c0.1406,0.0447 0.3126,0.0152 0.3116,-0.1434c-0.0057,-1.1058 1.5172,-1.0859 2.2876,-1.3063c0.0941,-0.0275 0.1178,-0.0788 0.1045,-0.1339c0.5738,-0.2508 1.1562,-0.4712 1.7528,-0.6555c0.1092,0.0465 0.2527,0.0503 0.3268,-0.0333c0.5605,-0.6251 1.2236,-0.7619 2.013,-0.5158c0.0095,0.0038 0.0143,-0.0019 0.0238,0c0.0076,-0.001 0.0133,0.0047 0.0209,0.0038c0.0133,-0.0019 0.0266,-0.0029 0.0399,-0.0048c0.0399,0 0.0788,0.0029 0.1064,-0.0133c0.7096,-0.1016 1.4202,-0.1757 2.1375,-0.2194c0.0247,-0.001 0.0256,-0.0152 0.0446,-0.02c0.0276,0.0124 0.0504,0.0333 0.0855,0.0352c0.5007,0.0313 0.9852,0.0199 1.4811,-0.0532c0.5776,-0.0855 1.2511,-0.2062 1.8012,0.0617c0.0114,0.0019 0.0171,0.0114 0.0294,0.0124c0.0038,0 0.0067,0.0009 0.0105,0.0009c0.0703,0.038 0.1377,0.0371 0.1966,0.019c0.4437,0.0352 0.8873,0.0741 1.3291,0.1254c0.0665,0.0076 0.1045,-0.0104 0.1387,-0.0313c0.094,0.0475 0.2118,0.0646 0.2916,0.0123c0.6365,-0.4113 1.5495,0.2195 2.1983,0.3629c0.0152,0.0029 0.0219,-0.0047 0.0361,-0.0038c0.0105,0.0029 0.0162,0.0124 0.0285,0.0133c0.78,0.0827 2.1375,0.1311 2.5137,0.9605c0.058,0.1292 0.2689,0.1719 0.3895,0.1225c0.78,0.1748 1.2797,0.8693 1.6692,1.5238c0.0057,0.0095 0.0161,0.0171 0.0247,0.0266c0.0019,0.0304 0.0123,0.0627 0.0456,0.1017c0.4522,0.5301 0.9737,1.0526 1.1134,1.7613c0.0133,0.0655 0.0655,0.1111 0.1282,0.1444c0.7021,0.7258 1.5181,1.7822 1.0783,2.8243c-0.0513,0.0342 -0.076,0.0884 -0.039,0.1682c0.4247,0.9224 0.5168,2.0558 0.2385,3.0324c-0.0057,0.019 0.0114,0.0313 0.0123,0.0494c-0.0541,0.0342 -0.0826,0.0893 -0.0465,0.1729c0.2688,0.6203 0.3296,1.4259 0.0123,2.0415c-0.0332,0.0646 -0.0171,0.1226 0.0171,0.1729z" fill="#301113"/><path d="M251.3704,96.7651v0v0v0v0v0v0v0c0.2869,0.6793 0.3277,1.4915 0.0323,2.1755c0.0038,0.0143 0.0199,0.0219 0.0199,0.0371c-0.0009,0.8597 0.0162,1.7746 -0.3182,2.5849c-0.2632,0.6375 -0.8807,1.0422 -1.1685,1.6682c-0.1007,0.2204 -0.5757,0.0855 -0.4769,-0.1301c0.0836,-0.1796 0.189,-0.3401 0.3011,-0.4969c0.2081,-0.2888 0.4475,-0.5548 0.6688,-0.8455c0.5653,-0.7486 0.5102,-1.8344 0.5083,-2.7312c-0.0352,-0.0504 -0.0504,-0.1083 -0.0171,-0.1729c0.3173,-0.6156 0.2555,-1.4212 -0.0124,-2.0416c-0.0361,-0.0836 -0.0076,-0.1387 0.0466,-0.1729c-0.001,-0.0171 -0.0181,-0.0304 -0.0124,-0.0494c0.2784,-0.9766 0.1862,-2.109 -0.2384,-3.0324c-0.0371,-0.0807 -0.0124,-0.1339 0.0389,-0.1681c0.4399,-1.0422 -0.3771,-2.0986 -1.0782,-2.8244c-0.0637,-0.0332 -0.115,-0.0798 -0.1283,-0.1444c-0.1406,-0.7096 -0.6612,-1.2312 -1.1134,-1.7613c-0.0332,-0.038 -0.0437,-0.0712 -0.0456,-0.1016c-0.0076,-0.0086 -0.018,-0.0162 -0.0247,-0.0266c-0.3895,-0.6555 -0.8892,-1.349 -1.6691,-1.5238c-0.1207,0.0494 -0.3306,0.0066 -0.3895,-0.1226c-0.3762,-0.8293 -1.7347,-0.8778 -2.5137,-0.9604c-0.0114,-0.0019 -0.0171,-0.0114 -0.0285,-0.0133c-0.0143,-0.001 -0.0209,0.0066 -0.0361,0.0038c-0.6479,-0.1444 -1.5609,-0.7752 -2.1983,-0.3629c-0.0798,0.0522 -0.1976,0.0342 -0.2917,-0.0124c-0.0332,0.0209 -0.0722,0.039 -0.1387,0.0314c-0.4417,-0.0513 -0.8854,-0.0903 -1.329,-0.1254c-0.0589,0.0171 -0.1264,0.019 -0.1967,-0.019c-0.0038,0 -0.0066,-0.001 -0.0104,-0.001c-0.0114,-0.0009 -0.0181,-0.0104 -0.0295,-0.0123c-0.551,-0.2679 -1.2236,-0.1473 -1.8012,-0.0618c-0.4968,0.0732 -0.9813,0.0846 -1.481,0.0532c-0.0352,-0.0019 -0.057,-0.0228 -0.0855,-0.0351c-0.0181,0.0047 -0.02,0.019 -0.0447,0.0199c-0.7172,0.0428 -1.4278,0.1169 -2.1375,0.2195c-0.0275,0.0161 -0.0665,0.0133 -0.1064,0.0133c-0.0133,0.0019 -0.0266,0.0028 -0.0399,0.0047c-0.0076,0.001 -0.0133,-0.0038 -0.0209,-0.0038c-0.0095,-0.0019 -0.0142,0.0029 -0.0237,0c-0.7895,-0.246 -1.4526,-0.1092 -2.0131,0.5159c-0.0741,0.0836 -0.2175,0.0798 -0.3268,0.0332c-0.5966,0.1834 -1.1789,0.4038 -1.7527,0.6555c0.0133,0.0551 -0.0105,0.1074 -0.1045,0.134c-0.7695,0.2204 -2.2933,0.2004 -2.2876,1.3062c0.0009,0.1587 -0.171,0.1872 -0.3116,0.1435c-0.5282,0.4075 -1.0222,0.8521 -1.4706,1.3461c-0.0048,0.0067 -0.0124,0.0124 -0.0181,0.0181v0c0,0.0009 -0.0009,0.0009 -0.0009,0.0009c-0.0162,0.0162 -0.0323,0.0323 -0.0589,0.0456c-0.3335,0.1691 -0.8911,0.4171 -0.97,0.8199c-0.0285,0.1339 0.001,0.2812 -0.019,0.4189c-0.0133,0.1074 -0.0807,0.1881 -0.1596,0.2584c-0.0038,0.0171 -0.0057,0.0333 -0.0171,0.0513c-0.304,0.4722 -0.5709,0.9624 -0.8103,1.4687c0.0104,0.0276 0.0323,0.0523 0.0247,0.0855c-0.0817,0.3895 -0.4323,0.627 -0.495,1.0222c-0.0551,0.3525 0.0428,0.7144 -0.2242,1.0013c-0.0218,0.0228 -0.0494,0.0371 -0.0798,0.0475c-0.1263,0.5035 -0.2194,1.0118 -0.2774,1.5276c0.038,0.0418 0.0589,0.0931 0.0466,0.152c-0.0836,0.4313 -0.4247,0.8427 -0.2385,1.2445c0.0741,0.0333 0.1387,0.0817 0.1444,0.1596c0.001,0.0247 0.0057,0.0485 0.0067,0.0722c0.018,0.0371 0.0228,0.0694 0.0095,0.096c0.0323,0.437 0.0931,0.8711 0.1881,1.3005c0.189,0.2689 0.2118,0.5738 0.2973,0.8968c0.0494,0.1815 0.0979,0.4285 0.2451,0.5577c0.1017,0.0912 0.1444,0.1843 0.1387,0.3201c-0.0009,0.0162 -0.0171,0.0209 -0.0218,0.0352c0.3942,0.7581 0.9015,1.4402 1.5314,2.0168c0.0266,0.0238 0.0418,0.0466 0.0551,0.0694c0.0788,0.0047 0.1577,0.0285 0.2071,0.0845c0.7666,0.8721 1.2768,1.7936 1.7651,2.8196c0.4104,-0.2612 0.8882,-0.6061 0.703,-1.0963c-0.1606,-0.418 -0.4684,-0.797 -0.6555,-1.2074c-0.5339,-1.1419 -1.102,-2.3228 -1.5637,-3.4932c-0.7629,-1.9304 -0.2451,-4.5077 0.6004,-6.3175c0.854,-1.8354 3.0305,-3.1673 4.8212,-3.9425c2.737,-1.1846 5.9337,-1.1913 8.8635,-1.0478c1.5884,0.0779 3.1835,0.303 4.7633,0.5101c1.0165,0.134 2.0026,0.4171 2.888,0.9462c3.306,1.9656 3.458,6.5265 3.2234,9.9076c-0.0181,0.1957 -0.2964,0.2061 -0.4266,0.1035c-0.0418,-0.0342 -0.0693,-0.0798 -0.0655,-0.1358c0.2356,-3.3535 0.1197,-7.8632 -3.2253,-9.7299c-0.8265,-0.4608 -1.7708,-0.6574 -2.7008,-0.7619c-1.7556,-0.1976 -3.5008,-0.4427 -5.2659,-0.5054c-3.0666,-0.1112 -6.2842,0.1111 -9.0079,1.6444c-2.242,1.2635 -3.6366,2.9593 -4.1391,5.4787c-0.2176,1.0896 -0.2242,2.2287 -0.0057,3.3174c0.2204,1.1029 0.9471,2.1726 1.3803,3.2081c0.2746,0.6479 0.9225,1.4592 1.0469,2.147c0.0475,0.2689 -0.0418,0.4959 -0.1957,0.6926c-0.0199,0.0256 -0.0437,0.0494 -0.0655,0.0741c-0.2451,0.2736 -0.6052,0.4873 -0.8778,0.6707c-0.134,0.0874 -0.3477,0.0342 -0.4161,-0.1112c-0.3582,-0.7733 -0.7306,-1.4886 -1.1961,-2.166c-0.0342,-0.0494 -0.0636,-0.1007 -0.0988,-0.1501c-0.1691,-0.2365 -0.3524,-0.4683 -0.5519,-0.6963c-0.0029,-0.0029 -0.0029,-0.0057 -0.0057,-0.0086c-0.0599,-0.0019 -0.1216,-0.0209 -0.1701,-0.0665c-0.7049,-0.6412 -1.273,-1.3927 -1.7043,-2.2429c-0.0332,-0.0646 -0.0247,-0.1121 0.0076,-0.1463c-0.0389,-0.0874 -0.1358,-0.1824 -0.1748,-0.2518c-0.0646,-0.1197 -0.1073,-0.2489 -0.1406,-0.3809c-0.0855,-0.3211 -0.0988,-0.7192 -0.3268,-0.9747c-0.0589,-0.0646 -0.0589,-0.1188 -0.0304,-0.1596c-0.0902,-0.4228 -0.1501,-0.8465 -0.1833,-1.2768c-0.1682,-0.2157 -0.248,-0.4389 -0.21,-0.7249c0.0399,-0.2679 0.1853,-0.512 0.2651,-0.7714c-0.0152,-0.0294 -0.039,-0.0541 -0.0361,-0.0893c0.0608,-0.646 0.1786,-1.2806 0.3467,-1.9076c0.02,-0.0788 0.0903,-0.1054 0.1682,-0.1121c0.0057,-0.0142 0.018,-0.0256 0.0228,-0.0399c0.0057,-0.0133 0.0123,-0.0256 0.0161,-0.0399c0.0703,-0.2403 0.0323,-0.5329 0.0703,-0.7742c0.0447,-0.2784 0.2622,-0.4722 0.3924,-0.7087c-0.0295,-0.038 -0.0418,-0.0836 -0.019,-0.134c0.2441,-0.5358 0.5225,-1.0488 0.8312,-1.5504c-0.0475,-0.0598 -0.0484,-0.1292 0.0409,-0.1814c0.0598,-0.0342 0.0893,-0.0836 0.1197,-0.133c0.0351,-0.058 0.0608,-0.1226 0.0731,-0.1929c0.0333,-0.1852 0.0238,-0.3971 0.1207,-0.5709c0.1852,-0.3335 0.6593,-0.5539 1.0022,-0.7249c0.5349,-0.5852 1.1153,-1.121 1.7585,-1.5884c0.0009,-0.0009 0.0038,-0.0009 0.0047,-0.0019c0.0333,-0.1482 0.0855,-0.2783 0.1615,-0.3885c0.039,-0.057 0.0827,-0.1093 0.1311,-0.1577c0.4161,-0.4095 1.1429,-0.532 1.767,-0.666c0.0143,-0.0114 0.0257,-0.0237 0.0466,-0.0342c0.6346,-0.3049 1.291,-0.551 1.9589,-0.7685c0.1786,-0.0589 0.3534,-0.1264 0.5348,-0.1786c0.0228,-0.0057 0.0475,-0.0067 0.0713,-0.0057c0.0304,-0.0276 0.0598,-0.058 0.0902,-0.0836c0.551,-0.4617 1.198,-0.6023 1.9086,-0.4636c0.0798,0.0152 0.1605,0.038 0.2413,0.0608c0.2232,-0.0333 0.4474,-0.0599 0.6716,-0.0865c0.5016,-0.0598 1.0051,-0.1102 1.5096,-0.1387c0.0494,-0.0028 0.0959,0.0171 0.1406,0.039c0.0332,-0.0143 0.0598,-0.0342 0.114,-0.0314c1.0896,0.0694 2.3807,-0.4151 3.4266,0.0352c0.4741,0.0332 0.9481,0.0769 1.4222,0.1311c0.0494,0.0057 0.0855,0.0323 0.1216,0.057c0.8407,-0.5206 1.7717,0.1121 2.6201,0.303c0.9338,0.0979 2.2904,0.2176 2.8452,1.084c0.0209,0 0.0333,-0.0114 0.0551,-0.0076c0.9985,0.171 1.6321,1.0127 2.1176,1.8316c0.0076,0.0133 0.0066,0.0237 0.0114,0.0351c0.0009,0.001 0.0019,0.001 0.0028,0.0019c0.4779,0.5596 0.9709,1.1058 1.1562,1.8278c0.0133,0.0086 0.0275,0.0152 0.0389,0.0266c0.779,0.7961 1.71,2.0245 1.1904,3.1901c-0.0038,0.0105 -0.0171,0.0105 -0.0228,0.019c0.4275,0.9662 0.5177,2.1375 0.2318,3.1521c-0.0076,0.0257 -0.0323,0.0304 -0.0475,0.0475z" fill="#000000"/></g></g><g stroke="none" stroke-width="0.95" stroke-linecap="butt"><path d="M224.3134,163.3582c0.2727,-0.3914 0.5729,-0.854 0.7572,-1.2882c0.1653,-0.3847 0.1786,-1.1837 0.7438,-1.1039c0.4997,0.0694 1.0631,0.2831 1.2825,0.7429c0.1359,0.2765 0.1235,0.3525 0.4275,0.419c0.2812,0.0598 0.456,0.1197 0.723,0.2707c1.1124,0.6242 1.9665,1.5352 2.9089,2.3779c0.4398,0.3942 0.9519,0.8103 0.512,1.4259c-0.3021,0.4218 -0.93,0.514 -1.406,0.5529c0.02,0.3591 -0.4104,0.7591 -0.5538,1.0726c-0.0855,0.1824 0.2622,0.1776 0.2812,0.3382c0.0199,0.209 0.0912,0.246 -0.0086,0.5016c-0.1368,0.36 -0.2907,0.779 -0.5111,1.1048c-0.1102,0.1615 -0.2489,0.3097 -0.4066,0.4342c-0.1377,0.1092 -0.455,0.1928 -0.512,0.3477c0.3638,0.2565 1.0754,0.3363 0.987,0.9946c-0.0741,0.5729 -0.569,0.9747 -0.7885,1.4697c-0.247,0.5538 -0.5804,0.8122 -1.0317,1.2321c-0.2004,0.19 -0.5386,0.8446 -0.7999,0.9244c-0.2375,0.0722 -0.4674,-0.0561 -0.6849,-0.1055c-0.7277,-0.1776 -1.3433,-0.6355 -0.818,-1.4155c-0.5396,0.4199 -1.2635,1.0184 -1.8392,1.3927c-0.6108,0.4 -0.8977,0.2679 -1.5143,0.0171c-0.5643,-0.2289 -1.348,-0.4037 -1.7071,-0.93c-0.2024,-0.2936 -0.115,-0.3648 0.1415,-0.5368c0.2812,-0.1871 0.4912,-0.4379 0.7505,-0.6545c0.5178,-0.4237 0.9044,-1.198 1.1733,-1.8012c0.2821,-0.627 0.4132,-1.0631 0.6868,-1.6825c0.2242,-0.5006 0.4589,-0.9329 0.5653,-1.4763c0.1225,-0.6355 0.1168,-1.3053 0.1168,-1.9589c0,-0.5358 -0.0513,-1.0431 -0.0513,-1.5846c0,-0.1121 -0.0351,-0.284 0,-0.3885c0.057,-0.1672 0.0808,-0.1235 0.2109,-0.2394c0.1558,-0.1425 0.2651,-0.2945 0.3914,-0.4532" fill="#a86c35"/><path d="M227.7895,162.2581v0v0v0v0v0v0v0v0c-1.3082,0.4646 -2.5147,1.1429 -3.781,1.6929c-0.1359,0.0599 -0.4161,-0.1349 -0.2119,-0.2242c1.2711,-0.55 2.4719,-1.2293 3.7801,-1.691c0.1377,-0.0513 0.4218,0.1492 0.2128,0.2223zM225.6406,164.7034v0v0v0v0v0v0v0v0c0.3961,-0.0589 0.9424,0.1843 1.3262,0.2765c1.0982,0.2612 2.1954,0.5377 3.2765,0.8569c0.057,0.0199 0.1368,0.0589 0.1492,0.1292c0.1311,0.7353 -0.0171,1.4639 -0.5738,1.9836c-0.1083,0.1007 -0.4475,-0.0418 -0.3306,-0.1511c0.4769,-0.4417 0.6194,-1.0108 0.5795,-1.6492c-0.019,-0.3192 -1.5447,-0.5443 -1.8012,-0.6089c-0.4551,-0.115 -0.9063,-0.229 -1.3614,-0.3392c-0.3068,-0.075 -0.8189,-0.3021 -1.1343,-0.2574c-0.1615,0.0228 -0.3714,-0.2052 -0.1301,-0.2404zM225.1048,166.6129v0v0v0v0v0v0v0v0c1.5779,0.6251 3.2328,1.0621 4.9124,1.2996c0.0618,0.0086 0.2014,0.0513 0.1995,0.1378c-0.0171,1.2198 -0.6108,2.5032 -1.956,2.5925c-0.1596,0.0114 -0.3762,-0.2213 -0.1321,-0.2394c0.8037,-0.0532 1.2464,-0.5899 1.5343,-1.2882c0.0921,-0.2185 0.1301,-0.4541 0.1672,-0.684c0.0788,-0.4712 -0.456,-0.379 -0.7486,-0.437c-1.4108,-0.2774 -2.7921,-0.665 -4.1306,-1.1932c-0.2261,-0.0912 -0.02,-0.2555 0.1539,-0.1881zM225.2511,169.6396v0v0v0v0v0v0v0v0c1.4953,0.1843 2.869,0.8018 4.2826,1.2844c0.0741,0.0247 0.1596,0.0684 0.1501,0.1587c-0.0979,0.9395 -0.685,1.691 -1.2322,2.4234c-0.4503,0.5976 -0.7752,1.4184 -1.5076,1.7062c-0.4883,0.1929 -1.1609,-0.0627 -1.5723,-0.3249c-0.6564,-0.4142 -0.3135,-1.0374 0.0057,-1.5352c0.0684,-0.1073 0.3914,-0.0142 0.3411,0.1245c-0.0295,0.0912 -0.0447,0.1045 -0.1169,0.1643c-0.1111,0.0903 -0.4303,-0.0712 -0.2802,-0.1938c0.0152,-0.0209 0.0237,-0.0446 0.0389,-0.0665c0.115,0.0418 0.228,0.0827 0.342,0.1254c-0.5538,0.8626 0.628,2.0606 1.4982,1.1514c0.2508,-0.2593 0.4322,-0.6089 0.6289,-0.9091c0.4341,-0.6527 0.9367,-1.2227 1.2863,-1.9333c0.4256,-0.8635 -0.2717,-0.8882 -0.9538,-1.139c-0.9348,-0.3496 -1.8763,-0.6726 -2.8738,-0.7971c-0.19,-0.0228 -0.284,-0.2679 -0.037,-0.2394zM225.8363,173.4149v0v0v0v0v0v0v0v0c-1.084,0.6688 -1.5352,1.6578 -2.8766,1.8943c-1.0488,0.1815 -2.0406,-0.7106 -2.8244,-1.2435c-0.2033,-0.1368 0.0969,-0.2337 0.2299,-0.1416c1.084,0.7306 1.9646,1.4725 3.3573,0.8598c0.7163,-0.3164 1.1581,-1.1476 1.8326,-1.5637c0.1225,-0.0741 0.4474,0.094 0.2812,0.1947zM227.7562,162.0529v0v0v0v0v0v0v0v0c1.3975,0.6546 2.6021,1.8991 3.7221,2.9374c0.4551,0.418 0.5349,0.646 0.209,1.1714c-0.2764,0.4474 -0.8702,0.6536 -1.3613,0.7201c-0.1615,0.0209 -0.3724,-0.2052 -0.1302,-0.2385c0.3971,-0.0579 1.8117,-0.6279 1.1894,-1.3604c-0.3676,-0.4246 -0.8417,-0.7571 -1.2711,-1.1115c-0.8274,-0.684 -1.5219,-1.4658 -2.5108,-1.9304c-0.2214,-0.1054 -0.019,-0.2698 0.1529,-0.1881zM226.5611,164.3329v0v0v0v0v0v0v0v0c0.3838,0.247 0.8132,0.4769 1.121,0.8246c0.1444,0.1672 -0.1995,0.1986 -0.2964,0.0893c-0.2869,-0.3239 -0.6954,-0.5405 -1.0573,-0.7714c-0.058,-0.038 -0.0969,-0.1235 -0.0228,-0.1681c0.0769,-0.0466 0.1824,-0.0181 0.2555,0.0256zM223.7615,163.6024v0v0v0v0v0v0v0v0c0.7666,-0.5767 1.4259,-1.7138 1.5219,-2.6619c0.0076,-0.0475 0.0779,-0.0713 0.114,-0.0722c1.0583,-0.0285 2.0757,0.3097 1.9959,1.5371c-0.0123,0.1453 -0.3714,0.0636 -0.3581,-0.0979c0.0484,-0.7239 -0.3382,-1.102 -1.0393,-1.1941c-0.3297,-0.0418 -0.3582,0.0532 -0.4266,0.3296c-0.0579,0.2147 -0.1501,0.4199 -0.2441,0.6223c-0.2936,0.6393 -0.7154,1.3043 -1.2844,1.7299c-0.114,0.0874 -0.437,-0.075 -0.2793,-0.1928z" fill="#000000"/></g><path d="M229.0199,102.58277c0,-2.20914 1.79086,-4 4,-4c2.20914,0 4,1.79086 4,4c0,2.20914 -1.79086,4 -4,4c-2.20914,0 -4,-1.79086 -4,-4z" fill="#000000" stroke="none" stroke-width="0.5" stroke-linecap="butt"/><path d="M241.27787,103.07308c0,-2.20914 1.79086,-4 4,-4c2.20914,0 4,1.79086 4,4c0,2.20914 -1.79086,4 -4,4c-2.20914,0 -4,-1.79086 -4,-4z" fill="#000000" stroke="none" stroke-width="0.5" stroke-linecap="butt"/><path d="M244.27787,103.07308c0,-0.55228 0.44771,-1 1,-1c0.55229,0 1,0.44772 1,1c0,0.55228 -0.44771,1 -1,1c-0.55229,0 -1,-0.44772 -1,-1z" fill="#ff0000" stroke="none" stroke-width="0.5" stroke-linecap="butt"/><path d="M232.51022,102.58277c0,-0.55228 0.44771,-1 1,-1c0.55229,0 1,0.44772 1,1c0,0.55228 -0.44771,1 -1,1c-0.55229,0 -1,-0.44772 -1,-1z" fill="#ff0000" stroke="none" stroke-width="0.5" stroke-linecap="butt"/><path d="M259.51582,122.64231c0.9432,-0.01141 1.87031,0.02802 2.64966,0.80737c1.5931,1.5931 0.62892,4.1013 0.26614,5.84004c-0.16335,0.78293 0.19267,1.66955 0.11412,2.48648c0.2396,0.39856 0.39366,0.82855 0.40044,1.27721c0.0371,2.45529 -3.77356,3.80107 -5.64011,2.86363c-0.03968,-0.01993 -0.07848,-0.04109 -0.11647,-0.06339c-1.03958,-0.11523 -3.20525,-1.7471 -3.44634,-2.3454c-1.31119,-3.25392 1.45068,-5.93358 -0.04378,-8.90425c0,0 -0.44721,-0.89442 0.44721,-1.34164c0.20136,-0.10068 0.38005,-0.13336 0.53608,-0.12356c-0.06921,-0.13599 -0.10823,-0.28992 -0.10823,-0.45297c0,-0.55228 0.44771,-1 1,-1c0.08459,0 0.16671,0.0105 0.24515,0.03027c0.07844,-0.01977 0.16057,-0.03027 0.24516,-0.03027c0.49032,0 0.98064,0 1.47096,0h0.98064c0,0 0.97077,0 0.99936,0.95648zM255.85025,124.42815c0.13173,-0.13093 0.29974,-0.22542 0.48763,-0.26705c-0.08123,-0.02642 -0.1581,-0.05642 -0.2299,-0.09052l-0.58555,-0.29278c0.10208,0.20359 0.21499,0.42247 0.32783,0.65036zM261.13065,126.24057c0.03766,-0.45906 -0.01578,-0.88789 -0.24532,-1.21669c-0.03563,0.24734 -0.06242,0.49388 0.02597,0.71149c0.07085,0.17445 0.14465,0.34217 0.21935,0.5052zM258.06127,126.24514c0.08502,-0.63768 0.14283,-1.2425 0.12946,-1.70634c-0.20182,-0.05814 -0.41525,-0.11447 -0.62064,-0.19235c-0.15371,-0.00826 -0.30442,-0.01915 -0.45004,-0.03433c0.14539,0.0997 0.26311,0.23681 0.33926,0.39747l0.48063,0.96126l-0.0241,0.01205c0.06218,0.12543 0.10726,0.25813 0.12908,0.40075c0.00808,0.05287 0.01349,0.10672 0.01635,0.1615zM260.16056,129.2842c0.14902,-0.50367 0.17146,-1.04051 -0.05035,-1.63935c-0.03402,0.20044 -0.07303,0.39903 -0.11633,0.59466c-0.07784,0.3517 -0.5854,0.5693 -0.55353,0.92809c0.01901,0.21397 0.46075,-0.05437 0.64147,0.06176c0.027,0.01736 0.05322,0.03567 0.07874,0.05484zM257.32301,128.51387c0.07847,0.36352 0.16599,0.72672 0.25291,1.08959c0.02728,-0.5174 0.19954,-1.47284 0.35509,-2.4685c-0.13294,0.44046 -0.35391,0.90861 -0.608,1.37892zM257.97179,131.48384c0.34096,0.00108 0.68196,0.00538 1.02289,0.00826c0.05536,-0.10047 0.11326,-0.20041 0.17254,-0.30012c-0.60158,-0.31335 -1.18822,-0.62228 -1.45612,-1.01661c0.10074,0.43668 0.19326,0.87285 0.26069,1.30847zM260.43025,133.54672c-0.00244,0.09469 0.00063,0.19164 0.00571,0.28921c0.17055,-0.07932 0.30936,-0.20353 0.40016,-0.39674c-0.13005,0.03918 -0.26565,0.07504 -0.40587,0.10753zM255.70555,131.52085c-0.00141,0.01736 0.00003,0.0328 0.00406,0.04646c-0.00137,-0.01549 -0.00272,-0.03098 -0.00406,-0.04646zM258.7753,133.76464c-0.07889,0.00369 -0.1581,0.00655 -0.2375,0.00855c0.09382,0.04564 0.17734,0.05716 0.2375,-0.00855z" fill="#ff0000" stroke="none" stroke-width="0.5" stroke-linecap="butt"/><path d="M243.31658,263.07808l1.96128,-71.09619l5.39351,68.15428" fill="none" stroke="#00b1cf" stroke-width="0.5" stroke-linecap="round"/><path d="M257.53583,189.03998l5.39351,70.60587" fill="none" stroke="#00b1cf" stroke-width="0.5" stroke-linecap="round"/><path d="M224.15021,194.04209c-0.17122,-0.43203 -0.27381,-0.94966 -0.27381,-1.56987c0,-0.96896 0.25037,-1.68756 0.62172,-2.22047c-0.00352,-0.00617 -0.00706,-0.01233 -0.01059,-0.01848c0.00991,-0.0029 0.01982,-0.0058 0.02974,-0.00869c1.07118,-1.50236 3.10913,-1.50236 3.10913,-1.50236l0.54872,0.59059c2.81429,-0.58064 5.67459,-0.88782 8.48658,-0.83947c-0.94612,-0.56359 -1.46389,-1.42654 -1.46389,-1.42654l-1.47096,-2.45159c0,0 -1.92936,-3.2156 1.28624,-5.14496c3.2156,-1.92936 5.14496,1.28624 5.14496,1.28624l0.11231,0.18718c0.46272,-0.08004 0.87735,-0.08896 1.24858,-0.04393c0.9443,-1.22254 6.21907,-5.74045 7.42083,-6.16537c1.33812,-0.47313 2.83429,-0.27123 4.2536,-0.19577l0.26722,-0.80167c0.47126,-1.53234 1.89801,-2.64619 3.58491,-2.64619c1.60966,0 2.98244,1.01417 3.51422,2.43839l0.86753,2.16881c1.60196,2.75806 2.98793,4.32521 2.13127,8.13232c-0.40686,1.80816 -2.41328,2.91385 -3.03124,4.66117c0,0 -0.01085,0.02715 -0.03305,0.07568c0.52504,1.53443 -0.19803,3.66293 -0.21891,5.37803c-0.03243,2.66304 -0.34268,4.08639 -0.8689,5.93178c0.69299,0.78107 1.47584,2.17408 0.58551,3.95864c0.02771,0.03617 0.05514,0.07259 0.08231,0.10926c0.73929,0.99808 0.4781,2.43813 0.67716,3.66413c0.43411,2.67365 0.34163,5.40657 0.52165,8.10925c0.19461,2.92181 0.75585,5.85737 0.97517,8.76551c0.10424,1.38221 0.1106,2.7725 0.07944,4.16577c0.07914,1.61766 0.06131,3.24009 -0.07397,4.84847c-0.03384,0.40228 -0.07255,0.79306 -0.11395,1.17394c-0.01203,1.18448 0.01172,2.36578 0.10848,3.54075c0.24248,2.94431 0.90272,5.84103 1.25774,8.77675l1.73893,1.39115c0.87345,0.68658 1.43444,1.75272 1.43444,2.9499c0,2.07107 -1.67893,3.75 -3.75,3.75c-0.19245,0 -0.3815,-0.0145 -0.56614,-0.04246c-0.47109,0.18477 -0.97745,0.32843 -1.48391,0.46547c-0.09713,0.19792 -0.21377,0.37553 -0.39133,0.48788c-0.87349,0.55273 -2.04778,0.46196 -2.94191,0.98064c-2.48565,1.44192 -4.17493,5.11909 -7.0446,4.96907c-0.37598,-0.01966 -0.73692,-0.10073 -1.08352,-0.23038c-1.23367,0.92281 -2.45298,1.97787 -3.82273,1.64606c-0.27633,-0.06694 -0.53887,-0.15651 -0.78819,-0.26624c0.02542,-0.15715 0.03863,-0.31839 0.03863,-0.48272c0,-0.22288 -0.0243,-0.44008 -0.07041,-0.64909l-0.47817,-2.39085l-1.0406,0.20812l-0.29553,-0.29553l-0.09983,-1.91897c-0.61081,0.08773 -1.20562,0.18414 -1.78811,0.28895c-0.34724,-1.28815 -0.50285,-2.58596 -0.52527,-3.6385c-0.06772,-3.17989 1.42033,-7.0052 2.95769,-9.66686c0.05773,-0.09995 0.11714,-0.1999 0.17769,-0.29994l-0.12114,-0.02423l0.4767,-2.38347c0.17172,-0.95604 0.70578,-1.7863 1.45497,-2.34356c0.10906,-2.71831 0.18337,-5.77442 -0.43322,-8.38552c-1.03583,-4.38645 -2.95091,-7.81332 -2.53366,-12.50841c0.47683,-5.36549 3.52572,-10.40842 3.41398,-15.81099c0,-2.6898 -0.73715,-8.44399 0.38788,-10.9602c-0.02332,0.00043 -0.04669,0.00064 -0.07011,0.00064c-0.32176,0 -0.63406,-0.04052 -0.93207,-0.11675c0.12704,5.42333 -0.47115,11.04016 -1.25017,16.08986c-0.59018,3.82566 -2.08745,7.53744 -2.41595,11.47627c-0.62885,7.54014 -0.40501,15.39018 -0.5452,22.9545c-0.6098,1.58924 -1.10689,3.23724 -1.38045,4.91755l0.37947,1.89735c0.05763,0.26127 0.08801,0.53277 0.08801,0.81136c0,2.07107 -1.67893,3.75 -3.75,3.75c-0.29551,0 -0.58304,-0.03418 -0.85884,-0.0988c-0.50029,1.48276 -1.90248,2.5504 -3.55403,2.5504c-0.72777,0 -1.40712,-0.20731 -1.98221,-0.56611l-2.39874,-1.43925l0.15001,-0.25002c-0.37076,-0.14864 -0.73039,-0.32406 -1.07562,-0.53419c-2.09495,-1.27513 -2.4307,-7.40751 -2.80247,-9.64336c-0.66615,-4.00625 -1.36084,-8.20704 -1.01622,-12.27997c0.05151,-0.60879 0.13488,-1.20806 0.24472,-1.79938c-0.39767,-0.56151 -1.38306,-2.23967 -0.40335,-3.96037c-0.31941,-1.27978 -0.15274,-2.86691 -0.34994,-4.16742c-0.74735,-4.92853 0.62986,-10.26569 1.53862,-14.92839c0.77885,-3.99618 -0.06987,-8.27835 0.20614,-12.43053zM235.65348,196.61924c0.12813,-0.42593 -0.457,-0.76581 -0.63641,-1.1728c-0.80705,0.19341 -1.61157,0.39196 -2.41409,0.59452c0.12385,0.32517 0.20375,0.67202 0.23246,1.03329c0.54609,-0.0215 1.41243,0.03543 2.1984,0.48239c0.25512,-0.28943 0.51105,-0.5764 0.61965,-0.9374zM255.85571,248.70133c-0.29135,-0.56396 -0.55806,-1.12814 -0.79677,-1.70332l-0.99713,1.99426c-0.0826,0.17425 -0.17824,0.34111 -0.28565,0.49933c0.02722,-0.01524 0.0547,-0.03012 0.08247,-0.0446c0.61879,-0.3226 1.29937,-0.5896 1.99708,-0.74568zM256.40758,181.53365c-0.64665,0.07708 -1.34433,0.06015 -2.04689,0.0435c0.06069,0.35846 0.06068,0.59837 0.06068,0.59837l-0.05879,1.38539c0.14846,-0.34873 0.31875,-0.68547 0.53292,-0.99814c0.34437,-0.50275 1.15461,-0.53783 1.51209,-1.02912zM251.72868,251.45658c0.21942,-0.23627 0.42989,-0.48383 0.6439,-0.72588c-0.22782,0.11617 -0.4691,0.20974 -0.72088,0.27775c0.02582,0.14815 0.05154,0.29744 0.07697,0.44813z" fill="#000000" stroke="#e8dfdf" stroke-width="0.5" stroke-linecap="butt"/><path d="M214.46083,215.48296l0.78633,-0.31453c0.05306,0.21197 0.10802,0.42305 0.16495,0.63315c0.26951,0.99468 0.06166,2.09366 -0.14129,3.14794c-0.01365,-0.02194 -0.02352,-0.0407 -0.02905,-0.05601c-0.36021,-0.99669 0.06883,-2.28007 -0.56623,-3.1285c-0.07013,-0.09369 -0.14173,-0.18778 -0.21471,-0.28205z" fill="#00b5b5" stroke="none" stroke-width="0.5" stroke-linecap="butt"/><path d="M213.43449,203.43744c0.13295,0.05335 0.28594,0.0463 0.44092,0.02853c0.00489,0.20767 0.01047,0.41553 0.01678,0.62354c-0.13843,0.012 -0.27674,0.02437 -0.41437,0.03952c-0.07467,-0.27041 -0.16555,-0.52958 -0.26567,-0.78105c0.07377,0.02975 0.14786,0.05957 0.22233,0.08945z" fill="#00b5b5" stroke="none" stroke-width="0.5" stroke-linecap="butt"/><path d="" fill="#00b5b5" stroke="none" stroke-width="0.5" stroke-linecap="butt"/><path d="M233.22149,255.23298c0,0 0,-2.25 2.25,-2.25c2.25,0 2.25,2.25 2.25,2.25c0,3.27572 -0.17108,6.26634 -0.49799,9.50163c-0.09984,0.98813 0.39779,2.12269 -0.1078,2.97752c-0.29853,0.50475 -0.63203,1.05664 -1.01023,1.5702c0.04779,0.05726 0.09611,0.11392 0.14506,0.16988l-2.86127,3.27096c0,0 -0.65888,0.49416 -1.47836,0.4859c-0.40797,0.57187 -1.0769,0.94474 -1.83292,0.94474c-0.74548,0 -1.40629,-0.36255 -1.81571,-0.92095l-1.45524,-1.94033c-2.41408,-3.26665 -4.0991,-7.02566 -2.1401,-10.87561c-0.3116,-1.55347 -0.65851,-3.06631 -1.17042,-4.59746c0.92766,0.06805 1.88255,0.25763 2.78883,0.13448c1.14059,-0.15499 2.15447,-1.09575 3.30232,-1.00969c1.15479,0.08659 2.44409,0.4047 3.54975,0.99212c0.0272,-0.1428 0.05504,-0.28643 0.08349,-0.43097c0.00039,-0.09057 0.00059,-0.18137 0.00059,-0.27243z" fill="#ff0000" stroke="none" stroke-width="0.5" stroke-linecap="butt"/><text transform="translate(210.95557,142.95003) scale(0.83141,0.5)" font-size="40" xml:space="preserve" fill="#ffffff" fill-rule="nonzero" stroke="none" stroke-width="1" stroke-linecap="butt" stroke-linejoin="miter" stroke-miterlimit="10" stroke-dasharray="" stroke-dashoffset="0" font-family="Marker" font-weight="normal" text-anchor="start" style="mix-blend-mode: normal"><tspan x="0" dy="0"></tspan></text><text transform="translate(223.70385,131.58681) scale(0.03511,-0.85249)" font-size="40" xml:space="preserve" fill="#ffffff" fill-rule="nonzero" stroke="none" stroke-width="1" stroke-linecap="butt" stroke-linejoin="miter" stroke-miterlimit="10" stroke-dasharray="" stroke-dashoffset="0" font-family="Marker" font-weight="normal" text-anchor="start" style="mix-blend-mode: normal"><tspan x="0" dy="0"></tspan></text><text transform="translate(226.15544,141.47908) scale(0.5,0.5)" font-size="40" xml:space="preserve" fill="#ffffff" fill-rule="nonzero" stroke="none" stroke-width="1" stroke-linecap="butt" stroke-linejoin="miter" stroke-miterlimit="10" stroke-dasharray="" stroke-dashoffset="0" font-family="Marker" font-weight="normal" text-anchor="start" style="mix-blend-mode: normal"><tspan x="0" dy="0"></tspan></text><text transform="translate(229.09735,158.14991) scale(0.5,0.5)" font-size="40" xml:space="preserve" fill="#ffffff" fill-rule="nonzero" stroke="none" stroke-width="1" stroke-linecap="butt" stroke-linejoin="miter" stroke-miterlimit="10" stroke-dasharray="" stroke-dashoffset="0" font-family="Marker" font-weight="normal" text-anchor="start" style="mix-blend-mode: normal"><tspan x="0" dy="0"></tspan></text></g></g></svg>