<svg version="1.1" xmlns="http://www.w3.org/2000/svg" xmlns:xlink="http://www.w3.org/1999/xlink" width="83" height="254" viewBox="0,0,83,254"><g transform="translate(-206.48437,-107.5)"><g data-paper-data="{&quot;isPaintingLayer&quot;:true}" fill-rule="nonzero" stroke="#000000" stroke-width="7" stroke-linecap="butt" stroke-linejoin="miter" stroke-miterlimit="10" stroke-dasharray="" stroke-dashoffset="0" style="mix-blend-mode: normal"><path d="M210.98438,358v-197h75v197z" fill="#bbbbbb"/><path d="M266.98438,154v-43h19v43z" fill="#bbbbbb"/><path d="M209.98438,154v-43h19v43z" fill="#bbbbbb"/><path d="M240.98438,154v-43h14v43z" fill="#bbbbbb"/><path d="M215.98438,327v-17h35v17z" fill="#bbbbbb"/><path d="M216.98438,182v-17h35v17z" fill="#bbbbbb"/><path d="M243.98438,206v-17h35v17z" fill="#bbbbbb"/><path d="M215.98438,231v-17h35v17z" fill="#bbbbbb"/><path d="M246.98438,256v-17h35v17z" fill="#bbbbbb"/><path d="M216.98438,280v-17h35v17z" fill="#bbbbbb"/><path d="M242.98438,303v-17h35v17z" fill="#bbbbbb"/><path d="M248.98438,350v-17h35v17z" fill="#bbbbbb"/><path d="M255.98438,233v-23h26v23z" fill="#bbbbbb"/><path d="M215.98438,210v-23h26v23z" fill="#bbbbbb"/><path d="M255.98438,283v-23h26v23z" fill="#bbbbbb"/><path d="M217.98438,259v-23h26v23z" fill="#bbbbbb"/><path d="M257.98438,333v-23h26v23z" fill="#bbbbbb"/><path d="M217.98438,355v-23h26v23z" fill="#bbbbbb"/></g></g></svg>