<svg version="1.1" xmlns="http://www.w3.org/2000/svg" xmlns:xlink="http://www.w3.org/1999/xlink" width="120" height="53.57893" viewBox="0,0,120,53.57893"><g transform="translate(-181.018,-150.787)"><g data-paper-data="{&quot;isPaintingLayer&quot;:true}" fill-rule="nonzero" stroke="none" stroke-linecap="butt" stroke-linejoin="miter" stroke-miterlimit="10" stroke-dasharray="" stroke-dashoffset="0" style="mix-blend-mode: normal"><path d="M301.018,176.93c0,14.416 -11.729,26.144 -26.144,26.144h-67.713c-14.415,0 -26.143,-11.727 -26.143,-26.144c0,-14.415 11.727,-26.143 26.143,-26.143h67.713c14.415,0 26.144,11.728 26.144,26.143z" fill="#000000" stroke-width="1"/><path d="M296.514,176.93c0,11.952 -9.688,21.641 -21.64,21.641h-67.713c-11.952,0 -21.641,-9.689 -21.641,-21.641v0c0,-11.951 9.689,-21.64 21.641,-21.64h67.713c11.952,0 21.64,9.689 21.64,21.64z" fill="#000000" stroke-width="1"/><text transform="translate(212.60961,172.82404) scale(0.5,0.5)" font-size="40" xml:space="preserve" fill="#ffffff" fill-rule="nonzero" stroke="none" stroke-width="1" stroke-linecap="butt" stroke-linejoin="miter" stroke-miterlimit="10" stroke-dasharray="" stroke-dashoffset="0" font-family="Sans Serif" font-weight="normal" text-anchor="start" style="mix-blend-mode: normal"><tspan x="0" dy="0">сстарт</tspan></text><path d="M201.01551,173.67955c0,-2.62336 2.12664,-4.75 4.75,-4.75c2.62336,0 4.75,2.12664 4.75,4.75c0,2.62336 -2.12664,4.75 -4.75,4.75c-2.62336,0 -4.75,-2.12664 -4.75,-4.75z" fill="#ff0000" stroke-width="0.5"/><path d="M276.30068,174.36396c0,-2.62336 2.12664,-4.75 4.75,-4.75c2.62336,0 4.75,2.12664 4.75,4.75c0,2.62336 -2.12664,4.75 -4.75,4.75c-2.62336,0 -4.75,-2.12664 -4.75,-4.75z" fill="#ff0000" stroke-width="0.5"/><path d="M288.88052,184.63012c0,4.75 -4.75,4.75 -4.75,4.75h-1.71103c-1.34402,0 -2.7468,-0.63992 -4.02569,-0.2266c-1.02109,0.33 -1.71047,1.25356 -2.46904,2.06476c-0.36217,2.16535 -2.44138,3.35348 -2.44138,3.35348c-2.60368,1.4795 -5.01667,3.69065 -7.83013,4.75494c-1.99469,0.75456 -4.21699,0.67182 -6.28799,1.18085c-1.66611,0.40951 -2.93363,1.87649 -4.58687,2.33522c-4.15733,1.15356 -7.21291,-0.29671 -11.21481,-0.11919c-2.18343,0.09685 -4.24965,1.07179 -6.41923,1.33578c-6.07857,0.73964 -13.12067,0.05102 -19.07493,-1.10675c-4.879,-1.23403 -10.06835,-1.53009 -14.84696,-3.21268c-2.40425,-0.84656 -4.41526,-2.5726 -6.44843,-4.10989c-4.14717,-3.1357 -8.87989,-4.96794 -12.92108,-8.42006l4.81494,-8.65093c0,0 4.70226,-0.67176 5.37401,4.0305c0.01442,0.1009 0.02635,0.19994 0.03592,0.29716c2.77714,1.70369 5.67513,3.11786 8.35976,5.11613c1.25563,0.93462 2.31842,2.28453 3.81772,2.73421c4.55312,1.36559 9.3048,1.81051 13.89829,2.94701c4.81067,0.99964 10.91333,1.58439 15.83001,0.94648c2.44714,-0.3175 4.80398,-1.28799 7.26899,-1.40186c2.50908,-0.1159 6.10842,1.3988 8.63309,0.56521c1.76175,-0.58168 3.20787,-1.95694 4.99488,-2.45565c1.27425,-0.3556 3.94769,-0.35657 5.347,-0.87239c0.95089,-0.35052 1.88647,-0.92451 2.80752,-1.5618c-0.52657,-4.64046 4.13364,-5.22298 4.13364,-5.22298c2.78276,0.02701 3.3231,-2.56497 6.32588,-3.57434c0.82079,-0.27591 5.58212,-0.2266 6.92487,-0.2266h1.71103c0,0 4.75,0 4.75,4.75z" fill="#ff0000" stroke-width="0.5"/><path d="M203.6733,173.67955c0,-0.9665 0.7835,-1.75 1.75,-1.75c0.9665,0 1.75,0.7835 1.75,1.75c0,0.9665 -0.7835,1.75 -1.75,1.75c-0.9665,0 -1.75,-0.7835 -1.75,-1.75z" fill="#000000" stroke-width="0.5"/><path d="M279.98509,173.67955c0,-0.9665 0.7835,-1.75 1.75,-1.75c0.9665,0 1.75,0.7835 1.75,1.75c0,0.9665 -0.7835,1.75 -1.75,1.75c-0.9665,0 -1.75,-0.7835 -1.75,-1.75z" fill="#000000" stroke-width="0.5"/></g></g></svg>