<svg version="1.1" xmlns="http://www.w3.org/2000/svg" xmlns:xlink="http://www.w3.org/1999/xlink" width="20.5" height="110.35381" viewBox="0,0,20.5,110.35381"><g transform="translate(-229.8382,-105)"><g data-paper-data="{&quot;isPaintingLayer&quot;:true}" fill-rule="nonzero" stroke-linejoin="miter" stroke-miterlimit="10" stroke-dasharray="" stroke-dashoffset="0" style="mix-blend-mode: normal"><path d="M250.0882,189.60381c0,14.08326 -4.47716,25.5 -10,25.5c-5.52284,0 -10,-11.41674 -10,-25.5c0,-14.08326 4.47716,-25.5 10,-25.5c5.52284,0 10,11.41674 10,25.5z" data-paper-data="{&quot;index&quot;:null}" fill="#000000" stroke="#000000" stroke-width="0.5" stroke-linecap="butt"/><path d="M240.0882,210.10381l0.75895,-81.20762" data-paper-data="{&quot;index&quot;:null}" fill="none" stroke="#000000" stroke-width="9" stroke-linecap="round"/><path d="M241.08819,128.93018v77.17363" data-paper-data="{&quot;index&quot;:null}" fill="none" stroke="#000000" stroke-width="9" stroke-linecap="round"/><path d="M235.98438,110c0,-2.76142 2.23858,-5 5,-5c2.76142,0 5,2.23858 5,5c0,2.76142 -2.23858,5 -5,5c-2.76142,0 -5,-2.23858 -5,-5z" fill="#000000" stroke="none" stroke-width="0.5" stroke-linecap="butt"/></g></g></svg>