<svg version="1.1" xmlns="http://www.w3.org/2000/svg" xmlns:xlink="http://www.w3.org/1999/xlink" width="76.00774" height="189.40953" viewBox="0,0,76.00774,189.40953"><g transform="translate(-199.90559,-85.47487)"><g data-paper-data="{&quot;isPaintingLayer&quot;:true}" fill-rule="nonzero" stroke-linejoin="miter" stroke-miterlimit="10" stroke-dasharray="" stroke-dashoffset="0" style="mix-blend-mode: normal"><g stroke="none" stroke-width="0.95" stroke-linecap="butt"><path d="M260.0552,257.2635c-0.2746,0.5937 1.6036,0.9861 2.0681,1.0412c1.2303,0.1396 3.06,-0.2945 4.2494,-0.3002c1.0564,-0.0086 2.2363,0.1596 3.1654,0.5633c0.5966,0.2584 1.6843,1.4744 1.8392,2.109c0.0342,0.1406 0.0152,0.4161 -0.019,0.5548c-0.9947,0.3876 -1.8449,1.1296 -2.8025,1.634c-1.3281,0.7002 -2.7664,1.2236 -4.2769,1.5314c-1.5808,0.3249 -1.4839,0.6033 -3.1084,0.6812c-1.3823,0.0655 -4.5011,0.1596 -5.8093,-0.0931c-2.7806,-0.5282 -5.0834,-0.6014 -7.6541,-1.8924c-0.8028,-0.096 -5.2991,-1.8278 -3.8741,-2.1584c1.2454,-0.2888 4.8079,-0.3259 6.0914,-0.2584c1.8981,0.0988 3.857,-0.666 5.642,-1.4003c0.8484,-0.3487 1.5343,-0.6622 2.3323,-1.083c0.7163,-0.3772 1.253,-0.5349 1.7651,-1.122" fill="#eaa06d"/><path d="M271.5606,261.1832c0.2442,0.9129 0.2936,1.8591 0.324,2.8538c0.0133,0.4873 -0.1074,0.8512 -0.1663,1.2663c-0.0608,0.4551 0.1064,0.8902 0.0437,1.3443c-1.0117,0.399 -1.8933,1.0089 -2.9488,1.3556c-1.139,0.3753 -2.3227,0.6641 -3.4713,1.0241c-2.698,0.8493 -5.7541,0.6869 -8.4778,0.0551c-1.0839,-0.2508 -2.1099,-0.6393 -3.1378,-1.0554c-0.9918,-0.4028 -1.7281,-0.9405 -2.8301,-1.0327c-1.1229,-0.0969 -2.2068,0.2347 -3.3421,0.1549c-1.0583,-0.0722 -2.2629,-0.1454 -3.248,-0.5225c-2.0986,-0.8056 -0.647,-3.9748 -0.7059,-5.5129c0.4228,0.2518 1.2531,0.7059 1.6692,0.9966c0.8977,0.6175 1.6368,0.7533 2.678,1.0488c1.1106,0.3173 2.0083,0.7077 3.1151,1.0098c2.393,0.6546 4.8887,0.8864 7.3824,1.0241c2.3997,0.133 4.7092,-0.0038 6.9322,-0.8578c1.2388,-0.475 2.4282,-1.0811 3.6052,-1.6958c0.7201,-0.3762 1.7167,-1.5646 2.5137,-1.576" fill="#bc7240"/><path d="M271.1531,260.901v0v0c-1.0754,-3.3259 -4.1078,-3.0305 -6.9711,-2.6486c-0.8731,0.1169 -1.7604,0.2328 -2.641,0.1074c-0.9709,-0.1387 -1.4402,-0.5957 -2.0986,-1.2882c-0.133,-0.1406 0.3439,-0.1064 0.4427,-0.0029c0.6764,0.7125 1.2597,1.0821 2.2762,1.0897c0.5748,0.0066 1.1552,-0.0827 1.7271,-0.1558c1.0897,-0.1406 2.1784,-0.2983 3.2823,-0.2784c2.185,0.0371 3.7819,1.1467 4.4593,3.2386c0.0513,0.1577 -0.4256,0.0921 -0.4769,-0.0618zM271.7772,260.9618v0v0c0.3211,1.9333 0.2195,3.8865 0.2594,5.8387c0.0057,0.191 -0.4731,0.0846 -0.4769,-0.0627c-0.039,-1.9503 0.0608,-3.9026 -0.2594,-5.8387c-0.0285,-0.1786 0.4522,-0.094 0.4769,0.0627zM261.6664,269.6572v0v0c-2.7702,0.0627 -5.2887,-0.3107 -7.8518,-1.3785c-0.8018,-0.3353 -1.5561,-0.7372 -2.3883,-0.9965c-1.0944,-0.3363 -2.0624,-0.0542 -3.1549,0.0304c-1.7471,0.1368 -3.3963,-0.3012 -5.0483,-0.8275c-0.0656,-0.019 -0.191,-0.0579 -0.2109,-0.1415c-0.3449,-1.7851 0.4189,-3.4742 0.3486,-5.2602c-0.0076,-0.189 0.4693,-0.0874 0.4769,0.0599c0.0513,1.3328 -1.2844,4.902 0.3078,5.3874c1.4193,0.4313 2.85,0.6897 4.3292,0.4608c0.7419,-0.115 1.4563,-0.2109 2.2021,-0.1159c1.6406,0.209 3.1359,1.1941 4.6721,1.7461c1.976,0.7096 4.047,0.8246 6.1275,0.778c0.171,-0.0038 0.5149,0.2499 0.19,0.2575zM271.9919,266.8803v0v0c-3.3459,1.5086 -6.6557,2.6315 -10.3246,2.7807c-0.1719,0.0066 -0.5101,-0.2451 -0.1881,-0.2575c3.5948,-0.1463 6.8562,-1.2654 10.1327,-2.7455c0.1311,-0.0617 0.571,0.1359 0.38,0.2223zM271.6138,261.0245v0v0c-3.5644,3.078 -8.5908,4.4441 -13.2107,4.3425c-2.6163,-0.0618 -5.206,-0.5653 -7.7387,-1.198c-1.1932,-0.2992 -2.3636,-0.6669 -3.5216,-1.083c-1.3566,-0.4845 -2.3066,-1.3509 -3.5853,-1.956c-0.2993,-0.1406 -0.0219,-0.2784 0.1833,-0.1796c0.741,0.3496 1.3595,0.8512 2.0416,1.2996c1.1542,0.7553 2.755,1.0878 4.065,1.4583c2.5755,0.7315 5.2326,1.2245 7.9059,1.3775c4.6389,0.2612 9.8354,-1.1609 13.4131,-4.2465c0.1263,-0.1026 0.569,0.0817 0.4474,0.1852z" fill="#000000"/></g><g stroke="none" stroke-width="0.95" stroke-linecap="butt"><path d="M237.0082,267.3354c0.0076,0.6897 -0.4636,2.0244 -0.9985,2.3721c-0.7239,0.4665 -2.0387,0.9681 -2.8747,1.1381c-3.6613,0.7496 -8.9243,0.779 -12.5704,-0.1387c-0.835,-0.2099 -1.653,-0.6593 -1.8648,-1.3262c-0.1102,-0.3524 -0.3696,-1.7936 -0.3173,-2.1147c0.0931,-0.5937 1.3661,-1.3509 1.7423,-1.88c0.4037,-0.5672 1.2473,-1.0241 1.8088,-1.4754c1.1314,-0.9148 2.8709,-1.1922 4.2949,-1.405c1.6274,-0.2451 3.0676,-0.0228 4.7481,0.456c1.3034,0.3762 2.3627,0.9652 3.5264,1.6302c0.5605,0.323 1.0707,0.5747 1.4079,1.1732c0.2784,0.4921 0.5748,1.2749 1.0973,1.5704" fill="#eaa06d"/><path d="M237.1127,268.6806c0.3781,0.9889 -0.1834,2.8082 -0.4608,3.8589c-0.1349,0.5092 -1.0478,0.6602 -1.4981,0.9452c-0.6527,0.4095 -1.4307,0.4342 -2.1746,0.6137c-1.4658,0.3544 -3.0039,0.5748 -4.5277,0.5748c-1.386,0 -2.4025,-0.1264 -3.7924,-0.1853c-1.1476,-0.0475 -2.3379,-0.3078 -3.458,-0.5415c-0.9281,-0.1957 -1.9323,-0.3439 -2.5669,-1.0868c-0.7628,-0.892 -1.1675,-1.9047 -1.3262,-2.9877c-0.1187,-0.8056 -0.3458,-2.1746 0.5197,-2.5289c0.8502,-0.3458 0.7201,1.3632 0.8702,2.032c0.2441,1.0811 2.0187,1.3547 3.078,1.6302c2.774,0.7239 5.1024,0.8389 7.7966,0.4741c1.5219,-0.2052 3.1122,-0.2537 4.5125,-0.8389c0.4142,-0.1729 1.1524,-0.2878 1.5029,-0.6032c0.3506,-0.3173 0.5881,-0.495 0.8218,-0.8237c0.0826,0.0209 0.2137,-0.5624 0.2593,-0.5168" fill="#bc7240"/><path d="M236.7412,267.3135v0v0c-0.1843,-1.1295 -2.7768,-2.2971 -3.6727,-2.7398c-1.5637,-0.7704 -3.248,-0.9585 -4.9675,-0.9015c-1.8136,0.0579 -3.7288,0.17 -5.4464,0.7837c-1.6254,0.5805 -2.9668,1.7357 -4.1268,2.9792c-0.1111,0.1169 -0.5662,-0.056 -0.4474,-0.1805c1.3775,-1.4791 2.9222,-2.6391 4.8687,-3.249c1.8335,-0.5728 4.047,-0.6175 5.9575,-0.607c1.6406,0.0133 3.286,0.4142 4.7386,1.1856c0.93,0.4949 3.3734,1.5694 3.572,2.7911c0.0294,0.1795 -0.4513,0.0931 -0.476,-0.0618zM218.6171,267.4579v0v0c0.057,0.7961 0.0314,1.5903 0.4285,2.3066c0.4579,0.8208 1.9817,1.0298 2.8129,1.1818c1.7528,0.3249 3.5426,0.494 5.3229,0.4912c1.9855,-0.001 3.9795,-0.2641 5.9175,-0.7021c0.9567,-0.2166 1.8782,-0.5586 2.6752,-1.1381c0.7999,-0.5842 0.7344,-1.462 0.9652,-2.3161c0.0409,-0.1548 0.4551,-0.038 0.4769,0.0988c0.2442,1.4925 0.134,3.0153 -0.2137,4.484c-0.134,0.5643 -0.0086,0.7078 -0.4988,1.084c-0.4607,0.3496 -1.0279,0.6194 -1.5713,0.8132c-3.0884,1.0953 -6.7022,1.2768 -9.9455,1.0203c-2.4444,-0.1948 -5.7941,-0.4038 -7.201,-2.7484c-0.7068,-1.1751 -1.5086,-4.7766 0.5671,-5.1034c0.1435,-0.019 0.5624,0.21 0.2964,0.2518c-2.0292,0.3192 -0.8911,4.0641 -0.266,5.1015c0.8113,1.3499 2.5555,1.6501 3.9786,1.9266c1.3842,0.2688 2.8044,0.3562 4.2142,0.3819c2.718,0.0503 5.5927,-0.2138 8.1719,-1.1286c0.381,-0.1378 0.7401,-0.3544 1.0887,-0.5567c0.7277,-0.4237 0.6033,-0.7876 0.7686,-1.4839c0.3144,-1.3329 0.3638,-2.7617 0.1387,-4.1088c0.1596,0.0333 0.3173,0.0627 0.4769,0.0988c-0.2584,0.9662 -0.1948,1.6711 -0.9966,2.3693c-0.6897,0.6033 -1.6368,0.8845 -2.4937,1.1258c-2.3361,0.6526 -4.8631,0.8331 -7.277,0.7904c-1.919,-0.0314 -3.9435,-0.2793 -5.7988,-0.7743c-0.6821,-0.1767 -1.3253,-0.4674 -1.8525,-0.9348c-0.6888,-0.6137 -0.5947,-1.7622 -0.6536,-2.5897c-0.019,-0.1919 0.4598,-0.095 0.4683,0.0589z" fill="#000000"/></g><g stroke="none" stroke-width="0.95" stroke-linecap="butt"><path d="M261.7604,257.9589v0c-0.018,0.0275 0.0722,0.0845 0.1796,0.1235c-0.6014,0.532 -2.0549,-0.9975 -2.7503,-0.7258c-1.2074,0.3553 -1.0241,0.9148 -2.2239,1.4041c-1.3756,0.5576 -3.1512,1.5646 -4.6132,1.6938c-2.7037,0.2375 -4.2532,0.2461 -6.8391,0.2233c-2.7578,0 -2.0311,1.2217 -1.9475,1.6093c-1.995,1.2464 -4.3548,-0.3515 -4.8706,-1.6093c-0.97,1.234 -1.6093,0.7001 -1.1951,1.9959c0.7923,2.4814 0.037,3.4618 -0.7002,3.5464c-0.4465,0.0503 -2.3522,-1.8801 -3.1635,-2.186c-1.672,-1.0687 -2.0881,-1.0725 -4.0878,-1.3651c-2.0957,-0.304 -3.6224,-0.3667 -5.9831,0.2717c-2.1195,0.1938 -3.1958,2.4909 -4.5828,3.496c-0.0523,-0.057 -0.2907,-0.1558 -0.3563,-0.1596c-2.2163,-0.0295 -1.1362,-1.1201 -2.1118,-1.9998c-1.1153,-1.0013 -2.0948,-2.147 -2.907,-3.4086c-0.4674,-0.7286 -0.9101,-1.3585 -0.5738,-2.2524c0.1843,-0.495 0.4142,-0.9624 0.7334,-1.3861c0.6925,-0.9215 1.5209,-1.7299 2.1327,-2.716c0.001,-0.0219 -0.0038,-0.0352 -0.0199,-0.0494c-0.7885,-0.6185 -1.5419,-1.0194 -0.5662,-1.7936c0.6108,-0.4826 0.3752,-0.6052 0.2546,-1.2236c-0.5852,-2.9897 0.6004,-6.1104 1.3271,-8.9804c1.6027,-6.3422 2.9222,-12.8563 3.3241,-19.3952c0,-0.0019 -0.0029,-0.0028 -0.0029,-0.0038c0.9652,-10.2362 1.9342,-20.4772 2.8994,-30.7106c0.153,0.0484 0.0209,-0.2195 0.0209,-0.2195l1.1153,-12.8544c15.9724,-2.6724 29.1536,-2.5536 29.1536,-2.5536l1.1524,15.5363c-0.0038,0.0038 -0.019,0.0038 -0.019,0.0085c0.0076,7.8128 0.532,15.6114 0.3315,23.427c0,0.0057 0.0114,0.0105 0.0133,0.0162c-0.0009,0.0028 -0.0095,0.0028 -0.0085,0.0066c0.5624,2.6391 0.4256,5.1908 0.6621,7.847c0.2204,2.5071 0.6375,5.0103 1.0127,7.4955c0.3791,2.508 0.7192,4.979 0.8104,7.5145c0.0494,1.445 0.0817,3.2395 1.1846,4.3168c-0.3306,-0.0703 -0.6659,-0.1159 -1.0041,-0.1225c-0.2356,-0.0048 0.209,0.1947 0.3097,0.1938c0.6384,0.0133 1.4003,0.2384 2.0092,0.6355c0.0656,0.0456 0.1359,0.0941 0.2033,0.1425c0.5786,0.4475 0.9643,1.0707 0.8351,1.8573c-0.1131,0.6897 -0.418,1.2758 -0.6745,1.918c-0.4836,1.2198 -0.5358,2.2762 0.6431,3.0172c1.3357,0.8436 2.7398,1.406 2.4453,3.2984c-0.2213,1.4317 -0.7353,2.9175 -1.5523,4.1202z" fill="#3d6767"/><path d="M263.7364,252.7272v0c0.5216,1.6084 -0.6165,4.0641 -1.4991,5.3647c-0.0171,0.0247 -0.057,0.0275 -0.0959,0.0294c-0.0551,0.1454 -0.6014,0.2423 -0.6014,0.2423l-0.0142,-0.0456c-0.6935,-0.1007 -1.4098,-1.3215 -1.8991,-0.988c-1.5618,1.0621 -3.2433,1.9342 -5.0112,2.5982c-1.9019,0.7163 -3.8,0.931 -5.814,0.9187c-2.1993,-0.0143 -4.4983,-0.2024 -6.5522,0.7391c-0.1282,0.0627 -0.5082,-0.1349 -0.4493,-0.1606c1.6235,-0.7438 3.3782,-0.8018 5.1338,-0.7932c2.393,0.0123 4.5942,-0.001 6.896,-0.7486c1.1343,-0.3686 2.2154,-0.8854 3.2642,-1.445c0.7315,-0.3914 1.5913,-1.2369 2.3731,-1.4573c0.1986,-0.0598 0.3933,-0.0294 0.5833,0.0589c0.3392,0.1634 1.0089,1.122 1.3025,1.0982c0.0266,-0.0019 0.0741,0.0086 0.1292,0.0266l-0.0029,-0.0085l0.2812,-0.1957c0.818,-1.2027 1.3319,-2.6885 1.5523,-4.1202c0.2945,-1.8933 -1.1096,-2.4548 -2.4453,-3.2984c-1.1789,-0.741 -1.1267,-1.7974 -0.6431,-3.0172c0.2565,-0.6422 0.5614,-1.2283 0.6745,-1.918c0.1292,-0.7866 -0.2565,-1.4098 -0.8351,-1.8573c-0.0646,-0.0494 -0.133,-0.0969 -0.2033,-0.1425c-0.608,-0.3971 -1.3708,-0.6222 -2.0092,-0.6355c-0.1007,0.0009 -0.5453,-0.1986 -0.3097,-0.1938c0.3391,0.0066 0.6735,0.0522 1.0041,0.1225c-1.1029,-1.0773 -1.1352,-2.8718 -1.1846,-4.3168c-0.0912,-2.5355 -0.4323,-5.0055 -0.8104,-7.5145c-0.3743,-2.4861 -0.7923,-4.9884 -1.0127,-7.4955c-0.2365,-2.6562 -0.0997,-5.2088 -0.6621,-7.847c-0.001,-0.0038 0.0076,-0.0038 0.0085,-0.0066c-0.0019,-0.0057 -0.0133,-0.0105 -0.0133,-0.0162c0.2005,-7.8147 -0.3239,-15.6132 -0.3315,-23.427c0,-0.0047 0.0152,-0.0047 0.019,-0.0085l-1.1524,-15.5363c0,0 -13.1822,-0.1178 -29.1536,2.5536l-1.1153,12.8544c0,0 0.1321,0.2679 -0.0209,0.2195c-0.9652,10.2334 -1.9342,20.4744 -2.8994,30.7106c0,0.001 0.0029,0.0019 0.0029,0.0038c-0.4019,6.5389 -1.7214,13.053 -3.3241,19.3952c-0.7106,2.8054 -1.8487,5.8511 -1.3528,8.7809c2.546,0.7752 4.8669,2.5175 7.5934,2.5374c2.5726,0.02 5.0777,-1.2806 7.5116,-1.9494c0.115,-0.0313 0.5358,0.1473 0.3962,0.1862c-2.6163,0.7182 -5.2849,2.147 -8.0332,1.9561c-2.6923,-0.1862 -4.9248,-1.7822 -7.4471,-2.5603c0.0019,0.0095 0.0019,0.019 0.0038,0.0295c0.1207,0.6184 0.3563,0.741 -0.2546,1.2236c-0.9756,0.7752 -0.2223,1.1761 0.5662,1.7936c0.0152,0.0142 0.0209,0.0285 0.02,0.0494c-0.6109,0.9861 -1.4402,1.7936 -2.1328,2.716c-0.3182,0.4237 -0.5491,0.8911 -0.7334,1.3861c-0.3363,0.8939 0.1074,1.5238 0.5738,2.2524c0.8132,1.2616 1.7917,2.4073 2.907,3.4086c0.9766,0.8788 -0.1045,1.9703 2.1119,1.9998l0.5804,-0.2299c3.4238,-5.6383 13.3922,-4.4394 17.3622,0.0855c0.7391,-0.4579 1.3699,-0.8474 1.1704,-1.8658c-0.1824,-0.9282 -0.5206,-1.4526 -0.4455,-2.3351c-1.2597,0.2612 -2.6895,-0.0285 -3.9292,-0.229c-2.0463,-0.3277 -4.0109,-0.9129 -6.1038,-0.855c-0.0988,0.0019 -0.5453,-0.1909 -0.3078,-0.1985c3.2262,-0.0827 6.2966,1.1685 9.5228,1.1789c0.0485,-0.2289 0.0988,-0.4588 0.1463,-0.6897c-0.3163,-0.1995 -0.6536,-0.3543 -1.0089,-0.4655c-0.5405,-0.1881 -1.0659,-0.3866 -1.6169,-0.5557c-0.8502,-0.2575 -1.7195,-0.4494 -2.583,-0.646c-1.9846,-0.4551 -3.9853,-0.8465 -6.0088,-1.0754c-0.1216,-0.0133 -0.5168,-0.229 -0.2042,-0.1938c2.5441,0.2878 5.0549,0.8179 7.542,1.4183c1.4155,0.342 3.6841,0.7239 4.713,1.9513c2.0216,-1.672 3.229,-4.7367 2.3607,-7.2931c-0.3705,-1.0868 -1.6207,-1.3186 -2.2116,-2.2002c-0.398,-0.5919 -0.076,-1.0061 0.2974,-1.539c0.494,-0.6945 0.2033,-1.5115 0.1045,-2.2943c0,-0.0019 -0.0029,-0.0028 -0.0029,-0.0038c0,-0.0066 0,-0.0152 0,-0.0237c-0.0038,-0.0342 -0.0104,-0.0684 -0.0133,-0.1026c0,-0.0029 0.0095,-0.0019 0.0105,-0.0048c-0.001,-0.037 -0.0029,-0.0731 -0.0029,-0.1102c-0.0095,-0.0123 -0.0199,-0.0237 -0.0294,-0.0361c-0.0266,-0.0332 -0.0095,-0.0503 0.0266,-0.0589c-0.1672,-8.2203 -0.8731,-16.492 0.4617,-24.6591c0.0047,-0.0219 0.038,-0.0314 0.0779,-0.0352c1.216,-4.4137 1.9161,-8.9338 2.4709,-13.4719c0.2755,-2.2667 0.5957,-4.541 0.7382,-6.8201c0.1387,-2.1432 0.1007,-4.1363 1.0089,-6.136c0.0484,-0.1121 0.513,0.0494 0.474,0.132c-0.8407,1.8573 -0.9091,3.7316 -0.988,5.7323c-0.0874,2.2563 -0.4398,4.5201 -0.703,6.7583c-0.5624,4.7899 -1.2882,9.5646 -2.5925,14.2158c-0.0038,0.0133 -0.0285,0.0133 -0.0437,0.02c-1.2797,8.0968 -0.5881,16.2982 -0.4237,24.4492c1.5371,1.9323 3.6299,4.256 6.3232,3.9786c0.1035,-0.0133 0.55,0.1719 0.3106,0.1966c-2.7274,0.2803 -4.9115,-1.6473 -6.5854,-3.6233c0.1121,0.7049 0.2717,1.3576 -0.1406,2.0226c-0.1729,0.2793 -0.3496,0.5092 -0.4864,0.8113c-0.2622,0.5956 0.6736,1.1295 1.0346,1.3898c0.8113,0.5824 1.3053,1.102 1.5238,2.1024c0.4379,1.976 -0.2565,4.1448 -1.5286,5.7351c0.0029,0.0029 0.0114,0.0038 0.0133,0.0076c0.4171,0.5871 0.8607,1.1172 1.4649,1.52c0.9111,0.6071 2.0397,0.2869 2.9697,-0.0589c0.1064,-0.0399 0.5339,0.134 0.3905,0.1862c-2.1071,0.7752 -3.7231,0.2356 -5.0436,-1.4164c-0.2907,0.3325 -0.5985,0.6422 -0.9357,0.9063c-0.1739,1.159 0.4484,1.956 0.5006,3.0789c0.0352,0.7581 -0.9718,1.1856 -1.4839,1.5105c-0.0997,0.0608 -0.3714,-0.0133 -0.4417,-0.0988c-3.7449,-4.6331 -13.6572,-5.7095 -16.8426,0.0941c-0.0674,0.1092 -0.4465,-0.0323 -0.4693,-0.1112c-0.056,0.02 -0.1111,0.039 -0.1634,0.0561c0.0428,0.0209 0.0789,0.0427 0.096,0.0608c0.0209,0.0228 0.0133,0.038 -0.0466,0.0389c-0.0028,0 -0.0028,0.001 -0.0066,0.001c-0.039,-0.001 -0.077,-0.0038 -0.1159,-0.0048c-0.6071,-0.0171 -1.1818,-0.1121 -1.634,-0.4189c-0.0067,-0.0038 -0.0124,-0.0095 -0.0181,-0.0133c-0.2508,-0.1739 -0.4655,-0.4104 -0.6213,-0.7439c-0.3553,-0.7666 -0.5719,-1.1276 -1.2074,-1.7537c-0.837,-0.8274 -1.5476,-1.7746 -2.1974,-2.7521c-0.2764,-0.4133 -0.5282,-0.8417 -0.7799,-1.2683c-0.152,-0.2555 0.2156,-1.0773 0.3135,-1.3309c0.2916,-0.7819 0.8854,-1.4459 1.4202,-2.071c0.3373,-0.3933 0.6755,-0.7828 0.9861,-1.1999c0.4712,-0.6327 -0.1605,-0.8303 -0.5738,-1.2131c-0.3211,-0.2983 -0.2878,-0.6223 0,-0.9139c0.3819,-0.3838 1.0061,-0.5824 0.7163,-1.2407c-0.3961,-0.8997 -0.3116,-1.9599 -0.2175,-2.9317c0.2555,-2.7531 1.2245,-5.4587 1.8734,-8.132c1.3889,-5.739 2.5061,-11.6404 2.8671,-17.5427c0,-0.001 -0.0019,-0.0019 -0.0019,-0.0029c0.4408,-4.6673 0.8816,-9.3337 1.3224,-14.0011c0.0779,-0.8255 0.1558,-1.6501 0.2337,-2.4747c0.456,-4.8203 0.911,-9.6406 1.3661,-14.459l1.177,-13.2012c0,0 17.8724,-2.9697 30.0438,-2.5536l1.1352,16.1509c0.0086,7.8109 0.533,15.6066 0.3325,23.4185c0.4323,2.0339 0.5691,4.0327 0.5795,6.1056c0.0124,2.642 0.5482,5.2583 0.9044,7.8679c0.3525,2.5717 0.855,5.1357 0.97,7.7359c0.076,1.7119 -0.1606,4.0584 1.1609,5.3751c0.0484,0.0484 0.0826,0.1045 0.1358,0.1501c0.0228,0.0076 0.0466,0.018 0.0694,0.0266c0.6336,0.2242 1.2245,0.5586 1.7071,1.045c1.331,1.3366 -0.2593,3.2233 -0.5016,4.6512c-0.341,2.0235 2.7949,2.1992 3.363,3.9434z" fill="#000000"/></g><g stroke="none" stroke-width="0.95" stroke-linecap="butt"><path d="M222.723,191.2546v0c0,-0.0009 -0.0019,-0.0009 -0.0019,-0.0028c0.0342,-2.8557 0.6023,-5.6658 0.8189,-8.5054c0.0988,-0.5149 0.1511,-1.0117 0.1834,-1.6311c-0.0295,-0.3173 0.0313,0.1244 0.3021,-0.191c0.2156,-0.2508 0.342,0.3002 0.7125,0.4161c0.5377,0.172 1.5143,0.4446 2.0586,0.5738c1.2084,0.2926 2.9118,0.6717 4.1667,0.6717c2.9118,0 5.5832,-0.0323 8.4759,-0.3819c3.3659,-0.4066 5.6687,-1.3481 8.8597,-2.4406c2.5318,-0.8683 5.0835,-2.755 7.62,-3.6176c0.2916,0.7923 0.2745,1.73 0.3429,2.5612c0.0874,1.0792 0.2765,2.1537 0.4228,3.2262c0.3173,2.3313 0.6631,4.6493 1.2179,6.9331c-0.0342,0.0342 -0.0447,0.0798 0.0304,0.1387c0.0009,0.001 0.0009,0.001 0.0009,0.0019c0.0067,0.0238 0.0114,0.0485 0.0171,0.0722c0.0114,0.0466 0.0608,0.0789 0.1178,0.1017c0.0333,0.0684 0.0447,0.1434 0.0371,0.2223c-0.0019,0.0266 -0.0086,0.0551 -0.0114,0.0826c-0.2955,1.1885 -4.4489,3.2205 -4.7652,3.3393c-2.965,1.1343 -6.0848,1.6283 -9.2283,1.9589c-0.6831,-0.6204 -0.3401,-2.6961 -0.3164,-3.4761c0.0618,-1.957 -0.2926,-3.894 -0.6194,-5.814c-0.0218,-0.1206 -0.3363,-0.2156 -0.36,-0.0627c-0.2375,1.5647 -0.6945,3.0894 -0.9225,4.6664c-0.1254,0.8655 -0.2726,1.7262 -0.3828,2.5926c-0.0998,0.7847 -0.3658,1.5285 -0.4589,2.3056c-0.0009,0.0086 0.0095,0.0152 0.0105,0.0238c-3.8276,0.1577 -7.6124,-0.3107 -11.3877,-0.8949c-0.6811,-0.1045 -1.5266,-0.1767 -2.3949,-0.3021c-0.8151,-0.1397 -1.6606,-0.3202 -2.4187,-0.5824c-0.9852,-0.3866 -1.7908,-0.988 -2.1271,-1.9855z" fill="#c0e1e1"/><path d="M258.2844,188.9908v0c0.873,1.0317 -2.167,2.7778 -2.8329,3.1635c-3.3849,1.9779 -7.6,2.4994 -11.4266,2.8927c-0.1235,0.0143 -0.2736,-0.1168 -0.2309,-0.1919c-0.5899,-0.6279 -0.4132,-2.0149 -0.398,-2.7559c0.038,-1.863 -0.1387,-3.6566 -0.4114,-5.4749c-0.0028,-0.019 -0.0057,-0.0389 -0.0095,-0.0589c-0.0038,0.0181 -0.0057,0.0361 -0.0095,0.0551c-0.2403,1.1875 -0.5443,2.3674 -0.7267,3.5749c-0.1292,0.8654 -0.2708,1.7261 -0.3819,2.5925c-0.0988,0.779 -0.3629,1.5181 -0.4551,2.2914c0.0884,0.0684 0.1302,0.1672 -0.0294,0.1748c-4.4118,0.209 -8.702,-0.4978 -13.0559,-1.0896c-2.0719,-0.2822 -5.168,-0.6166 -5.9546,-2.9355c0,-0.0029 -0.0028,-0.0038 -0.0028,-0.0057c0.0047,-0.3829 0.0228,-0.7648 0.0446,-1.1467c0.0865,-1.5257 0.2888,-3.0419 0.4798,-4.559c0.209,-1.6616 0.3971,-3.325 0.379,-5.0056c-0.0019,-0.1738 0.362,-0.1102 0.3639,0.0342c0.0076,0.7363 -0.0304,1.4697 -0.0865,2.2012c-0.2166,2.8395 -0.7847,5.6496 -0.8189,8.5053c0.001,0.001 0.0019,0.001 0.0019,0.0019c0.3354,0.9975 1.1419,1.5989 2.1271,1.9855c0.7448,0.2917 1.5903,0.4636 2.4187,0.5824c0.8683,0.1244 1.7138,0.1976 2.3949,0.3021c3.7753,0.5842 7.5601,1.0526 11.3877,0.8949c-0.001,-0.0076 -0.0114,-0.0143 -0.0105,-0.0238c0.0922,-0.778 0.3591,-1.5209 0.4589,-2.3056c0.1102,-0.8664 0.2574,-1.7271 0.3828,-2.5926c0.229,-1.577 0.685,-3.1017 0.9225,-4.6664c0.0237,-0.1539 0.3391,-0.0579 0.36,0.0627c0.3259,1.92 0.6802,3.8561 0.6194,5.814c-0.0237,0.78 -0.3667,2.8557 0.3164,3.4761c3.1435,-0.3306 6.2633,-0.8256 9.2283,-1.9589c0.3163,-0.1188 4.4697,-2.1508 4.7652,-3.3393c0.0066,-0.0285 0.0085,-0.056 0.0114,-0.0826c0.0076,-0.0789 -0.0038,-0.1539 -0.0371,-0.2223c-0.057,-0.0228 -0.1064,-0.0542 -0.1178,-0.1017c-0.0057,-0.0237 -0.0104,-0.0484 -0.0171,-0.0722c0,-0.0009 0,-0.0009 -0.0009,-0.0019c-0.0751,-0.0598 -0.0646,-0.1054 -0.0304,-0.1387c-0.5548,-2.2838 -0.9006,-4.6018 -1.2179,-6.9331c-0.1463,-1.0716 -0.3344,-2.146 -0.4228,-3.2262c-0.0684,-0.8312 -0.0503,-1.7689 -0.3429,-2.5612c-0.0067,-0.018 -0.0095,-0.037 -0.0162,-0.0551c-0.0731,-0.1824 0.285,-0.1615 0.3373,-0.0275c0.5747,1.4706 0.4664,3.4418 0.6811,4.997c0.3639,2.6609 0.722,5.32 1.3633,7.9306z" fill="#000000"/></g><g fill="#ff7b00" stroke="none" stroke-width="0.95" stroke-linecap="butt"><path d="M266.5864,124.3803v0c-0.6583,0.9557 -1.5437,1.7091 -2.5811,2.1375c-0.5634,0.1919 -1.1087,0.3278 -1.7062,0.3819c-3.7858,0.1834 -6.6909,-2.4937 -5.8634,-6.3726c0,0 2.5479,-4.4203 9.1304,-2.0643c1.7841,1.5428 2.4263,3.875 1.0203,5.9175z"/><path d="M273.7789,133.2106v0c0.2451,1.0516 0.4484,2.1099 0.6336,3.173c0.4104,2.375 1.0745,4.8402 1.0431,7.2637c-0.0171,1.2312 -0.323,2.3161 -0.5196,3.514c-0.1378,0.8389 -0.152,1.843 -0.5757,2.6002c-0.8189,1.4601 -1.8402,1.5399 -3.4115,1.5789c-2.8063,0.0693 -5.6952,-0.457 -8.3666,-1.2844c-2.9783,-0.9206 -6.1028,-2.2838 -8.0133,-4.8555c-0.0228,-0.0304 -0.0741,-0.0551 -0.133,-0.0741c0.0333,-0.6165 0.0798,-1.2359 0.1577,-1.8658c0.0067,-0.0608 0.0143,-0.1225 0.0219,-0.1833c1.139,-1.8848 2.3037,-3.8371 1.9693,-6.1209c-0.0199,-0.1425 -0.4978,-0.2337 -0.4769,-0.0703c0.2717,1.8411 -0.4607,3.4637 -1.349,5.0065c0.3506,-2.926 0.6327,-5.8244 0.4152,-8.7875c-0.0095,-0.1387 -0.4893,-0.2413 -0.4779,-0.0712c0.247,3.363 -0.1985,6.6129 -0.5709,9.9284c-0.0057,0.0114 -0.0133,0.0228 -0.02,0.0342c-0.0057,0.0105 0.0114,0.0209 0.0133,0.0314c-0.0304,0.2698 -0.0608,0.5386 -0.0893,0.8094c-0.3562,3.3782 -0.057,6.5949 0.931,9.8581c1.1505,3.7991 2.9298,7.3188 4.313,11.0238c0.7059,1.8962 0.7553,3.668 -0.5909,5.2754c-0.9006,1.0792 -1.9826,1.9817 -2.8766,3.0656c-0.1026,0.1264 0.3544,0.2917 0.4484,0.1786c0.5301,-0.6422 1.1419,-1.2464 1.7252,-1.8572c0.0903,0.911 0.9652,1.8363 1.1172,2.6818c0.1644,0.9035 -1.577,1.6606 -2.2306,1.9988c-0.8512,0.4437 -1.7328,0.8085 -2.6419,1.1125c-4.3016,1.4487 -8.5519,3.7857 -13.0701,4.4393c-4.6503,0.6736 -9.3423,0.7182 -13.9831,0.114c-1.0317,-0.1339 -4.7699,-0.8094 -4.1391,-2.3313c0.1976,-0.475 0.5339,-0.9661 0.6754,-1.4601c0.0741,-0.2717 0.077,-0.5672 0.0637,-0.8626c0.247,0.3942 0.4873,0.7106 0.4313,1.2758c-0.0162,0.1625 0.4645,0.2632 0.4788,0.1292c0.1083,-1.0915 -0.8883,-2.0064 -1.2236,-3.0143c-0.4361,-1.2968 -0.5976,-2.5574 -0.3715,-3.9207c0.475,-2.8148 0.8294,-5.5964 0.9253,-8.4512c0.1672,-5.1262 0.6441,-10.2011 1.4269,-15.2703v0c0,-0.0009 0.0019,0 0.0019,-0.0009c-0.0427,-1.1049 -0.303,-2.1888 -0.4465,-3.2832c-0.0085,-0.0599 -0.0997,-0.1045 -0.1976,-0.1321c-0.9452,-0.9329 -1.8772,-1.8012 -2.564,-2.9706c-0.0665,-0.1197 -0.5415,-0.1862 -0.4408,-0.0076c0.7305,1.2464 1.7366,2.1422 2.7426,3.1511c0.1444,1.0365 0.3848,2.0663 0.4256,3.1132c0,0.0009 -0.0019,0.0009 -0.0019,0.0009c-0.1178,0.7648 -0.2156,1.5295 -0.3201,2.2952c-0.058,0.0019 -0.1064,0.0171 -0.1235,0.057c-0.323,0.7648 -0.8512,1.4431 -1.2521,2.167c-0.6565,1.1894 -1.1761,2.4738 -1.6673,3.7382c-1.159,2.9887 -2.0805,6.0715 -3.3573,9.0146c-0.55,1.2673 -1.1856,2.4766 -1.5247,3.8247c-0.3192,1.2701 -0.532,2.5593 -0.7315,3.8513c-0.3344,2.1916 -0.5586,4.5885 -1.7243,6.5255c-0.0009,0.0019 0.0019,0.0038 0.0019,0.0048c-0.0009,0.0019 -0.0038,0.0019 -0.0038,0.0028c-1.0545,5.0255 -7.2124,4.8289 -10.6542,2.3684c-1.8943,-1.3509 -3.4609,-3.7098 -3.2025,-6.1484c0.172,-1.6635 1.0992,-3.0058 2.2895,-4.1363c0.8427,-0.7999 1.8953,-1.6625 2.2287,-2.8301c0.4864,-1.7138 0.5643,-3.5359 1.0488,-5.2601c0.475,-1.6977 1.1875,-3.2367 1.8877,-4.8441c1.5105,-3.4722 2.1546,-7.1677 3.2509,-10.7749c1.1143,-3.6584 2.4016,-7.2618 3.4551,-10.9373c0.513,-1.7813 0.9852,-3.5739 1.4839,-5.359c0.4693,-1.6767 0.7866,-3.5321 1.8848,-4.9276c0.001,-0.001 0,-0.001 0,-0.0019c1.4735,-1.2635 2.9992,-2.5546 4.846,-3.2243c1.956,-0.7106 4.0584,-1.0118 6.1227,-1.3291c0.3021,-0.0465 0.6052,-0.0931 0.9054,-0.1406c0.0294,-0.0047 0.0589,-0.0095 0.0883,-0.0142l3.8238,-0.2803c0,0 1.6226,3.325 7.125,3.6414c5.5024,0.3163 6.0562,-3.7573 6.0562,-3.7573l3.4742,1.0355l0.0997,0.0295c0.0171,0.0247 0.0542,0.0522 0.1245,0.0807c0.1121,0.0447 0.2289,0.0846 0.3429,0.1264c1.0203,0.3781 2.09,0.6878 2.9887,1.3053c0.0675,0.532 0.1634,1.0602 0.3088,1.5627c0.4949,1.7338 1.5076,3.2101 2.6277,4.5971c0.4664,2.47 1.9532,4.6911 2.4082,7.1573c0.7173,3.9045 3.1246,6.6946 6.784,8.1662c0.2061,0.0817 0.4959,-0.0371 0.1786,-0.1644c-1.9333,-0.7761 -3.6775,-1.9636 -4.8593,-3.7116c-1.0288,-1.5238 -1.2321,-3.041 -1.7613,-4.7301c-0.6194,-1.9798 -1.6083,-3.9301 -2.1156,-5.9508c0.1548,0.1843 0.3106,0.3686 0.4655,0.551c0.0912,0.1055 0.5662,0.153 0.4455,0.0057c-0.3524,-0.4132 -0.7153,-0.8341 -1.0716,-1.2673c-0.0009,-0.0028 -0.0009,-0.0047 -0.0019,-0.0076c-0.0019,-0.0114 -0.0209,-0.019 -0.0285,-0.0294c-1.0687,-1.3034 -2.07,-2.7094 -2.5289,-4.3168c-0.2451,-0.8674 -0.531,-1.9371 -0.4617,-2.8424c0.019,-0.2556 0.0703,-0.4874 0.1387,-0.7059c0.0067,-0.0209 0.0114,-0.0437 0.019,-0.0646c0.0703,-0.2071 0.1644,-0.399 0.2736,-0.5795c0.0143,-0.0228 0.0266,-0.0465 0.0409,-0.0684c0.114,-0.1795 0.2441,-0.3486 0.3885,-0.5092c0.0152,-0.0161 0.0285,-0.0313 0.0437,-0.0475c0.153,-0.1672 0.3183,-0.3268 0.4969,-0.4845v0c0.076,-0.0665 0.152,-0.1339 0.2318,-0.2004l0.2869,-0.1454c-0.0912,0.133 -0.1872,0.248 -0.2755,0.3924c-0.4456,2.0833 0.0019,4.0612 1.7052,5.4273c1.3196,1.0555 3.2234,1.5276 4.8925,1.3718c2.0615,-0.1919 3.763,-1.2882 4.7633,-3.1198c1.1362,-2.0833 0.3306,-4.2579 -1.3632,-5.718c-0.0181,-0.0162 -0.0447,-0.0295 -0.0732,-0.0399c-0.2137,-0.1121 -0.8835,-0.4427 -1.8012,-0.7154c0.6156,-0.0038 1.6464,0 2.0368,0.0665c3.0315,0.7591 4.1743,3.0106 4.6997,5.8777c0.4835,2.64 0.7951,5.2877 2.0805,7.6902c0.0038,0.0076 0.019,0.0124 0.0256,0.019c0.304,0.6536 0.6869,1.2303 0.8541,1.9485z"/><path d="M275.0405,137.3678v0c0.4417,2.5792 1.0649,5.1518 0.816,7.7833c-0.1045,1.1058 -0.4588,2.1926 -0.6222,3.2937c-0.1387,0.9585 -0.4864,1.7546 -1.1077,2.489c-0.6717,0.7923 -2.242,0.6317 -3.1825,0.6536c-3.0277,0.076 -6.1532,-0.5938 -9.0203,-1.5143c-2.7597,-0.8854 -5.6316,-2.2468 -7.5078,-4.5353c-0.1102,2.9383 0.2755,5.7608 1.1561,8.6678c1.1875,3.9187 3.1901,7.5202 4.4603,11.3943c0.7248,2.2106 -0.2195,3.7553 -1.4991,5.1851c0.0057,0.0133 0.0256,0.0275 0.019,0.0408c-0.6014,1.3082 1.3043,2.4976 1.026,3.8019c-0.1188,0.5596 -1.5314,1.2075 -1.9912,1.4621c-1.0593,0.5918 -2.167,1.0279 -3.3155,1.4136c-1.8145,0.6108 -3.5948,1.3366 -5.3827,2.0292c-0.5643,0.2194 -1.1296,0.4332 -1.6977,0.6403c-2.2496,0.8227 -4.5391,1.4991 -6.9378,1.7765c-0.1083,0.0123 -0.2157,0.0294 -0.324,0.0399c-0.1453,0.0152 -0.2888,0.0437 -0.4351,0.0551c-4.5904,0.3467 -9.2625,0.7828 -13.7769,-0.3933c-0.8977,-0.2337 -2.8357,-0.6926 -3.2528,-1.6834c-0.2413,-0.5729 0.4066,-1.4478 0.6755,-1.9722c0.2631,-0.5092 0.1301,-1.1913 0.1121,-1.7347c-0.001,-0.0314 0.0304,-0.0475 0.076,-0.0542c-0.1748,-0.3857 -0.3354,-0.7752 -0.4722,-1.1808c-0.4075,-1.2027 -0.4265,-2.3684 -0.2479,-3.611c0.0057,-0.0418 0.0123,-0.0836 0.018,-0.1254c0.038,-0.266 0.076,-0.5301 0.114,-0.7951c0.3629,-2.509 0.7106,-4.978 0.7914,-7.5307c0.1225,-3.9615 0.4455,-7.8945 0.9443,-11.8161c-0.2062,0.3363 -0.4237,0.665 -0.6194,0.9975c-0.6536,1.102 -1.1324,2.3247 -1.6131,3.5103c-0.0209,0.0513 -0.039,0.1026 -0.0589,0.1539c-0.0656,0.1615 -0.1235,0.3268 -0.1872,0.4892c-1.1419,2.9127 -2.0643,5.909 -3.2794,8.797c-0.4949,1.1704 -1.0773,2.2762 -1.4373,3.4989c-0.3686,1.2445 -0.5653,2.5393 -0.7657,3.8199c-0.3601,2.3009 -0.5548,4.8422 -1.7803,6.8809c-0.8265,3.9463 -4.8241,4.7348 -8.2489,3.819c-0.9357,-0.2489 -1.8563,-0.6479 -2.698,-1.1714c-0.3933,-0.2441 -0.7685,-0.5177 -1.121,-0.8132c-1.9057,-1.5979 -3.1274,-3.9111 -2.6524,-6.5455c0.2499,-1.3898 1.2502,-2.5574 2.2259,-3.5102c1.215,-1.1856 2.1688,-2.1575 2.4206,-3.9083c0.2375,-1.6663 0.5719,-3.3127 1.0535,-4.9286c0.5539,-1.8487 1.4735,-3.5502 2.1993,-5.3343c0.7058,-1.7375 1.121,-3.5245 1.5618,-5.3409c0.4902,-2.0159 1.0944,-4.0023 1.7166,-5.9793c1.1904,-3.7743 2.4605,-7.5107 3.5093,-11.3278c0.4114,-1.4877 0.8113,-2.9811 1.2369,-4.465c0.3734,-1.3024 0.6888,-2.5631 1.539,-3.6442c0.001,-0.0009 0,-0.0019 0,-0.0019c1.5058,-1.2882 3.0381,-2.5403 4.9068,-3.2604c2.0111,-0.7733 4.2322,-1.0516 6.3688,-1.3746c0.2793,-0.0418 0.5576,-0.0855 0.8341,-0.1302l4.2845,-0.3182c0,0 2.3351,3.1236 6.9663,3.5986c4.6313,0.475 5.8976,-3.6414 5.8976,-3.6414l4.0375,1.1837c0.0684,0.0276 0.1387,0.0523 0.2071,0.0789c0.9852,0.38 2.0036,0.6992 2.9203,1.2302c-0.0266,-0.2745 -0.0646,-0.551 -0.0693,-0.8217c-0.019,-1.2711 0.9367,-2.1176 1.8411,-2.8548l1.0469,-0.4683c2.0719,-2.4159 4.8307,-2.375 6.7915,-1.9095l2.489,0.0142c0.0399,-0.0142 0.0931,-0.019 0.1729,0.001c0.1216,0.0304 0.2299,0.0731 0.3468,0.1083c0.5035,0.1491 0.9756,0.3268 1.3946,0.5538c1.5627,0.8436 2.5602,2.224 3.0856,4.1496c0.8312,3.0391 0.8531,6.1665 2.3664,9.0117c0.0048,0.0067 0.02,0.0114 0.0238,0.019c0.3154,0.6783 0.6678,1.235 0.8645,1.9665c0.3581,1.3367 0.5548,2.7256 0.7866,4.0879zM256.4357,120.5271v0c-0.8275,3.8789 2.0767,6.556 5.8624,6.3726c0.0247,-0.0009 0.0504,0 0.0751,-0.0009c0.5785,-0.0333 1.1219,-0.171 1.6311,-0.381c1.0384,-0.4284 1.9238,-1.1818 2.5821,-2.1375c1.407,-2.0425 0.7638,-4.3747 -1.0203,-5.9175c-6.5816,-2.356 -9.1304,2.0643 -9.1304,2.0643zM274.9331,147.1632v0c0.1967,-1.1979 0.5026,-2.2828 0.5187,-3.5112c0.0314,-2.4234 -0.6327,-4.8887 -1.0431,-7.2637c-0.1814,-1.0649 -0.3857,-2.1232 -0.6308,-3.1749c-0.1662,-0.7182 -0.55,-1.2948 -0.854,-1.9484c-0.0057,-0.0067 -0.0219,-0.0114 -0.0257,-0.019c-1.2844,-2.4026 -1.596,-5.0502 -2.0805,-7.6903c-0.5244,-2.8671 -1.6682,-5.1186 -4.6996,-5.8776c-0.3914,-0.0665 -1.4222,-0.0703 -2.0368,-0.0665c0.9167,0.2726 1.5865,0.6023 1.8012,0.7153c0.0285,0.0105 0.0541,0.0238 0.0731,0.0399c1.6948,1.4602 2.4995,3.6347 1.3633,5.7181c-1.0004,1.8316 -2.7018,2.9279 -4.7633,3.1198c-1.6682,0.1558 -3.572,-0.3164 -4.8925,-1.3718c-1.7034,-1.3661 -2.1508,-3.344 -1.7053,-5.4274c0.0884,-0.1444 0.1843,-0.2593 0.2755,-0.3923l-0.2869,0.1453c-0.0798,0.0665 -0.1558,0.133 -0.2318,0.2005c-0.1776,0.1577 -0.3439,0.3182 -0.4968,0.4845c-0.0152,0.0161 -0.0285,0.0313 -0.0437,0.0475c-0.1444,0.1615 -0.2746,0.3306 -0.3886,0.5092c-0.0142,0.0228 -0.0266,0.0456 -0.0408,0.0684c-0.1093,0.1814 -0.2033,0.3724 -0.2736,0.5795c-0.0076,0.0209 -0.0124,0.0437 -0.019,0.0646c-0.0684,0.2185 -0.1188,0.4493 -0.1387,0.7058c-0.0703,0.9054 0.2156,1.9751 0.4617,2.8424c0.4588,1.6074 1.4601,3.0134 2.5289,4.3168c0.0076,0.0105 0.0266,0.0181 0.0285,0.0295c0.0009,0.0028 0.0009,0.0047 0.0019,0.0076c0.3562,0.4322 0.7191,0.8531 1.0716,1.2673c0.1206,0.1472 -0.3544,0.0997 -0.4456,-0.0057c-0.1548,-0.1824 -0.3106,-0.3667 -0.4655,-0.551c0.5083,2.0216 1.4972,3.971 2.1157,5.9508c0.5291,1.6891 0.7324,3.2062 1.7613,4.73c1.1818,1.748 2.926,2.9355 4.8592,3.7117c0.3164,0.1273 0.0276,0.246 -0.1786,0.1643c-3.6594,-1.4715 -6.0667,-4.2617 -6.7839,-8.1662c-0.4541,-2.4662 -1.9418,-4.6873 -2.4083,-7.1573c-1.12,-1.387 -2.1327,-2.8633 -2.6277,-4.597c-0.1453,-0.5035 -0.2413,-1.0308 -0.3087,-1.5628c-0.8997,-0.6175 -1.9694,-0.9272 -2.9887,-1.3053c-0.114,-0.0418 -0.2309,-0.0817 -0.343,-0.1263c-0.0703,-0.0276 -0.1073,-0.0551 -0.1244,-0.0808l-0.0998,-0.0294l-3.4741,-1.0355c0,0 -0.5539,4.0736 -6.0563,3.7572c-5.5024,-0.3163 -7.125,-3.6413 -7.125,-3.6413l-3.8237,0.2802c-0.0295,0.0048 -0.0589,0.0095 -0.0884,0.0143c-0.3002,0.0475 -0.6032,0.094 -0.9053,0.1406c-2.0644,0.3173 -4.1667,0.6184 -6.1228,1.329c-1.8468,0.6707 -3.3725,1.9618 -4.8459,3.2243c-0.001,0.001 0,0.001 0,0.0019c-1.0982,1.3956 -1.4155,3.2509 -1.8848,4.9277c-0.4988,1.785 -0.9709,3.5777 -1.4839,5.3589c-1.0536,3.6756 -2.3408,7.2789 -3.4552,10.9374c-1.0963,3.6071 -1.7404,7.3026 -3.2509,10.7749c-0.7001,1.6074 -1.4126,3.1464 -1.8876,4.844c-0.4845,1.7243 -0.5624,3.5464 -1.0488,5.2602c-0.3335,1.1675 -1.3861,2.0301 -2.2287,2.83c-1.1904,1.1305 -2.1176,2.4729 -2.2895,4.1363c-0.2584,2.4387 1.3081,4.7985 3.2024,6.1484c3.4419,2.4605 9.5998,2.6572 10.6543,-2.3683c0,-0.0019 0.0028,-0.0019 0.0038,-0.0029c0.0009,-0.0019 -0.0029,-0.0038 -0.0019,-0.0047c0.1007,-0.1672 0.1852,-0.342 0.2726,-0.5149c-1.8458,1.3822 -5.5499,1.2074 -7.2,0.0902c-0.2176,-0.1444 0.2688,-0.1282 0.3762,-0.0541c2.1926,1.4829 7.9648,0.8198 7.39,-2.7588c-0.0152,-0.114 0.2081,-0.1007 0.3563,-0.038c0.2299,-1.0811 0.3676,-2.1898 0.5291,-3.2509c0.1995,-1.292 0.4123,-2.5812 0.7315,-3.8513c0.3392,-1.3481 0.9747,-2.5574 1.5248,-3.8247c1.2768,-2.9431 2.1983,-6.0259 3.3573,-9.0146c0.4911,-1.2644 1.0108,-2.5488 1.6672,-3.7382c0.4009,-0.7239 0.9291,-1.4022 1.2521,-2.167c0.0162,-0.0399 0.0646,-0.0551 0.1235,-0.057c0.1045,-0.7657 0.2024,-1.5304 0.3202,-2.2952c0,0 0.0019,0 0.0019,-0.0009c-0.0409,-1.0469 -0.2812,-2.0767 -0.4256,-3.1132c-1.0061,-1.0098 -2.0121,-1.9047 -2.7427,-3.1511c-0.1007,-0.1786 0.3743,-0.1121 0.4408,0.0076c0.6869,1.1694 1.6188,2.0377 2.5641,2.9706c0.0988,0.0276 0.19,0.0732 0.1976,0.1321c0.1434,1.0944 0.4037,2.1783 0.4465,3.2832c0,0.0009 -0.0019,0 -0.0019,0.0009v0c-0.7828,5.0692 -1.2597,10.1441 -1.4269,15.2703c-0.0817,2.4263 -0.3563,4.8004 -0.7268,7.1868c0.0105,0.0085 0.0238,0.0171 0.0295,0.0266c5.225,7.9211 17.0525,9.4648 25.0363,5.0834c0.1206,-0.0674 0.5652,0.1159 0.3838,0.2147c-8.0351,4.4099 -20.007,2.8662 -25.5256,-4.8516c-0.0427,0.2641 -0.0798,0.5272 -0.1244,0.7913c-0.2261,1.3633 -0.0646,2.6239 0.3714,3.9207c0.3354,1.0079 1.3319,1.9228 1.2236,3.0143c-0.0142,0.134 -0.4949,0.0333 -0.4788,-0.1292c0.0551,-0.5652 -0.1843,-0.8816 -0.4313,-1.2758c0.0143,0.2954 0.0114,0.5909 -0.0636,0.8626c-0.1416,0.494 -0.4779,0.9851 -0.6755,1.4601c-0.6308,1.5219 3.1075,2.1974 4.1392,2.3313c4.6407,0.6042 9.3328,0.5596 13.983,-0.114c4.5182,-0.6536 8.7695,-2.9906 13.0701,-4.4393c0.9092,-0.304 1.7908,-0.6688 2.642,-1.1125c0.6536,-0.3382 2.3959,-1.0953 2.2306,-1.9988c-0.152,-0.8455 -1.027,-1.7708 -1.1172,-2.6818c-0.5833,0.6108 -1.1942,1.216 -1.7252,1.8572c-0.0941,0.1131 -0.551,-0.0522 -0.4484,-0.1786c0.8939,-1.0839 1.976,-1.9864 2.8766,-3.0656c1.3461,-1.6074 1.2967,-3.3792 0.5909,-5.2754c-1.3832,-3.705 -3.1626,-7.2247 -4.313,-11.0238c-0.988,-3.2632 -1.2873,-6.4799 -0.931,-9.8581c0.0294,-0.2708 0.0598,-0.5396 0.0893,-0.8094c-0.0019,-0.0105 -0.019,-0.0219 -0.0133,-0.0314c0.0057,-0.0114 0.0133,-0.0228 0.0199,-0.0342c0.3724,-3.3155 0.8189,-6.5654 0.571,-9.9284c-0.0114,-0.1701 0.4683,-0.0675 0.4778,0.0712c0.2176,2.9631 -0.0655,5.8615 -0.4151,8.7875c0.8882,-1.5428 1.6207,-3.1654 1.349,-5.0065c-0.0209,-0.1634 0.4569,-0.0722 0.4769,0.0703c0.3344,2.2838 -0.8303,4.2361 -1.9694,6.1209c-0.0066,0.0608 -0.0142,0.1225 -0.0218,0.1833c-0.0779,0.6289 -0.1245,1.2493 -0.1577,1.8658c0.0598,0.019 0.1111,0.0447 0.133,0.0741c1.9104,2.5717 5.035,3.9349 8.0132,4.8555c2.6724,0.8274 5.5604,1.3537 8.3667,1.2844c1.5713,-0.039 2.5935,-0.1188 3.4114,-1.5789c0.4237,-0.7572 0.437,-1.7613 0.5757,-2.6002z"/></g><g stroke="none" stroke-width="0.95" stroke-linecap="butt"><path d="M241.5995,124.8059v0c-4.2132,0.2119 -6.6148,-2.3702 -7.4024,-3.4048l0.209,-2.736l0.0694,-0.9224c0.0598,0.0323 0.1187,0.0655 0.1795,0.095c2.3123,1.1267 5.2497,2.375 7.8584,2.4263c0.0399,0.0009 0.0694,-0.0029 0.0893,-0.0076c0.001,0 0.001,0 0.0019,0c0.647,-0.153 1.2673,-0.4437 1.8544,-0.8009c0.0209,2.1822 1.9057,1.8848 2.3437,1.786c-0.1891,1.0384 -1.0669,3.3573 -5.2032,3.5644z" fill="#a86c35"/><path d="M234.4052,118.6651l-0.2176,2.851l-0.1947,-0.2793l-0.1216,-0.1758l0.2375,-2.7521l0.1482,-0.8902l0.2375,0.0589l-0.02,0.2651l-0.0693,0.9224" fill="#000000"/><path d="M246.8939,121.2187v0c0,0 -2.4121,0.7059 -2.4358,-1.7641c-0.0019,-0.0969 -0.0057,-0.1881 0.0009,-0.2945h0.2375c0,0 -0.2574,2.2961 2.1774,1.8411l0.0171,0.1824z" fill="#000000"/></g><g stroke="none" stroke-width="0.95" stroke-linecap="butt"><path d="M245.4755,120.1975v0c0.1425,-0.1862 -0.3097,-0.3677 -0.4398,-0.2071c-0.039,0.0484 -0.0722,0.1007 -0.1083,0.1501c0.0028,-0.0323 0.0019,-0.1283 0.0019,-0.096c0.0047,0.6783 -0.589,-0.7267 -0.0836,-0.93l0.0171,-0.0105c0.0285,0.0228 0.0522,0.0485 0.1016,0.0608c1.7195,0.4456 3.6946,1.0621 5.1072,2.2031c-1.3081,2.8737 -2.8661,5.7522 -3.8342,8.7666c-0.8037,-0.856 -1.596,-1.7243 -2.3959,-2.5859c-0.4104,-0.4408 -0.8198,-0.8816 -1.2397,-1.3129c-0.6061,-0.6251 -0.875,-0.9006 -0.1824,-1.6131c0.5348,-0.5482 0.9633,-1.1742 1.3661,-1.8202c0.0741,-0.1188 0.1482,-0.2366 0.2204,-0.3563c0.4655,-0.7666 0.9129,-1.5475 1.4696,-2.2486z" fill="#c0e1e1"/><path d="M235.2982,128.6097v0c-0.0779,-0.1111 -0.1625,-0.2118 -0.3164,-0.2869c-0.0085,-0.0047 -0.0152,-0.0104 -0.0237,-0.0142c-0.703,-0.6118 -1.3813,-1.2426 -1.9589,-1.9437c-0.3658,-0.4465 -3.4476,-4.1354 -2.8738,-4.5828c0.0143,-0.0095 0.0285,-0.0171 0.038,-0.0314c0.9301,-1.3471 2.509,-2.2068 3.9045,-3.0314c0.0067,0.0085 0.0133,0.0171 0.02,0.0256c0.2213,0.3059 0.456,0.6023 0.7011,0.8902c0.3505,0.4113 0.7172,0.8103 1.1067,1.1884c0.0903,0.0874 0.1843,0.1691 0.2755,0.2546c1.1638,1.0897 2.4567,2.0549 3.7468,2.9479c0.6859,0.4778 1.4839,0.7381 0.9367,1.6482c-0.3933,0.6498 -0.7866,1.3025 -1.159,1.9665c-0.5975,1.0678 -0.9709,2.2534 -1.6292,3.2842c-0.8854,-0.7857 -1.8459,-1.5333 -2.7683,-2.3152z" fill="#c0e1e1"/><path d="M250.5799,121.4021v0c-0.0019,0.0076 0.0076,0.0133 0.0019,0.0199c-1.3642,3.0049 -3.0172,6.0126 -3.9815,9.177c-0.0066,0.0257 -0.0294,0.0456 -0.0608,0.0599c-0.1016,0.0788 -0.3002,0.0437 -0.3828,-0.0589c-1.0213,-1.0688 -2.0102,-2.166 -3.0153,-3.2519c-0.457,-0.4921 -1.4117,-1.1115 -1.634,-1.824c-0.6071,0.988 -1.2208,1.976 -1.7395,3.0106c-0.4759,0.9452 -0.7742,1.9361 -1.3879,2.812c-0.096,0.1368 -0.3259,0.0456 -0.4161,-0.039c-2.0131,-1.842 -4.295,-3.4437 -5.9831,-5.6012c-0.4009,-0.5092 -2.9165,-3.3943 -2.2696,-4.1334c0.0048,-0.0095 0.0038,-0.019 0.0105,-0.0295c1.0022,-1.4506 2.7255,-2.3446 4.2047,-3.2262c0.1387,-0.0826 0.3287,-0.0161 0.4132,0.1083c0.0019,0.0029 0.0038,0.0057 0.0057,0.0086c1.8639,2.716 4.6693,4.4365 7.2523,6.3716c0.1663,-0.2337 0.4342,-0.4436 0.5871,-0.5975c0.3886,-0.4 0.6945,-0.8921 0.9994,-1.3557c0.494,-0.7619 0.9329,-1.5608 1.4488,-2.3094c0.095,-0.1368 0.1938,-0.2698 0.2926,-0.4028c0.0361,-0.0494 0.0693,-0.1017 0.1083,-0.1501c0.1301,-0.1615 0.5823,0.0209 0.4398,0.2071c-0.5567,0.702 -1.0041,1.482 -1.4696,2.2486c-0.0722,0.1188 -0.1463,0.2375 -0.2204,0.3563c-0.4019,0.646 -0.8313,1.272 -1.3661,1.8202c-0.6926,0.7125 -0.4247,0.988 0.1824,1.6131c0.4208,0.4313 0.8293,0.8721 1.2397,1.3129c0.799,0.8616 1.5913,1.7309 2.3959,2.5859c0.9671,-3.0153 2.5261,-5.8929 3.8342,-8.7666c-1.4126,-1.141 -3.3877,-1.7566 -5.1072,-2.2031c-0.0484,-0.0123 -0.0731,-0.038 -0.1016,-0.0608c-0.1444,-0.113 -0.0608,-0.3106 0.1871,-0.2479c0.3021,0.0779 0.6118,0.1643 0.9234,0.2546c0.0798,0.0228 0.1596,0.0465 0.2394,0.0703c1.5276,0.456 3.1113,1.0773 4.2902,2.0738c0.0057,0.0048 0.0067,0.0086 0.0114,0.0133c0.0266,0.0181 0.0409,0.0361 0.0532,0.0599c0.0152,0.0275 0.0181,0.0522 0.0143,0.0741zM232.9992,126.3639v0c0.5776,0.7002 1.2559,1.3319 1.9589,1.9428c0.1149,0.0997 0.2242,0.2033 0.3401,0.3021c0.9224,0.7818 1.8829,1.5295 2.7683,2.3151c0.6593,-1.0307 1.0317,-2.2163 1.6292,-3.2841c0.3724,-0.6641 0.7657,-1.3158 1.159,-1.9665c0.5472,-0.9101 -0.2498,-1.1704 -0.9367,-1.6483c-1.2901,-0.8939 -2.5821,-1.8591 -3.7468,-2.9478c-0.0912,-0.0855 -0.1852,-0.1672 -0.2755,-0.2546c-0.3895,-0.3781 -0.7562,-0.7771 -1.1067,-1.1885c-0.2461,-0.2878 -0.4798,-0.5842 -0.7011,-0.8901c-0.0067,-0.0086 -0.0133,-0.0171 -0.02,-0.0257c-1.3955,0.8246 -2.9744,1.6853 -3.9045,3.0315c-0.0095,0.0142 -0.0237,0.0218 -0.038,0.0313c-0.5747,0.4475 2.508,4.1373 2.8738,4.5828z" fill="#000000"/></g><g stroke-linecap="butt"><g stroke="none" stroke-width="0.95"><path d="M251.338,103.7245v0c0.722,-0.3173 1.1096,-0.2176 1.1618,0.2973c0.0409,0.2423 0.0618,0.4864 0.0589,0.7325c-0.0247,0.4826 -0.0874,0.9538 -0.2517,1.4126c-0.1919,0.5339 -0.4218,1.0526 -0.6451,1.5723c-0.0247,-0.9282 -0.1396,-1.8592 -0.3391,-2.7778c0.0038,-0.0086 0.0218,-0.0095 0.0199,-0.0209c-0.056,-0.3734 -0.0532,-0.7866 -0.0247,-1.2075c0.0038,-0.0047 0.0171,-0.0028 0.02,-0.0085z" fill="#a86c35"/><path d="M247.4496,116.4269v0c-0.4702,0.4845 -0.9557,0.9519 -1.4696,1.3756c-1.0992,0.9063 -2.3095,1.8962 -3.7212,2.243c-2.4728,-0.0637 -5.4273,-1.2958 -7.5838,-2.4244c-2.7009,-1.4079 -5.0103,-3.4172 -6.0259,-6.3631c-0.019,-0.0542 -0.1111,-0.0903 -0.2071,-0.1121c-0.0066,-0.0257 -0.0171,-0.0551 -0.0228,-0.0798c0.076,-0.095 0.1511,-0.191 0.2204,-0.2936c0.0504,-0.0712 -0.3895,-0.2565 -0.475,-0.1282c-0.5823,0.8607 -1.3347,1.2929 -2.3835,0.4816c-0.3762,-0.2878 -0.7629,-0.5709 -1.0887,-0.9158c-0.5434,-0.5757 -1.0764,-1.2492 -1.274,-2.0387c-0.2527,-1.0089 0.1121,-3.9206 1.4592,-4.18c0.0181,-0.0038 0.0361,-0.0076 0.0551,-0.0104c0.3126,-0.0428 0.6755,0.0522 1.0954,0.3458c0.0978,0.0665 0.5776,0.1121 0.3743,-0.0285c-0.0884,-0.0608 -0.171,-0.0979 -0.2556,-0.1473c-0.8692,-9.5038 0.8237,-17.7289 14.9245,-16.7789c13.6515,0.9206 10.6619,12.8782 10.4244,13.7532c-0.0019,0.0028 -0.0105,0.0009 -0.0124,0.0047c-0.5035,0.95 -0.7286,2.2753 -0.6355,3.3896c-0.0418,0.0086 -0.0675,0.0266 -0.0599,0.0589c0.7173,3.0229 0.6517,6.5427 -1.1495,9.1865c-0.4389,0.6413 -0.9291,1.2626 -1.4487,1.8601c-0.2508,0.2622 -0.4969,0.5292 -0.7401,0.8018z" fill="#a86c35"/><g fill="#000000"><path d="M252.8048,103.6238v0c0.7885,1.8021 -0.5197,3.6366 -1.0916,5.2981c-0.0085,0.0257 -0.0437,0.0333 -0.0788,0.0399c-0.1264,1.8535 -0.6527,3.6556 -1.7414,5.2516c-0.9538,1.4032 -2.1935,2.6458 -3.4646,3.7582c-0.4608,0.4028 -0.9605,0.8104 -1.4906,1.1752c0.0067,0.0028 0.0124,0.0076 0.0209,0.0104c-0.171,0.0722 -0.323,0.1634 -0.4588,0.2736c-0.5995,0.3686 -1.2341,0.6688 -1.8972,0.8256c-0.0009,0 -0.0009,0 -0.0019,0c-0.0199,0.0057 -0.0494,0.0085 -0.0893,0.0076c-2.6087,-0.0513 -5.5451,-1.2996 -7.8584,-2.4263c-0.0997,-0.0485 -0.1938,-0.1045 -0.2926,-0.1549c0.001,0.0038 0.0019,0.0076 0.0029,0.0114c-0.1292,-0.0902 -0.2736,-0.1624 -0.4304,-0.2213c0.0076,-0.0019 0.0124,-0.0048 0.02,-0.0057c-2.5413,-1.3823 -4.7234,-3.3972 -5.7247,-6.1684c-0.4456,0.475 -1.0013,0.7619 -1.7148,0.4807c-1.2844,-0.5044 -2.4263,-1.595 -3.1521,-2.7455c-1.2302,-1.9437 -0.0997,-5.8567 2.2449,-5.1262c0.0845,0.0266 0.1662,0.0437 0.2536,0.0827c-0.1406,-1.0013 -1.4183,-11.0181 3.2899,-14.2111c2.716,-1.8411 5.3352,-2.7474 8.2555,-2.926c2.261,-0.1377 4.7053,0.1625 7.5126,0.8094c0.1871,0.0437 0.3705,0.0827 0.5605,0.1283c6.7393,1.633 7.676,9.6833 6.4951,13.4216c0,0 -0.0104,0.0095 -0.0266,0.0228c0.0019,0.0076 0.0181,0.0171 0.0143,0.0237c-0.286,0.5396 -0.4845,1.2132 -0.5881,1.8972c0.0219,-0.0095 0.0494,-0.0095 0.0722,-0.0171c0.5007,-0.172 1.1277,-0.0485 1.3595,0.4845zM249.6394,113.765v0c1.8002,-2.6438 1.8658,-6.1636 1.1495,-9.1865c-0.0076,-0.0323 0.0171,-0.0503 0.0598,-0.0589c-0.0931,-1.1143 0.1321,-2.4396 0.6356,-3.3896c0.0019,-0.0038 0.0104,-0.0019 0.0123,-0.0047c0.2375,-0.875 3.2272,-12.8336 -10.4243,-13.7532c-14.1009,-0.949 -15.7947,7.2751 -14.9226,16.7799c0.0855,0.0494 0.1681,0.0864 0.2555,0.1472c0.2024,0.1406 -0.2764,0.0941 -0.3743,0.0285c-0.4199,-0.2926 -0.7828,-0.3885 -1.0953,-0.3458c-0.019,0.0029 -0.0371,0.0076 -0.0551,0.0105c-1.3471,0.2593 -1.7119,3.1711 -1.4592,4.18c0.1976,0.7894 0.7305,1.463 1.2739,2.0387c0.3259,0.3448 0.7125,0.6279 1.0887,0.9158c1.0479,0.8103 1.8003,0.38 2.3817,-0.4798c0,-0.0009 -0.001,-0.0009 -0.001,-0.0019c0.381,-1.0098 -1.3129,-0.6241 -1.8515,-0.6906c-0.8389,-0.0998 -1.578,-0.4912 -1.92,-1.293c-0.0427,-0.0997 0.4142,-0.0541 0.4731,0.0779c0.6118,1.426 1.9181,0.8085 3.0685,0.8921c0.5748,0.0408 0.9424,0.5149 0.7068,1.1409c-0.0693,0.1026 -0.1444,0.1986 -0.2204,0.2936c-0.0161,0.0199 -0.0304,0.0418 -0.0465,0.0617c0.0237,0.0029 0.0456,0.0124 0.0693,0.0181c0.096,0.0218 0.1881,0.0579 0.2071,0.1121c1.0165,2.945 3.325,4.9552 6.0259,6.3631c2.1565,1.1295 5.11,2.3607 7.5838,2.4244c1.4117,-0.3468 2.622,-1.3357 3.7212,-2.243c0.513,-0.4237 0.9984,-0.8911 1.4687,-1.3756c0.2536,-0.2612 0.5016,-0.5263 0.74,-0.8018c0.5187,-0.5966 1.0099,-1.2179 1.4488,-1.8601zM252.306,106.1679v0c0.1644,-0.4598 0.2271,-0.9301 0.2508,-1.4136c0.0029,-0.2451 -0.0171,-0.4893 -0.0589,-0.7325c-0.0513,-0.5139 -0.4379,-0.6137 -1.1609,-0.2964c-0.0019,0.0057 -0.0152,0.0038 -0.0199,0.0086c-0.0295,0.4208 -0.0323,0.8341 0.0247,1.2074c0.0019,0.0114 -0.0152,0.0124 -0.02,0.0209c0.1995,0.9187 0.3145,1.8497 0.3392,2.7778c0.2242,-0.5196 0.4531,-1.0383 0.645,-1.5722z"/><path d="M223.7642,106.3398v0c0.0485,-0.9329 1.0887,-1.0972 1.8411,-0.9091c1.2493,0.3173 1.7566,1.5741 2.6344,2.3987c0.114,0.1083 -0.3449,0.0599 -0.4351,-0.0237c-0.5995,-0.5634 -1.026,-1.274 -1.6036,-1.8544c-0.628,-0.6289 -1.9114,-0.4712 -1.9599,0.5177c-0.0057,0.1026 -0.4835,0.0171 -0.4769,-0.1292z"/></g></g><g stroke="none" stroke-width="0.95"><path d="M242.3073,110.7934v0c1.2359,-0.284 3.2708,-0.7296 4.3434,0.2071c-0.514,0.5434 -0.8123,1.1543 -0.8911,1.9228c-0.0703,0.6669 -0.0836,1.3186 -0.3952,1.9276c0,0 0.0009,0 0,0v0c-0.7363,2.0653 -3.4438,1.8259 -4.5458,0.2014c-0.0028,-0.0048 -0.0133,-0.0067 -0.018,-0.0105c-0.0019,-0.0047 0.0057,-0.0047 0.0019,-0.0095c-0.6736,-0.8436 -1.6625,-1.824 -1.2474,-3.0001c0.0029,-0.0114 -0.0123,-0.0218 -0.019,-0.0323c0.7534,-0.6526 1.8183,-0.988 2.7712,-1.2065z" fill="#7b1315"/><g><path d="M246.9993,110.9473v0c-0.2033,0.114 -0.2726,0.3249 -0.4256,0.4456c-0.0408,0.0323 -0.0731,0.0456 -0.1092,0.0655c-0.058,-0.0247 -0.1188,-0.0456 -0.1454,-0.0456c-2.2771,-0.018 -4.8412,-0.3648 -6.9426,0.723c-0.0503,-0.0257 -0.0389,-0.1036 0.0941,-0.2774c0.1776,-0.2385 0.5633,-0.4152 0.8274,-0.5377c0.6479,-0.2993 1.3823,-0.514 2.0672,-0.6612c0.8113,-0.1748 1.5742,-0.3791 2.3893,-0.2955c0.7296,-0.0019 1.3309,0.2233 2.2448,0.5833z" fill="#ffffff"/><path d="M239.3775,112.1358v0c2.1014,-1.0878 4.6654,-0.741 6.9416,-0.723c0.0266,0 0.0865,0.0209 0.1454,0.0456c0.1045,0.0428 0.2004,0.1007 0.0883,0.0998c-2.279,-0.02 -4.863,-0.3895 -6.9473,0.7495c-0.0912,0.0494 -0.381,-0.0988 -0.3382,-0.1225c0.0361,-0.019 0.0741,-0.0304 0.1102,-0.0494z" fill="#010101"/></g><path d="M246.7856,110.859v0c0.0855,-0.0532 0.3866,0.0674 0.322,0.1311c-0.0256,0.0256 -0.0437,0.0532 -0.0684,0.0779c0.0086,0.0171 0,0.0285 -0.0285,0.0332c-0.5253,0.5501 -0.7932,1.1524 -0.8911,1.919c-0.0912,0.6707 -0.0798,1.311 -0.3971,1.9266c0,0 0,0 -0.0009,0c-0.8512,2.3845 -4.0603,1.7813 -5.244,0.0656h-0.001c-0.6792,-0.8474 -1.6634,-1.8459 -1.2939,-3.022c-0.0408,-0.0266 -0.0674,-0.0541 -0.0446,-0.075c1.1286,-1.0251 2.926,-1.3585 4.3842,-1.5419c1.0393,-0.1311 2.3617,-0.151 3.2633,0.4855zM245.7596,112.9214v0c0.0788,-0.7676 0.3771,-1.3794 0.8911,-1.9247c-1.0726,-0.9348 -3.1075,-0.4892 -4.3434,-0.2052c-0.9529,0.2195 -2.0178,0.5539 -2.7712,1.2065c0.0067,0.0114 0.0228,0.0219 0.019,0.0323c-0.4151,1.1761 0.5738,2.1565 1.2474,3.0001c0.0038,0.0048 -0.0038,0.0057 -0.0019,0.0095c0.0047,0.0038 0.0152,0.0057 0.018,0.0105c1.102,1.6245 3.8095,1.8639 4.5458,-0.2014v0c0.0009,0 0,0 0,0c0.1273,-0.248 0.1966,-0.5045 0.2489,-0.7638c-0.0105,-0.0076 -0.0266,-0.0124 -0.0323,-0.0219c-0.5064,-0.8892 -1.1277,-2.2201 -2.1964,-2.5194c-0.21,-0.0617 -0.1786,-0.1862 0.0313,-0.1273c1.0792,0.3031 1.7252,1.311 2.2648,2.2563c0.0295,-0.248 0.0523,-0.4978 0.0789,-0.7515z" fill="#010101"/></g><g fill="#000000" stroke="none" stroke-width="0.95"><path d="M239.861,109.0967v0c-0.1244,0.077 -0.5367,-0.1159 -0.4493,-0.1729c0.4113,-0.2584 0.873,-0.2821 1.3262,-0.4313c0.0978,-0.0332 0.4218,0.0941 0.4189,0.1663c0.6802,0.1197 1.2768,0.4037 2.0036,0.3914c0.8407,-0.0152 1.6444,-0.6821 1.7907,-1.4991c0.0219,-0.1188 0.5007,-0.0076 0.4769,0.1263c-0.1434,0.8028 -0.8977,1.4602 -1.709,1.5542c-0.9244,0.1083 -1.6549,-0.2451 -2.5365,-0.3847c-0.0874,-0.0133 -0.1701,-0.0646 -0.2166,-0.1121c-0.3772,0.1016 -0.7657,0.1453 -1.1049,0.3619z"/><path d="M241.0238,107.0523v0c-0.113,0.0447 -0.5472,-0.1358 -0.3876,-0.1976c1.3709,-0.5367 2.7835,-0.7296 4.199,-0.266c0.3221,0.1064 0.02,0.1948 -0.1729,0.1321c-1.2188,-0.4 -2.4785,-0.1235 -3.6385,0.3315z"/></g><g><path d="M238.8569,103.6181c-0.057,0.0047 -0.0998,0.0104 -0.1539,0.037c-0.1131,0.5662 -1.5542,1.0099 -2.0093,1.1334c-0.8816,0.2403 -1.9864,0.1235 -2.8851,-0.0789c-0.6679,-0.1472 -1.2635,-0.4218 -1.3728,-1.1837c-0.0684,-0.4702 0.1872,-0.8892 0.4484,-1.2502c0.8493,-1.1704 2.1442,-2.0339 3.5891,-1.3518c0.5748,0.2679 1.0944,0.5842 1.3908,1.1181c0.3249,0.5767 0.8835,0.9918 1.0298,1.6739" fill="#ffffff" stroke="none" stroke-width="0.95"/><path d="M238.588,103.9629v0v0c-0.4712,-1.3347 -1.2844,-3.2917 -3.0124,-3.1321c-0.8094,0.0741 -1.5428,0.6146 -2.1176,1.1447c-0.9167,0.8379 -1.3119,2.0387 0.4009,2.5536c1.4117,0.4237 3.5017,0.0618 4.7766,-0.6365c0.1188,-0.0636 0.5615,0.115 0.3819,0.2138c-1.5618,0.855 -3.7943,1.0516 -5.4948,0.5415c-0.6165,-0.1843 -1.0801,-0.5729 -1.3091,-1.1723c-0.2346,-0.608 0.1824,-1.0298 0.5653,-1.445c0.7647,-0.8255 1.9693,-1.6121 3.1473,-1.4373c1.7642,0.2631 2.5935,1.9085 3.1369,3.4399c0.0504,0.1349 -0.4227,0.0722 -0.475,-0.0703z" fill="#000000" stroke="none" stroke-width="0.95"/><path d="M235.2735,101.7456c0.2878,0 0.5481,0.1169 0.7372,0.3059c0.189,0.1891 0.3059,0.4494 0.3059,0.7372c0,0.2879 -0.1169,0.5482 -0.3059,0.7372c-0.1891,0.1891 -0.4494,0.3059 -0.7372,0.3059c-0.2879,0 -0.5482,-0.1168 -0.7372,-0.3059c-0.1891,-0.189 -0.3059,-0.4493 -0.3059,-0.7372c0,-0.2878 0.1168,-0.5481 0.3059,-0.7372c0.189,-0.189 0.4493,-0.3059 0.7372,-0.3059z" fill="#42210b" stroke="#010101" stroke-width="0.23693"/></g><path d="M231.3861,99.7145v0c-0.0532,0.1292 -0.5216,-0.0209 -0.4779,-0.1273c0.9139,-2.3094 3.6841,-2.4738 5.795,-2.0045c0.286,0.0646 0.2337,0.2337 -0.0465,0.172c-1.9684,-0.4361 -4.4365,-0.1444 -5.2706,1.9598z" fill="#000000" stroke="none" stroke-width="0.95"/><g><path d="M250.6264,101.815c0,0.0104 0,0.0199 0,0.0323c0,0.6194 -0.4066,1.0393 -0.9984,1.3252c-0.7648,0.3734 -1.1932,0.5225 -2.0425,0.5634c-0.8484,0.0427 -1.635,0.0636 -2.4339,-0.1748c-0.3715,-0.1093 -0.3914,-0.1463 -0.3544,-0.5206c0.0314,-0.3183 0.1444,-0.4855 0.2841,-0.7724c0.1339,-0.2726 0.1539,-0.6004 0.3249,-0.8398c0.1501,-0.2166 0.0988,-0.5396 0.2802,-0.7324c0.4551,-0.4883 1.0745,-0.6356 1.7613,-0.6536c0.6052,-0.0152 1.3253,0.0646 1.8221,0.3857c0.3525,0.2261 1.4488,0.8702 1.425,1.4174" fill="#ffffff" stroke="none" stroke-width="0.95"/><path d="M244.5455,103.4452v0v0c0.2546,-1.5039 0.7809,-3.3212 2.5013,-3.6233c1.0004,-0.1777 2.0558,0.3258 2.8576,0.8597c0.3278,0.2185 0.6432,0.4836 0.8921,0.7885c0.4845,0.5976 -0.3563,1.5666 -0.8351,1.805c-1.5228,0.7629 -3.6556,0.8674 -5.2639,0.3164c-0.3183,-0.1093 -0.0219,-0.2309 0.1786,-0.1606c1.4506,0.4931 3.5862,0.3306 4.8944,-0.493c1.2445,-0.7828 0.3952,-1.8107 -0.4456,-2.3389c-0.7733,-0.4855 -1.6843,-0.7486 -2.5545,-0.3724c-1.2065,0.5263 -1.5533,2.1992 -1.748,3.3449c-0.0219,0.1397 -0.5026,0.0266 -0.4769,-0.1263z" fill="#000000" stroke="none" stroke-width="0.95"/><path d="M246.9974,100.7766c0.2879,0 0.5491,0.1169 0.7382,0.3059c0.189,0.1891 0.3059,0.4503 0.3059,0.7382c0,0.2878 -0.1169,0.5491 -0.3059,0.7381c-0.1891,0.1891 -0.4503,0.3059 -0.7382,0.3059c-0.2878,0 -0.5491,-0.1168 -0.7381,-0.3059c-0.1891,-0.189 -0.3059,-0.4503 -0.3059,-0.7381c0,-0.2879 0.1168,-0.5491 0.3059,-0.7382c0.189,-0.189 0.4503,-0.3059 0.7381,-0.3059z" fill="#42210b" stroke="#010101" stroke-width="0.23693"/></g><path d="M245.3815,96.7382v0c-0.1235,0.0076 -0.4902,-0.2869 -0.3192,-0.3002c2.2192,-0.1691 4.977,0.5472 5.5698,2.9963c0.0228,0.0902 -0.3971,-0.0665 -0.4322,-0.2071c-0.5235,-2.1689 -2.8852,-2.6382 -4.8184,-2.489z" fill="#000000" stroke="none" stroke-width="0.95"/><g stroke="none" stroke-width="0.95"><path d="M252.4846,99.629v0c0.0019,0.8968 0.0561,1.9836 -0.5082,2.7284c-0.2214,0.2907 -0.4608,0.5567 -0.6688,0.8455l-0.0922,0.096c0.0485,-0.1492 0.1976,-0.9567 0.3325,-1.9865c0.1302,0.1036 0.4076,0.0931 0.4266,-0.1035c0.2346,-3.3811 0.0817,-7.943 -3.2234,-9.9076c-0.8854,-0.5291 -1.8715,-0.8122 -2.888,-0.9462c-1.5798,-0.2071 -3.1749,-0.4322 -4.7633,-0.5101c-2.9298,-0.1435 -6.1265,-0.1359 -8.8635,1.0478c-1.7907,0.7752 -3.9672,2.1062 -4.8212,3.9425c-0.8455,1.8098 -1.3633,4.3871 -0.6004,6.3175c0.4617,1.1714 1.0298,2.3513 1.5637,3.4932c0.1871,0.4104 0.4949,0.7904 0.6555,1.2074c0.1852,0.4893 -0.2926,0.8351 -0.703,1.0963c-0.4883,-1.026 -0.9985,-1.9484 -1.7651,-2.8196c-0.0485,-0.056 -0.1283,-0.0807 -0.2071,-0.0845c-0.0133,-0.0228 -0.0285,-0.0456 -0.0551,-0.0694c-0.6299,-0.5766 -1.1372,-1.2587 -1.5314,-2.0168c0.0047,-0.0143 0.0209,-0.0181 0.0218,-0.0352c0.0048,-0.1358 -0.038,-0.2289 -0.1387,-0.3201c-0.1472,-0.1292 -0.1957,-0.3772 -0.2451,-0.5577c-0.0855,-0.323 -0.1083,-0.627 -0.2973,-0.8968c-0.095,-0.4294 -0.1549,-0.8635 -0.1881,-1.3005c0.0133,-0.0276 0.0085,-0.0599 -0.0095,-0.096c-0.001,-0.0247 -0.0057,-0.0484 -0.0067,-0.0722c-0.0057,-0.0779 -0.0693,-0.1263 -0.1444,-0.1596c-0.1862,-0.4028 0.1549,-0.8141 0.2385,-1.2445c0.0123,-0.0589 -0.0086,-0.1111 -0.0466,-0.152c0.058,-0.5158 0.1511,-1.0241 0.2774,-1.5276c0.0304,-0.0095 0.058,-0.0247 0.0798,-0.0475c0.267,-0.2869 0.1682,-0.6488 0.2242,-1.0013c0.0637,-0.3952 0.4133,-0.6327 0.495,-1.0222c0.0076,-0.0332 -0.0143,-0.0579 -0.0247,-0.0855c0.2403,-0.5063 0.5063,-0.9965 0.8103,-1.4687c0.0114,-0.0171 0.0133,-0.0342 0.0171,-0.0513c0.0789,-0.0703 0.1463,-0.151 0.1596,-0.2584c0.0209,-0.1368 -0.0085,-0.284 0.019,-0.4189c0.0789,-0.4028 0.6365,-0.6498 0.97,-0.8199c0.0266,-0.0133 0.0427,-0.0294 0.0589,-0.0456c0,-0.0009 0.0009,-0.0009 0.0009,-0.0009v0c0.0067,-0.0067 0.0133,-0.0124 0.0181,-0.0181c0.4484,-0.494 0.9424,-0.9386 1.4706,-1.3461c0.1406,0.0446 0.3125,0.0152 0.3116,-0.1435c-0.0057,-1.1058 1.5171,-1.0858 2.2876,-1.3062c0.094,-0.0276 0.1178,-0.0789 0.1045,-0.134c0.5738,-0.2508 1.1561,-0.4712 1.7527,-0.6555c0.1093,0.0466 0.2527,0.0504 0.3268,-0.0332c0.5605,-0.6251 1.2236,-0.7619 2.0131,-0.5159c0.0095,0.0038 0.0142,-0.0019 0.0237,0c0.0076,-0.0009 0.0133,0.0048 0.0209,0.0038c0.0133,-0.0019 0.0266,-0.0028 0.0399,-0.0047c0.0399,0 0.0789,0.0028 0.1064,-0.0133c0.7097,-0.1017 1.4203,-0.1758 2.1375,-0.2195c0.0247,-0.0009 0.0257,-0.0152 0.0447,-0.0199c0.0275,0.0123 0.0503,0.0332 0.0855,0.0351c0.5006,0.0314 0.9851,0.02 1.481,-0.0532c0.5786,-0.0855 1.2512,-0.2061 1.8012,0.0618c0.0105,0.0019 0.0171,0.0114 0.0295,0.0123c0.0038,0 0.0076,0.001 0.0114,0.001c0.0693,0.038 0.1377,0.037 0.1966,0.019c0.4427,0.0351 0.8864,0.0741 1.3281,0.1254c0.0665,0.0076 0.1055,-0.0105 0.1387,-0.0314c0.095,0.0475 0.2119,0.0646 0.2917,0.0124c0.6365,-0.4114 1.5494,0.2194 2.1983,0.3629c0.0152,0.0028 0.0218,-0.0048 0.0361,-0.0038c0.0104,0.0028 0.0161,0.0123 0.0285,0.0133c0.7799,0.0826 2.1375,0.1311 2.5137,0.9604c0.0579,0.1292 0.2688,0.172 0.3895,0.1226c0.7799,0.1748 1.2796,0.8692 1.6691,1.5238c0.0057,0.0095 0.0162,0.0171 0.0247,0.0266c0.0019,0.0304 0.0124,0.0627 0.0456,0.1016c0.4522,0.5301 0.9738,1.0526 1.1134,1.7613c0.0133,0.0656 0.0656,0.1112 0.1283,0.1444c0.702,0.7258 1.5181,1.7822 1.0782,2.8244c-0.0513,0.0342 -0.0769,0.0883 -0.0399,0.1691c0.4247,0.9224 0.5168,2.0558 0.2385,3.0324c-0.0057,0.019 0.0114,0.0313 0.0123,0.0494c-0.0541,0.0342 -0.0826,0.0893 -0.0465,0.1729c0.2688,0.6203 0.3296,1.4259 0.0123,2.0415c-0.0332,0.0646 -0.0171,0.1226 0.0171,0.1729z" fill="#301113"/><path d="M252.9207,97.368v0c0.2859,0.6793 0.3268,1.4915 0.0304,2.1736c0.0038,0.0143 0.0199,0.0219 0.0199,0.0371c-0.0009,0.8597 0.0162,1.7746 -0.3182,2.5849c-0.2632,0.6375 -0.8807,1.0422 -1.1685,1.6682c-0.1007,0.2204 -0.5757,0.0855 -0.4769,-0.1301c0.0836,-0.1796 0.189,-0.3401 0.3011,-0.4969c0.2081,-0.2888 0.4475,-0.5548 0.6688,-0.8455c0.5653,-0.7486 0.5102,-1.8344 0.5083,-2.7312c-0.0352,-0.0504 -0.0504,-0.1083 -0.0171,-0.1729c0.3173,-0.6156 0.2555,-1.4212 -0.0124,-2.0416c-0.0361,-0.0836 -0.0076,-0.1387 0.0466,-0.1729c-0.001,-0.0171 -0.0181,-0.0304 -0.0124,-0.0494c0.2784,-0.9766 0.1862,-2.109 -0.2384,-3.0324c-0.038,-0.0798 -0.0124,-0.1339 0.0408,-0.1662c0.4399,-1.0422 -0.3771,-2.0986 -1.0782,-2.8244c-0.0637,-0.0332 -0.115,-0.0798 -0.1283,-0.1444c-0.1406,-0.7096 -0.6612,-1.2312 -1.1134,-1.7613c-0.0332,-0.038 -0.0437,-0.0712 -0.0456,-0.1016c-0.0076,-0.0086 -0.018,-0.0162 -0.0247,-0.0266c-0.3895,-0.6555 -0.8892,-1.349 -1.6691,-1.5238c-0.1207,0.0494 -0.3306,0.0066 -0.3895,-0.1226c-0.3762,-0.8293 -1.7347,-0.8778 -2.5137,-0.9604c-0.0114,-0.0019 -0.0171,-0.0114 -0.0285,-0.0133c-0.0143,-0.001 -0.0209,0.0066 -0.0361,0.0038c-0.6479,-0.1444 -1.5609,-0.7752 -2.1983,-0.3629c-0.0798,0.0522 -0.1967,0.0342 -0.2917,-0.0124c-0.0332,0.0209 -0.0722,0.039 -0.1387,0.0314c-0.4408,-0.0513 -0.8844,-0.0903 -1.3281,-0.1254c-0.0589,0.0171 -0.1273,0.019 -0.1966,-0.019c-0.0038,0 -0.0076,-0.001 -0.0114,-0.001c-0.0114,-0.0009 -0.0181,-0.0104 -0.0295,-0.0123c-0.551,-0.2679 -1.2236,-0.1473 -1.8012,-0.0618c-0.4968,0.0732 -0.9813,0.0846 -1.481,0.0532c-0.0352,-0.0019 -0.057,-0.0228 -0.0855,-0.0351c-0.0181,0.0047 -0.02,0.019 -0.0447,0.0199c-0.7172,0.0428 -1.4278,0.1169 -2.1375,0.2195c-0.0275,0.0161 -0.0665,0.0133 -0.1064,0.0133c-0.0133,0.0019 -0.0266,0.0028 -0.0399,0.0047c-0.0076,0.001 -0.0133,-0.0038 -0.0209,-0.0038c-0.0095,-0.0019 -0.0142,0.0029 -0.0237,0c-0.7895,-0.246 -1.4526,-0.1092 -2.0131,0.5159c-0.0741,0.0836 -0.2175,0.0798 -0.3268,0.0332c-0.5966,0.1834 -1.1789,0.4038 -1.7527,0.6555c0.0133,0.0551 -0.0105,0.1074 -0.1045,0.134c-0.7695,0.2204 -2.2933,0.2004 -2.2876,1.3062c0.0009,0.1587 -0.171,0.1872 -0.3116,0.1435c-0.5282,0.4075 -1.0222,0.8521 -1.4706,1.3461c-0.0048,0.0067 -0.0124,0.0124 -0.0181,0.0181v0c0,0.0009 -0.0009,0.0009 -0.0009,0.0009c-0.0162,0.0162 -0.0323,0.0323 -0.0589,0.0456c-0.3335,0.1691 -0.8911,0.4171 -0.97,0.8199c-0.0285,0.1339 0.001,0.2812 -0.019,0.4189c-0.0133,0.1074 -0.0807,0.1881 -0.1596,0.2584c-0.0038,0.0171 -0.0057,0.0333 -0.0171,0.0513c-0.304,0.4722 -0.5709,0.9624 -0.8103,1.4687c0.0104,0.0276 0.0323,0.0523 0.0247,0.0855c-0.0817,0.3895 -0.4323,0.627 -0.495,1.0222c-0.0551,0.3525 0.0428,0.7144 -0.2242,1.0013c-0.0218,0.0228 -0.0494,0.0371 -0.0798,0.0475c-0.1263,0.5035 -0.2194,1.0118 -0.2774,1.5276c0.038,0.0418 0.0589,0.0931 0.0466,0.152c-0.0836,0.4313 -0.4247,0.8427 -0.2385,1.2445c0.0741,0.0333 0.1387,0.0817 0.1444,0.1596c0.001,0.0247 0.0057,0.0485 0.0067,0.0722c0.018,0.0371 0.0228,0.0694 0.0095,0.096c0.0323,0.437 0.0931,0.8711 0.1881,1.3005c0.189,0.2689 0.2118,0.5738 0.2973,0.8968c0.0494,0.1815 0.0979,0.4285 0.2451,0.5577c0.1017,0.0912 0.1444,0.1843 0.1387,0.3201c-0.0009,0.0162 -0.0171,0.0209 -0.0218,0.0352c0.3942,0.7581 0.9015,1.4402 1.5314,2.0168c0.0266,0.0238 0.0418,0.0466 0.0551,0.0694c0.0788,0.0047 0.1577,0.0285 0.2071,0.0845c0.7666,0.8721 1.2768,1.7936 1.7651,2.8196c0.4104,-0.2612 0.8882,-0.6061 0.703,-1.0963c-0.1606,-0.418 -0.4684,-0.797 -0.6555,-1.2074c-0.5339,-1.1419 -1.102,-2.3228 -1.5637,-3.4932c-0.7629,-1.9304 -0.2451,-4.5077 0.6004,-6.3175c0.854,-1.8354 3.0305,-3.1673 4.8212,-3.9425c2.737,-1.1846 5.9337,-1.1913 8.8635,-1.0478c1.5884,0.0779 3.1835,0.303 4.7633,0.5101c1.0165,0.134 2.0026,0.4171 2.888,0.9462c3.306,1.9656 3.458,6.5265 3.2234,9.9076c-0.0181,0.1957 -0.2964,0.2061 -0.4266,0.1035c-0.0418,-0.0342 -0.0693,-0.0798 -0.0655,-0.1358c0.2356,-3.3535 0.1197,-7.8632 -3.2253,-9.7299c-0.8265,-0.4608 -1.7708,-0.6574 -2.7008,-0.7619c-1.7556,-0.1976 -3.5008,-0.4427 -5.2659,-0.5054c-3.0666,-0.1112 -6.2842,0.1111 -9.0079,1.6444c-2.242,1.2635 -3.6366,2.9593 -4.1391,5.4787c-0.2176,1.0896 -0.2242,2.2287 -0.0057,3.3174c0.2204,1.1029 0.9471,2.1726 1.3803,3.2081c0.2746,0.6479 0.9225,1.4592 1.0469,2.147c0.0475,0.2689 -0.0418,0.4959 -0.1957,0.6926c-0.0199,0.0256 -0.0437,0.0494 -0.0655,0.0741c-0.2451,0.2736 -0.6052,0.4873 -0.8778,0.6707c-0.134,0.0874 -0.3477,0.0342 -0.4161,-0.1112c-0.3582,-0.7733 -0.7306,-1.4886 -1.1961,-2.166c-0.0342,-0.0494 -0.0636,-0.1007 -0.0988,-0.1501c-0.1691,-0.2365 -0.3524,-0.4683 -0.5519,-0.6963c-0.0029,-0.0029 -0.0029,-0.0057 -0.0057,-0.0086c-0.0599,-0.0019 -0.1216,-0.0209 -0.1701,-0.0665c-0.7049,-0.6412 -1.273,-1.3927 -1.7043,-2.2429c-0.0332,-0.0646 -0.0247,-0.1121 0.0076,-0.1463c-0.0389,-0.0874 -0.1358,-0.1824 -0.1748,-0.2518c-0.0646,-0.1197 -0.1073,-0.2489 -0.1406,-0.3809c-0.0855,-0.3211 -0.0988,-0.7192 -0.3268,-0.9747c-0.0589,-0.0646 -0.0589,-0.1188 -0.0304,-0.1596c-0.0902,-0.4228 -0.1501,-0.8465 -0.1833,-1.2768c-0.1682,-0.2157 -0.248,-0.4389 -0.21,-0.7249c0.0399,-0.2679 0.1853,-0.512 0.2651,-0.7714c-0.0152,-0.0294 -0.039,-0.0541 -0.0361,-0.0893c0.0608,-0.646 0.1786,-1.2806 0.3467,-1.9076c0.02,-0.0788 0.0903,-0.1054 0.1682,-0.1121c0.0057,-0.0142 0.018,-0.0256 0.0228,-0.0399c0.0057,-0.0133 0.0123,-0.0256 0.0161,-0.0399c0.0703,-0.2403 0.0323,-0.5329 0.0703,-0.7742c0.0447,-0.2784 0.2622,-0.4722 0.3924,-0.7087c-0.0295,-0.038 -0.0418,-0.0836 -0.019,-0.134c0.2441,-0.5358 0.5225,-1.0488 0.8312,-1.5504c-0.0475,-0.0598 -0.0484,-0.1292 0.0409,-0.1814c0.0598,-0.0342 0.0893,-0.0836 0.1197,-0.133c0.0351,-0.058 0.0608,-0.1226 0.0731,-0.1929c0.0333,-0.1852 0.0238,-0.3971 0.1207,-0.5709c0.1852,-0.3335 0.6593,-0.5539 1.0022,-0.7249c0.5349,-0.5852 1.1153,-1.121 1.7585,-1.5884c0.0009,-0.0009 0.0038,-0.0009 0.0047,-0.0019c0.0333,-0.1482 0.0855,-0.2783 0.1615,-0.3885c0.039,-0.057 0.0827,-0.1093 0.1311,-0.1577c0.4161,-0.4095 1.1429,-0.532 1.767,-0.666c0.0143,-0.0114 0.0257,-0.0237 0.0466,-0.0342c0.6346,-0.3049 1.291,-0.551 1.9589,-0.7685c0.1786,-0.0589 0.3534,-0.1264 0.5348,-0.1786c0.0228,-0.0057 0.0475,-0.0067 0.0713,-0.0057c0.0304,-0.0276 0.0598,-0.058 0.0902,-0.0836c0.551,-0.4617 1.198,-0.6023 1.9086,-0.4636c0.0798,0.0152 0.1605,0.038 0.2413,0.0608c0.2232,-0.0333 0.4474,-0.0599 0.6716,-0.0865c0.5016,-0.0598 1.0051,-0.1102 1.5096,-0.1387c0.0494,-0.0028 0.0959,0.0171 0.1406,0.039c0.0332,-0.0143 0.0598,-0.0342 0.114,-0.0314c1.0887,0.0694 2.3797,-0.4151 3.4266,0.0352c0.4731,0.0332 0.9472,0.0769 1.4212,0.1311c0.0504,0.0057 0.0855,0.0323 0.1226,0.057c0.8407,-0.5206 1.7717,0.1121 2.6201,0.303c0.9338,0.0979 2.2904,0.2176 2.8452,1.084c0.0209,0 0.0333,-0.0114 0.0551,-0.0076c0.9985,0.171 1.6321,1.0127 2.1176,1.8316c0.0076,0.0133 0.0066,0.0237 0.0114,0.0351c0.0009,0.001 0.0019,0.001 0.0028,0.0019c0.4779,0.5596 0.9709,1.1058 1.1562,1.8278c0.0133,0.0086 0.0275,0.0152 0.0389,0.0266c0.779,0.7961 1.71,2.0245 1.1904,3.1901c-0.0038,0.0105 -0.0171,0.0105 -0.0228,0.019c0.4275,0.9662 0.5177,2.1375 0.2318,3.1521c-0.0076,0.0257 -0.0323,0.0304 -0.0475,0.0475z" fill="#000000"/></g></g><g stroke="none" stroke-width="0.95" stroke-linecap="butt"><path d="M200.5006,183.0533v0c0.0095,-0.0124 0.0295,-0.0143 0.0304,-0.0295c0.1881,-1.1742 0.4646,-2.317 0.8018,-3.4542c0.152,0.133 0.3221,0.3135 0.3772,0.3582c0.1301,0.1016 0.2764,0.2004 0.3771,0.3249c0.1311,0.1558 0.2299,0.3173 0.3515,0.4693c0.1815,0.228 0.2803,0.2964 0.5092,0.4265c0.2556,0.1416 0.3962,0.3306 0.5947,0.5149c0.2774,0.2556 0.6926,0.4038 1.0298,0.5748c0.6356,0.3211 1.2882,0.6346 1.9836,0.7809c0.7097,0.1529 1.3994,0.2232 2.1157,0.2954c0.607,0.0589 1.272,0.0352 1.8525,-0.132c-0.2983,1.4335 -0.3306,2.9203 -0.3981,4.3785c-2.0833,-0.4883 -0.4313,-2.7388 -1.3718,-4.0983c-0.0988,-0.1406 -0.5149,-0.1615 -0.4702,-0.0057c-0.0124,0.0114 -0.0342,0.0124 -0.0418,0.0295c-0.8816,1.9389 -1.008,4.1287 -1.9371,6.0581c-0.0313,0.0637 0.0228,0.1178 0.096,0.1587c0.0779,1.1599 -0.0656,2.1935 -0.6717,3.2281c-0.3562,-1.3547 -0.9918,-2.6733 -1.0364,-4.0822c0.0218,-0.0161 0.0522,-0.0256 0.0579,-0.0551c0.3059,-1.6045 0.3658,-3.2243 0.4028,-4.8535c0.0067,-0.191 -0.4769,-0.2784 -0.4826,-0.0485c-0.0361,1.5628 -0.0997,3.1132 -0.3819,4.6531c-0.0522,0.0209 -0.0912,0.057 -0.0912,0.1207c0.0057,1.5447 0.7657,2.9782 1.1106,4.4678c-0.5833,-0.0171 -2.1983,-2.2268 -2.6695,-3.1074c0.0104,-0.0143 0.0332,-0.0181 0.0351,-0.038c0.1967,-1.9998 0.5729,-3.9796 0.836,-5.9727c0.0276,-0.2118 -0.455,-0.3287 -0.4797,-0.1301c-0.2508,1.9009 -0.5995,3.7876 -0.8018,5.6943c-0.0276,-0.0029 -0.0456,0.0066 -0.0703,0.0085c-0.2242,-0.2441 -0.4931,-0.493 -0.5786,-0.797c-0.0038,-0.0114 -0.0209,-0.0181 -0.0275,-0.0295c-0.1235,-1.8838 -0.0589,-3.7525 0.4655,-5.5774c0.0541,-0.1986 -0.4228,-0.3287 -0.4826,-0.1283c-0.5073,1.7803 -0.5805,3.5977 -0.4769,5.4312c-0.2347,-0.1606 -0.4598,-0.3477 -0.5824,-0.6052c-0.0152,-0.0313 -0.0475,-0.057 -0.0845,-0.0779c0.0731,-1.5836 -0.1093,-3.1758 0.1092,-4.7509z" fill="#a86c35"/><path d="M211.0152,183.2461v0c-0.3173,1.501 -0.3382,3.06 -0.4113,4.5857c-0.0019,0.0275 -0.0285,0.0351 -0.0466,0.0513c-0.0066,0.0076 -0.0104,0.0152 -0.0199,0.0209c-0.0323,0.0161 -0.0694,0.0199 -0.1159,0.0161c-0.0152,-0.0009 -0.0181,0.0076 -0.0352,0.0048c-0.0104,-0.0019 -0.0209,-0.0048 -0.0313,-0.0057c-0.001,-0.001 -0.001,-0.001 -0.001,-0.001c-0.8949,-0.1463 -1.69,-0.4978 -1.8477,-1.4744c-0.1283,-0.7714 0.1966,-1.615 0.0332,-2.3731c-0.6887,1.7594 -0.8873,3.6813 -1.671,5.4122c0.0009,0.0038 0.0066,0.0057 0.0066,0.0095c0.1264,1.3328 -0.0209,2.4937 -0.7125,3.6613c-0.0408,0.0684 -0.1415,0.0779 -0.2394,0.0541c0,0.0219 -0.0066,0.0447 -0.0228,0.0665c-0.0209,0.0276 -0.0465,0.0399 -0.0684,0.0637c0.0152,0.076 -0.0465,0.1064 -0.1254,0.1159c-0.9918,0.589 -3.0504,-2.395 -3.5644,-3.4808c-0.0864,-0.0048 -0.1776,-0.0361 -0.2204,-0.0931c-0.2052,-0.2698 -0.4826,-0.5121 -0.6688,-0.8037c-0.0893,-0.0295 -0.1681,-0.0789 -0.1738,-0.152c-0.0029,-0.0371 -0.0019,-0.0741 -0.0048,-0.1112c-0.076,-0.0009 -0.1539,-0.019 -0.2128,-0.056c-0.2593,-0.1653 -0.5196,-0.3696 -0.7049,-0.6242c-0.1282,-0.0256 -0.2584,-0.1045 -0.2508,-0.2166c0.1093,-1.6796 -0.1187,-3.3639 0.1188,-5.0359c0.0028,-0.0209 0.0266,-0.0247 0.0389,-0.0399c0.2024,-1.2493 0.4912,-2.4653 0.8674,-3.6756c0.0636,-0.1985 0.5386,-0.0665 0.4797,0.1283c-0.0275,0.0902 -0.0475,0.1814 -0.0741,0.2717c-0.3382,1.1371 -0.6146,2.28 -0.8018,3.4542c-0.0028,0.0171 -0.0237,0.019 -0.0323,0.0323c-0.2185,1.5751 -0.0361,3.1673 -0.1092,4.7509c0.037,0.0209 0.0693,0.0466 0.0845,0.0779c0.1226,0.2575 0.3477,0.4446 0.5824,0.6052c-0.1036,-1.8335 -0.0304,-3.6509 0.4769,-5.4312c0.0598,-0.2004 0.5367,-0.0703 0.4826,0.1283c-0.5244,1.8249 -0.589,3.6936 -0.4655,5.5774c0.0076,0.0105 0.0237,0.0171 0.0275,0.0295c0.0855,0.304 0.3544,0.5529 0.5786,0.797c0.0247,-0.0019 0.0427,-0.0114 0.0703,-0.0085c0.2023,-1.9067 0.55,-3.7934 0.8018,-5.6943c0.0247,-0.1986 0.5073,-0.0817 0.4797,0.1301c-0.2631,1.9931 -0.6393,3.9729 -0.836,5.9727c-0.0019,0.0199 -0.0247,0.0237 -0.0351,0.038c0.4712,0.8806 2.0862,3.0903 2.6695,3.1074c-0.3449,-1.4896 -1.1049,-2.9231 -1.1106,-4.4678c0,-0.0637 0.039,-0.1007 0.0912,-0.1207c0.2822,-1.5399 0.3458,-3.0894 0.3819,-4.6531c0.0057,-0.2299 0.4893,-0.1425 0.4826,0.0485c-0.037,1.6283 -0.0969,3.249 -0.4028,4.8535c-0.0066,0.0304 -0.0361,0.039 -0.0579,0.0551c0.0446,1.4098 0.6802,2.7275 1.0364,4.0822c0.6061,-1.0336 0.7496,-2.0672 0.6717,-3.2281c-0.0732,-0.0409 -0.1273,-0.095 -0.096,-0.1587c0.9291,-1.9294 1.0555,-4.1192 1.9371,-6.0581c0.0076,-0.0162 0.0294,-0.0171 0.0418,-0.0295c-0.0447,-0.1558 0.3714,-0.1339 0.4702,0.0057c0.9405,1.3585 -0.7106,3.6091 1.3718,4.0983c0.0675,-1.4582 0.1007,-2.944 0.3981,-4.3785c0.0038,-0.0209 0.0057,-0.0437 0.0104,-0.0646c0.0409,-0.2005 0.5216,-0.0779 0.4788,0.1301z" fill="#010101"/></g><path d="M236.44166,129.78629l4.92742,17.81452" fill="none" stroke="none" stroke-width="0" stroke-linecap="round"/><path d="M237.57876,123.34274l0.37903,26.91129" fill="none" stroke="none" stroke-width="0" stroke-linecap="round"/></g></g></svg>